<svg width="30" height="30" viewBox="0 0 30 30" fill="none" xmlns="http://www.w3.org/2000/svg">
<g clip-path="url(#clip0_2030_2454)">
<path fill-rule="evenodd" clip-rule="evenodd" d="M28.2056 17.6251C28.5371 18.0513 28.8027 18.5171 29.0006 19.0209C29.2161 19.5695 29.2536 20.1262 29.0965 20.673C28.9413 21.2127 28.6266 21.6666 28.1724 22.0308C27.7839 22.3422 27.3923 22.6502 26.9985 22.9551C26.5769 23.2814 26.1191 23.5545 25.6259 23.7721C25.2164 23.9529 24.8516 24.1981 24.5314 24.5106C24.1423 24.8904 23.7106 25.2102 23.2372 25.468C22.8202 25.6951 22.4216 25.9506 22.0411 26.234C21.587 26.5723 21.0855 26.7901 20.5413 26.8789C19.9716 26.9718 19.4228 26.877 18.9104 26.6019C18.4118 26.3342 18.0096 25.9508 17.7076 25.4609C17.4484 25.0402 17.1854 24.6233 16.919 24.2105C16.6542 23.7999 16.3813 23.3942 16.1006 22.9944C15.8039 22.5717 15.5375 22.1282 15.3028 21.6641C15.093 21.2494 14.8411 20.8632 14.5471 20.5059C14.2235 20.1126 13.918 19.7069 13.6303 19.2891C13.3393 18.8663 13.074 18.4255 12.8358 17.9673C12.6253 17.5622 12.3642 17.1909 12.0517 16.8541C11.6907 16.4651 11.3735 16.0456 11.1008 15.5957C10.8436 15.1713 10.588 14.7452 10.3342 14.3185C10.0921 13.9115 9.82186 13.523 9.5243 13.1533C9.20611 12.7581 8.90348 12.3518 8.61703 11.9349C8.32411 11.5086 8.06427 11.0603 7.83644 10.5918C7.62785 10.1629 7.38843 9.74798 7.11913 9.3474C6.93929 9.07991 6.82981 8.78255 6.83908 8.46503C6.84854 8.14609 6.97641 7.85837 7.17649 7.6081C7.505 7.19726 7.88101 6.83229 8.30423 6.51457C8.68378 6.22968 9.0517 5.92219 9.40608 5.59186C9.78962 5.23434 10.1968 4.91048 10.6276 4.62118C11.0566 4.33304 11.507 4.07633 11.9778 3.85111C12.4005 3.64887 12.7953 3.40666 13.1634 3.12527C13.566 2.81744 13.9797 2.5251 14.404 2.24898C14.8758 1.94194 15.3855 1.75626 15.9283 1.69952C16.5436 1.63521 17.0822 1.84628 17.5046 2.30354C17.8415 2.66835 18.104 2.99736 18.2775 3.2851C18.3257 3.36507 18.3638 3.42229 18.3911 3.46171C18.4439 3.48961 18.4835 3.5221 18.5041 3.53974C18.5544 3.58308 18.6054 3.6375 18.6497 3.68877C18.7429 3.79641 18.8654 3.95483 19.0141 4.15559C19.3223 4.57177 19.5988 5.01039 19.8424 5.46992C20.0605 5.88126 20.3183 6.26578 20.616 6.6232C20.9395 7.01172 21.2511 7.40876 21.5504 7.81381C21.8553 8.22652 22.1348 8.65655 22.3883 9.10396C22.6271 9.52543 22.8813 9.93728 23.1505 10.338C23.4195 10.7384 23.7039 11.1285 24.0038 11.5081C24.3207 11.9092 24.6162 12.3256 24.8899 12.7562C25.1627 13.1855 25.4166 13.6281 25.6503 14.0834C25.8575 14.4871 26.1192 14.8544 26.4352 15.1854C26.8042 15.5722 27.125 15.9932 27.3975 16.4468C27.6428 16.8554 27.9125 17.2481 28.2056 17.6251Z" fill="#1A1C20"/>
<path d="M21.047 12.2544C21.1737 12.434 21.269 12.6296 21.3317 12.84C21.3825 13.0106 21.4474 13.177 21.5268 13.3394C21.6278 13.5462 21.6819 13.7655 21.6886 13.9949C21.6946 14.2033 21.682 14.4098 21.6506 14.6141C21.6215 14.8026 21.593 14.9919 21.5652 15.1816C21.5339 15.3941 21.4751 15.5993 21.389 15.7968C21.2998 16.0011 21.1776 16.1844 21.023 16.3454C20.9028 16.4706 20.7975 16.6093 20.707 16.7618C20.5876 16.9632 20.4306 17.1221 20.2266 17.2039C20.1917 17.2179 20.1648 17.2294 20.145 17.2384C20.1384 17.2479 20.1331 17.2557 20.1288 17.2609C20.1038 17.2908 20.0736 17.316 20.0511 17.3338C20.0023 17.3723 19.9333 17.419 19.8501 17.4716C19.6614 17.5907 19.4569 17.6731 19.2384 17.7184C19.0566 17.7561 18.8771 17.8017 18.6998 17.8549C18.4954 17.9162 18.2855 17.9518 18.0711 17.9619C17.8502 17.9722 17.6328 17.9473 17.4199 17.8877C17.2269 17.8336 17.0372 17.7729 16.8512 17.7052C16.6653 17.6375 16.4813 17.5625 16.2991 17.4802C16.0996 17.39 15.9172 17.2721 15.753 17.1271C15.5895 16.9827 15.4498 16.8179 15.3344 16.6338C15.2406 16.4842 15.1324 16.3432 15.0095 16.2113C14.8505 16.0404 14.735 15.8431 14.6654 15.6213C14.6066 15.434 14.55 15.2456 14.4953 15.0565C14.4315 14.836 14.414 14.6108 14.443 14.3828C14.4674 14.1911 14.4891 14.001 14.5081 13.8128C14.5288 13.6079 14.5668 13.4054 14.6224 13.2059C14.6772 13.0093 14.7456 12.8163 14.8269 12.6267C14.9198 12.4102 15.0586 12.225 15.2408 12.0739C15.3748 11.9627 15.4913 11.8359 15.5905 11.6929C15.7271 11.496 15.9042 11.3436 16.1187 11.2387C16.2929 11.1536 16.4654 11.0674 16.6364 10.9801C16.8408 10.8758 17.0591 10.8176 17.2888 10.8063C17.462 10.7979 17.6334 10.7684 17.803 10.7173C18.0295 10.649 18.2603 10.6352 18.4921 10.6767C18.695 10.713 18.894 10.7622 19.0888 10.8243C19.2828 10.8861 19.4724 10.9594 19.6574 11.0444C19.86 11.1374 20.0409 11.2631 20.1991 11.4203C20.33 11.5504 20.4668 11.6728 20.6091 11.7874C20.7765 11.9223 20.9226 12.0782 21.047 12.2544ZM20.6345 12.5459C20.537 12.4078 20.4229 12.2861 20.292 12.1807C20.1359 12.055 19.986 11.9209 19.8428 11.7784C19.7267 11.6631 19.5951 11.5717 19.4466 11.5034C19.2803 11.427 19.1098 11.361 18.9353 11.3054C18.7618 11.2501 18.5845 11.2061 18.4031 11.1737C18.2505 11.1464 18.0999 11.1552 17.9485 11.2008C17.7401 11.2636 17.528 11.3005 17.3131 11.311C17.1547 11.3187 17.0066 11.3583 16.8663 11.4299C16.6926 11.5185 16.517 11.606 16.3402 11.6924C16.2039 11.759 16.0933 11.8542 16.0055 11.9808C15.8802 12.1614 15.7324 12.3224 15.5632 12.4628C15.4421 12.5633 15.3522 12.6834 15.2912 12.8256C15.2186 12.9948 15.1578 13.1668 15.1091 13.3416C15.0612 13.5135 15.0284 13.6876 15.0106 13.8636C14.9912 14.0562 14.9691 14.2505 14.9441 14.4465C14.9238 14.6062 14.9359 14.762 14.9805 14.9161C15.0341 15.1016 15.0899 15.2863 15.1476 15.4701C15.1945 15.6193 15.2708 15.7511 15.379 15.8672C15.5233 16.0223 15.6512 16.1886 15.7623 16.3658C15.8518 16.5085 15.9602 16.6359 16.0875 16.7484C16.214 16.8601 16.3538 16.9505 16.5072 17.0198C16.6779 17.0969 16.8502 17.1671 17.024 17.2304C17.1978 17.2937 17.3754 17.3507 17.5562 17.4014C17.7171 17.4465 17.8805 17.4649 18.0475 17.4571C18.2211 17.449 18.3901 17.4205 18.5546 17.3711C18.746 17.3137 18.9397 17.2646 19.1358 17.224C19.295 17.1909 19.4429 17.1312 19.5803 17.0444C19.6459 17.003 19.6912 16.9712 19.7204 16.9496C19.7372 16.9181 19.7563 16.8965 19.7673 16.8852C19.7993 16.8525 19.8359 16.8304 19.8564 16.8187C19.9038 16.7916 19.9675 16.7636 20.0386 16.7351C20.1105 16.7062 20.1916 16.6408 20.2725 16.5044C20.3824 16.319 20.5112 16.1491 20.6587 15.9955C20.7719 15.8775 20.8609 15.7443 20.9261 15.5947C20.9944 15.4381 21.0407 15.2761 21.0654 15.1082C21.0935 14.9173 21.122 14.727 21.1512 14.5374C21.178 14.3636 21.1891 14.1877 21.184 14.0095C21.1794 13.8524 21.1424 13.7036 21.0728 13.5611C20.9814 13.3741 20.9062 13.1818 20.8474 12.9843C20.8004 12.8266 20.7297 12.6807 20.6345 12.5459ZM19.7111 17.1769C19.7127 17.1806 19.7142 17.1844 19.716 17.1882C19.7142 17.1845 19.7127 17.1807 19.7111 17.1769ZM20.1786 16.9889C20.1783 16.9879 20.1779 16.987 20.1776 16.9861C20.1779 16.987 20.1782 16.988 20.1786 16.9889ZM20.1696 16.9672C20.1686 16.9651 20.1677 16.9629 20.1666 16.9608L20.1519 16.9364C20.1588 16.9466 20.1645 16.957 20.1696 16.9672Z" fill="#F3F4F5"/>
<path d="M22.71 11.2674C22.8307 11.4402 22.9317 11.6259 23.0133 11.8237C23.0792 11.9833 23.1646 12.1286 23.2695 12.2601C23.3961 12.419 23.5122 12.5854 23.6176 12.7588C23.7121 12.9144 23.8157 13.0642 23.9281 13.2078C24.0519 13.3659 24.1676 13.5295 24.2747 13.699C24.3696 13.849 24.4771 13.9906 24.5976 14.1238C24.7483 14.2905 24.8655 14.4801 24.9485 14.6911C25.0087 14.8442 25.0939 14.9785 25.2052 15.0958C25.3519 15.2504 25.4794 15.4187 25.5874 15.6004C25.6839 15.7629 25.7836 15.9233 25.8862 16.0816C25.9833 16.2316 26.0922 16.3738 26.2129 16.5082C26.3563 16.6679 26.4778 16.8428 26.5774 17.0324C26.6634 17.1964 26.7568 17.3555 26.8572 17.5097C26.9656 17.676 27.0516 17.8253 27.1123 17.9556C27.1209 17.9742 27.1287 17.9899 27.1353 18.0027C27.1417 18.0069 27.1488 18.0106 27.1552 18.0157C27.2085 18.0581 27.2348 18.1135 27.245 18.1601C27.2612 18.2351 27.238 18.294 27.2349 18.3024C27.2278 18.3215 27.2196 18.3357 27.2159 18.3421C27.208 18.3558 27.2 18.3662 27.1968 18.3705C27.184 18.3876 27.1669 18.4069 27.1539 18.4212C27.1231 18.4549 27.0735 18.5068 27.0074 18.5751C26.8827 18.7038 26.7652 18.8416 26.6547 18.9881C26.5667 19.1047 26.5174 19.2331 26.5052 19.3787C26.4906 19.5526 26.4964 19.7216 26.5218 19.8864C26.5484 20.0584 26.5884 20.2286 26.6422 20.3966C26.6989 20.5737 26.7526 20.7278 26.803 20.8591C26.8499 20.9812 26.8539 21.1116 26.8069 21.2377C26.7622 21.3576 26.6788 21.4549 26.5828 21.5337C26.4254 21.6628 26.2604 21.7811 26.0884 21.8887C25.9173 21.9957 25.7396 22.0929 25.5556 22.1804C25.408 22.2507 25.277 22.3452 25.1617 22.4648C25.0096 22.6224 24.8399 22.7559 24.6531 22.8646C24.4979 22.9549 24.3504 23.0566 24.2104 23.1695C24.0447 23.3032 23.8646 23.4159 23.6707 23.5071C23.5098 23.5827 23.3591 23.6724 23.2183 23.7767C23.0638 23.891 22.9091 24.0054 22.7546 24.1197C22.6028 24.2319 22.4529 24.3471 22.3051 24.4654C22.1343 24.602 21.9447 24.7105 21.738 24.791C21.5402 24.868 21.3528 24.9187 21.1777 24.9373C20.9335 24.9632 20.722 24.8574 20.5524 24.6841C20.4501 24.5796 20.3303 24.5066 20.1896 24.4637C20.0133 24.41 19.8325 24.3606 19.6472 24.3155C19.5172 24.2839 19.3982 24.2984 19.279 24.3609C19.0689 24.471 18.8488 24.5221 18.6251 24.4964C18.3723 24.4674 18.1757 24.3248 18.0388 24.1101C17.9378 23.9516 17.8331 23.7957 17.7245 23.6424C17.6046 23.4733 17.5005 23.2936 17.412 23.1039C17.3396 22.9487 17.2479 22.8071 17.1369 22.6785C17.0047 22.5254 16.8815 22.3661 16.7671 22.2007C16.6505 22.0321 16.5472 21.8546 16.4571 21.6684C16.3851 21.5195 16.2904 21.3863 16.172 21.268C16.0187 21.115 15.8874 20.946 15.7788 20.7615C15.6808 20.595 15.5836 20.428 15.4873 20.2604C15.3988 20.1065 15.2974 19.9613 15.1828 19.8249C15.0536 19.6711 14.9321 19.512 14.8185 19.3474C14.7008 19.1766 14.5988 18.9952 14.5128 18.8038C14.447 18.6573 14.3548 18.529 14.2348 18.4179C14.0633 18.259 13.9329 18.0705 13.845 17.8544C13.7787 17.6912 13.695 17.5405 13.5944 17.4019C13.4896 17.2577 13.3726 17.1212 13.2433 16.9927C13.0929 16.8434 12.9593 16.6819 12.843 16.5083C12.7275 16.3359 12.6276 16.1531 12.5439 15.9602C12.4747 15.8007 12.3875 15.6544 12.2821 15.5206C12.1596 15.3651 12.0425 15.2059 11.9307 15.0432C11.82 14.882 11.7128 14.7185 11.6089 14.5528C11.5073 14.3907 11.4048 14.2291 11.3019 14.0679C11.1978 13.9048 11.095 13.7407 10.9936 13.5759C10.9024 13.4278 10.7959 13.2898 10.6733 13.1621C10.5251 13.0076 10.3969 12.8389 10.2893 12.6561C10.1989 12.5025 10.0961 12.3571 9.98099 12.2201C9.84322 12.0561 9.72766 11.8771 9.63445 11.6834C9.55696 11.5223 9.46588 11.3707 9.36167 11.2282C9.24656 11.0709 9.13417 10.9115 9.02457 10.7504C8.89368 10.558 8.81999 10.3483 8.83513 10.1277C8.84996 9.91218 8.94342 9.71569 9.08974 9.54101C9.1935 9.41714 9.27623 9.28002 9.33838 9.12871C9.40006 8.97853 9.43691 8.82216 9.44868 8.6587C9.46012 8.49957 9.44286 8.34481 9.39656 8.19318C9.33461 7.99027 9.30326 7.79125 9.30713 7.59759C9.31239 7.33628 9.44992 7.13114 9.66475 6.98841C9.82566 6.88151 9.98744 6.77591 10.15 6.67143C10.3203 6.56195 10.4977 6.46296 10.6819 6.37449C10.8434 6.29692 10.9957 6.20623 11.139 6.10261C11.2876 5.99508 11.4312 5.87952 11.5696 5.75642C11.7223 5.62055 11.8827 5.49561 12.0505 5.3815C12.2157 5.26915 12.3861 5.16454 12.5617 5.06768C12.7266 4.97671 12.8888 4.88157 13.0482 4.78251C13.2101 4.68185 13.3714 4.5798 13.5316 4.47649C13.693 4.37234 13.8545 4.26822 14.0161 4.16438C14.1728 4.06376 14.3258 3.9578 14.4752 3.84657C14.6721 3.70006 14.9208 3.62229 15.1619 3.76127C15.2944 3.83769 15.4419 3.94021 15.603 4.06626C15.7248 4.16147 15.8594 4.21977 16.0107 4.24348C16.1858 4.27093 16.3565 4.2777 16.5232 4.26409C16.6963 4.24997 16.8665 4.2214 17.0337 4.178C17.2544 4.12074 17.472 4.12117 17.6729 4.20249C17.8681 4.28152 18.0287 4.42515 18.1597 4.61073C18.2711 4.76856 18.3814 4.92721 18.4906 5.08655C18.6056 5.25457 18.7089 5.43055 18.8005 5.61411C18.8777 5.76889 18.9726 5.91156 19.0847 6.04252C19.2178 6.19803 19.3392 6.36167 19.4491 6.53321C19.551 6.69246 19.6556 6.84994 19.763 7.00551C19.8733 7.16534 19.9816 7.32683 20.0876 7.48958C20.1956 7.65538 20.2979 7.82499 20.3942 7.99861C20.4749 8.14411 20.5769 8.27568 20.7012 8.39353C20.8718 8.55527 20.999 8.74802 21.0817 8.96862C21.1438 9.13447 21.2238 9.28697 21.3209 9.42705C21.4256 9.57812 21.5377 9.72446 21.6571 9.86574C21.7828 10.0144 21.9072 10.1643 22.0297 10.3151C22.1558 10.4704 22.2744 10.6307 22.386 10.7958C22.4927 10.9538 22.6009 11.1111 22.71 11.2674ZM21.9676 11.0786C21.8643 10.9257 21.7541 10.7775 21.6373 10.6337C21.5169 10.4854 21.3952 10.3381 21.2717 10.192C21.1419 10.0384 21.0197 9.87955 20.9057 9.71516C20.7841 9.53977 20.6853 9.34952 20.6089 9.14566C20.553 8.99656 20.4684 8.86892 20.3537 8.76021C20.1928 8.60759 20.0587 8.43526 19.9525 8.24374C19.8619 8.08042 19.7658 7.92091 19.6643 7.76508C19.5607 7.60615 19.4552 7.44859 19.3475 7.2925C19.2368 7.13215 19.1288 6.96983 19.0237 6.80569C18.9265 6.65387 18.8188 6.50878 18.7007 6.37085C18.5616 6.20839 18.444 6.03104 18.3484 5.83934C18.2671 5.67639 18.1756 5.52041 18.0738 5.37174C17.966 5.21438 17.857 5.05782 17.747 4.90197C17.6566 4.77391 17.5671 4.70428 17.4835 4.67042C17.4055 4.63886 17.3022 4.62999 17.1603 4.66682C16.9649 4.71751 16.7662 4.75102 16.5644 4.76749C16.3561 4.78449 16.1453 4.77592 15.9324 4.74255C15.6957 4.70544 15.4808 4.61207 15.2917 4.4641C15.1419 4.34698 15.0149 4.25962 14.9096 4.19893C14.9015 4.19426 14.8971 4.1931 14.8862 4.19494C14.8695 4.19778 14.8335 4.2096 14.7768 4.25176C14.6181 4.3699 14.4556 4.48245 14.2892 4.58933C14.1278 4.69302 13.9665 4.79704 13.8052 4.90103C13.6428 5.00584 13.4793 5.10913 13.315 5.21125C13.1481 5.31497 12.9785 5.41476 12.8059 5.50996C12.644 5.59929 12.4867 5.69556 12.3345 5.79907C12.1849 5.90079 12.042 6.01254 11.9055 6.134C11.7545 6.26831 11.5976 6.39442 11.4351 6.51199C11.2672 6.6334 11.0887 6.73928 10.9005 6.82972C10.7349 6.90927 10.5757 6.99828 10.4231 7.09638C10.2627 7.19947 10.103 7.30357 9.94418 7.40906C9.83927 7.47876 9.81351 7.54303 9.81221 7.60782C9.80957 7.74022 9.83078 7.88573 9.87965 8.04576C9.94418 8.25711 9.96832 8.47408 9.95242 8.69498C9.93683 8.91159 9.888 9.12051 9.80582 9.32061C9.72411 9.51955 9.61453 9.70162 9.47714 9.86563C9.38232 9.97883 9.34484 10.0769 9.33896 10.1621C9.33346 10.2421 9.3572 10.3416 9.44215 10.4665C9.54848 10.6227 9.65773 10.7771 9.76941 10.9297C9.89203 11.0973 9.99874 11.2759 10.0895 11.4645C10.1645 11.6204 10.2573 11.7637 10.3678 11.8952C10.5009 12.0537 10.6197 12.222 10.7244 12.3999C10.8119 12.5485 10.9163 12.6861 11.0377 12.8126C11.1848 12.9659 11.3135 13.1321 11.4237 13.3112C11.5237 13.4736 11.6251 13.6353 11.7276 13.796C11.8313 13.9584 11.9343 14.1212 12.0366 14.2845C12.1367 14.4441 12.2402 14.6018 12.3468 14.7571C12.4524 14.9107 12.5632 15.061 12.6789 15.2079C12.8117 15.3764 12.9213 15.5604 13.0076 15.7593C13.0793 15.9247 13.1642 16.0805 13.2624 16.227C13.3598 16.3723 13.4719 16.5082 13.5991 16.6345C13.7473 16.7817 13.8822 16.9384 14.0031 17.105C14.1282 17.2772 14.2313 17.4638 14.3127 17.664C14.3727 17.8114 14.4607 17.9384 14.5783 18.0473C14.7475 18.204 14.8798 18.3878 14.9737 18.5968C15.0474 18.7608 15.1344 18.9153 15.2346 19.0605C15.339 19.2118 15.4506 19.3583 15.5696 19.5C15.7033 19.6591 15.8219 19.8287 15.9252 20.0085C16.0207 20.1746 16.1171 20.3402 16.2142 20.5052C16.3007 20.6521 16.4053 20.7872 16.5287 20.9105C16.6869 21.0685 16.815 21.2481 16.9118 21.4485C16.9906 21.6114 17.0808 21.7664 17.1825 21.9134C17.2864 22.0638 17.3988 22.2088 17.5192 22.3483C17.6607 22.5123 17.7777 22.6932 17.8697 22.8902C17.9455 23.0528 18.0344 23.2062 18.1365 23.3503C18.2499 23.5103 18.3594 23.6731 18.4648 23.8385C18.5342 23.9475 18.6059 23.9856 18.6828 23.9945C18.7889 24.0066 18.9075 23.9856 19.0444 23.9139C19.2721 23.7945 19.5168 23.7642 19.7665 23.8249C19.9608 23.8722 20.1511 23.924 20.3369 23.9806C20.5584 24.0481 20.7516 24.1656 20.9133 24.3308C21.0076 24.4272 21.0752 24.4402 21.1245 24.435C21.2431 24.4224 21.3858 24.386 21.5548 24.3202C21.7149 24.2579 21.8597 24.1749 21.9896 24.0709C22.1424 23.9486 22.2974 23.8295 22.4545 23.7134C22.6089 23.5993 22.7632 23.4851 22.9176 23.3709C23.0855 23.2465 23.2652 23.1393 23.456 23.0497C23.6136 22.9756 23.7591 22.8844 23.8931 22.7763C24.0529 22.6473 24.2218 22.5313 24.3991 22.4281C24.5448 22.3433 24.6777 22.2387 24.798 22.1139C24.955 21.9511 25.1358 21.8211 25.3388 21.7245C25.5055 21.6452 25.6661 21.5572 25.8207 21.4605C25.9743 21.3645 26.1216 21.2585 26.2623 21.1431C26.3152 21.0997 26.33 21.0709 26.3336 21.0613C26.3351 21.0573 26.3351 21.0557 26.3351 21.055C26.3351 21.0541 26.3349 21.0496 26.3313 21.0403C26.2767 20.8979 26.2201 20.7342 26.1613 20.5505C26.0995 20.3576 26.0532 20.1619 26.0225 19.9636C25.9908 19.758 25.984 19.5488 26.0018 19.3365C26.022 19.0958 26.1061 18.8766 26.2515 18.6839C26.3743 18.5211 26.5052 18.3676 26.6446 18.2236C26.6532 18.2148 26.6612 18.2059 26.6691 18.1978C26.6643 18.188 26.6587 18.1785 26.6542 18.1686C26.6073 18.0679 26.5352 17.9407 26.4341 17.7855C26.3249 17.6179 26.2235 17.4452 26.13 17.2672C26.0501 17.1148 25.9523 16.9744 25.8368 16.8457C25.6986 16.6918 25.5738 16.5285 25.4622 16.3562C25.3561 16.1923 25.2528 16.0264 25.153 15.8583C25.0645 15.7094 24.9601 15.5709 24.839 15.4433C24.6825 15.2784 24.5619 15.0886 24.4782 14.8757C24.4172 14.7206 24.3321 14.5834 24.2228 14.4626C24.0832 14.3082 23.9582 14.1436 23.8477 13.969C23.7496 13.8139 23.6437 13.6638 23.5303 13.519C23.4056 13.3597 23.291 13.1935 23.186 13.0208C23.0919 12.8658 22.9879 12.7172 22.8746 12.5751C22.7395 12.4056 22.6299 12.219 22.5463 12.0163C22.4784 11.8518 22.3951 11.6986 22.296 11.5566C22.1853 11.3981 22.0758 11.2387 21.9676 11.0786Z" fill="#F3F4F5"/>
<path fill-rule="evenodd" clip-rule="evenodd" d="M15.1503 9.13747C15.2181 9.24763 15.2197 9.37383 15.1931 9.4882C15.1729 9.57514 15.155 9.64345 15.1409 9.68981C15.1346 9.71064 15.1265 9.73736 15.1154 9.76014C15.113 9.76511 15.0963 9.8003 15.062 9.82931C15.0432 9.84514 14.9931 9.88023 14.9206 9.8731C14.8921 9.87024 14.869 9.86044 14.8492 9.8495C14.8428 9.84755 14.8317 9.84483 14.8151 9.8408C14.772 9.83037 14.7057 9.81624 14.6149 9.79942C14.5008 9.77828 14.3767 9.72874 14.3056 9.61254C14.2326 9.49302 14.2492 9.35926 14.289 9.24998C14.3295 9.13848 14.398 9.03637 14.5083 8.97649C14.6188 8.9167 14.7414 8.91481 14.8567 8.94235C14.9708 8.96962 15.0824 9.0273 15.1503 9.13747Z" fill="#F3F4F5"/>
<path fill-rule="evenodd" clip-rule="evenodd" d="M21.7286 18.8945C21.8373 18.9828 21.8666 19.1148 21.8656 19.231C21.8646 19.3496 21.8337 19.4685 21.7498 19.5618C21.6656 19.6552 21.5501 19.6983 21.4321 19.7108C21.3154 19.7231 21.1907 19.7064 21.0899 19.6252C20.9894 19.544 20.9468 19.4254 20.9336 19.3088C20.9236 19.2202 20.9167 19.1496 20.9145 19.1012C20.9135 19.0794 20.9128 19.0514 20.9156 19.0262C20.9162 19.0207 20.9196 18.9821 20.9421 18.9434C20.9545 18.9223 20.9903 18.872 21.0612 18.8545C21.0891 18.8476 21.1144 18.8492 21.1368 18.8529C21.1435 18.8526 21.1553 18.8517 21.1725 18.8499C21.2165 18.8454 21.2831 18.8364 21.3741 18.822C21.4886 18.8038 21.6228 18.8087 21.7286 18.8945Z" fill="#F3F4F5"/>
<path d="M18.067 12.3764C18.1705 12.4697 18.1789 12.6295 18.0856 12.7331L18.0606 12.7606L18.0544 12.7679L18.0474 12.7744C17.8702 12.9436 17.7146 13.0852 17.5822 13.1987C17.6566 13.3428 17.7463 13.4761 17.8534 13.598C17.8877 13.6369 17.9208 13.6768 17.9543 13.7163C18.1184 13.6528 18.2873 13.6024 18.461 13.5666C18.5176 13.555 18.5796 13.5462 18.6393 13.5492C18.6896 13.5517 18.7985 13.565 18.8784 13.6573C18.9708 13.7641 18.954 13.8883 18.9346 13.9516C18.9152 14.0151 18.8794 14.0713 18.8476 14.115C18.7519 14.2464 18.6589 14.393 18.5692 14.555C18.5664 14.56 18.5631 14.5649 18.5603 14.5699C18.5615 14.5721 18.5627 14.5744 18.5639 14.5766C18.6522 14.7393 18.7477 14.8969 18.8501 15.0496C18.8992 15.1227 18.9498 15.1949 19.0011 15.2669C19.0753 15.2311 19.1485 15.1933 19.2201 15.1522C19.306 15.1029 19.3824 15.0626 19.4463 15.0353C19.4779 15.0218 19.513 15.0087 19.5481 14.9999C19.5757 14.993 19.6374 14.9797 19.7069 14.9961L19.7903 15.0156L19.7933 15.0193C19.8652 15.0467 19.9242 15.106 19.947 15.1857C19.985 15.3198 19.907 15.4595 19.7729 15.4977L19.737 15.5079L19.5775 15.5532L19.5656 15.5383C19.5387 15.5524 19.5071 15.5697 19.4711 15.5903C19.4157 15.6221 19.359 15.6518 19.3021 15.6809C19.3117 15.6955 19.3213 15.7093 19.3298 15.723C19.3568 15.7668 19.3848 15.8169 19.4046 15.8688L19.4211 15.9211L19.4273 15.946L19.4283 15.971C19.4788 16.0826 19.4429 16.217 19.3371 16.286C19.2202 16.362 19.0635 16.3289 18.9874 16.212L18.9671 16.1807L18.9293 16.1229L18.9266 16.0537L18.9257 16.0341C18.921 16.0248 18.913 16.01 18.8999 15.9889C18.8822 15.9603 18.8587 15.9259 18.8292 15.885C18.6659 15.9427 18.4992 15.9892 18.3285 16.0227C18.0995 16.0676 17.8767 16.0522 17.6804 15.9473C17.5647 15.8855 17.4684 15.785 17.4325 15.6416C17.3992 15.5084 17.4281 15.3763 17.4746 15.2632C17.5578 15.0612 17.6761 14.8798 17.828 14.7201C17.8765 14.669 17.9216 14.6146 17.9647 14.5583C17.9215 14.4925 17.8763 14.428 17.8287 14.3652C17.8168 14.3495 17.8043 14.3341 17.7922 14.3185C17.687 14.354 17.5807 14.3856 17.4727 14.4116C17.2695 14.4607 17.067 14.4879 16.8656 14.4925C16.7568 14.495 16.6017 14.4797 16.4901 14.3668C16.3619 14.2369 16.3731 14.0688 16.4044 13.9571C16.4541 13.7794 16.5404 13.6013 16.6566 13.4237C16.7359 13.3024 16.827 13.1915 16.9296 13.0911C16.8622 12.9918 16.7808 12.8794 16.6841 12.7538L16.6792 12.7478L16.6542 12.7109C16.5758 12.5957 16.6056 12.4386 16.7208 12.3601C16.8361 12.2816 16.9931 12.3114 17.0716 12.4266L17.093 12.4576L17.0927 12.4578C17.1752 12.5653 17.2492 12.6669 17.3152 12.7617C17.4222 12.6677 17.5477 12.5531 17.6909 12.4165L17.7103 12.395C17.8036 12.2914 17.9634 12.283 18.067 12.3764ZM18.194 15.0679C18.0845 15.1831 18.0006 15.312 17.9415 15.4555C17.9326 15.4772 17.9285 15.4938 17.9261 15.5052C17.9935 15.5388 18.0891 15.5551 18.2313 15.5272C18.3283 15.5082 18.4236 15.4841 18.5176 15.456C18.4886 15.4143 18.4587 15.3732 18.4304 15.3311C18.3624 15.2298 18.298 15.126 18.2358 15.0207C18.2217 15.0363 18.2085 15.0527 18.194 15.0679ZM17.4455 13.8962C17.3524 13.7864 17.2688 13.6701 17.1963 13.5464C17.1545 13.5951 17.1149 13.6458 17.0793 13.7001C17.0132 13.8012 16.964 13.8958 16.929 13.9832C17.0684 13.9753 17.2102 13.9552 17.3542 13.9204C17.3848 13.913 17.4151 13.9044 17.4455 13.8962Z" fill="#F3F4F5"/>
<path fill-rule="evenodd" clip-rule="evenodd" d="M23.1226 15.8435C23.6498 15.9587 24.1516 16.1464 24.626 16.4065C25.1429 16.69 25.528 17.0936 25.7574 17.6143C25.9838 18.1283 26.0335 18.6786 25.9177 19.2492C25.8187 19.7372 25.7151 20.2245 25.6077 20.7108C25.4928 21.2314 25.315 21.7341 25.0755 22.217C24.8767 22.6178 24.7546 23.0395 24.7087 23.4843C24.6529 24.0253 24.5259 24.548 24.3272 25.0493C24.1522 25.4907 24.0096 25.9422 23.8988 26.4035C23.7665 26.9541 23.5198 27.4422 23.1586 27.8588C22.7805 28.2948 22.2989 28.5737 21.7294 28.6905C21.1749 28.804 20.6204 28.767 20.0749 28.584C19.6064 28.4268 19.1375 28.2749 18.6685 28.1283C18.2022 27.9825 17.7329 27.8455 17.2613 27.7181C16.7626 27.5834 16.2742 27.4133 15.7967 27.207C15.37 27.0227 14.9293 26.8873 14.4746 26.8011C13.9741 26.7061 13.4791 26.5899 12.9905 26.453C12.4964 26.3146 12.011 26.1459 11.5348 25.9465C11.1138 25.7702 10.6755 25.6521 10.2198 25.5934C9.69326 25.5257 9.18042 25.4064 8.6827 25.2352C8.21362 25.0739 7.74506 24.9105 7.27712 24.7452C6.83054 24.5875 6.37418 24.4621 5.90894 24.3686C5.41124 24.2687 4.91813 24.1502 4.43098 24.0133C3.9332 23.8733 3.44717 23.6954 2.9724 23.4815C2.53759 23.2856 2.08794 23.1201 1.62466 22.9848C1.31526 22.8945 1.04078 22.7361 0.844613 22.4863C0.647612 22.2352 0.561717 21.9324 0.555185 21.612C0.544503 21.0861 0.599694 20.565 0.721391 20.05C0.83057 19.5881 0.915401 19.1161 0.97614 18.6354C1.04188 18.1152 1.14827 17.606 1.29397 17.108C1.43909 16.612 1.61979 16.1262 1.83723 15.6517C2.03249 15.2257 2.18163 14.7872 2.28421 14.3354C2.39641 13.8412 2.52703 13.3517 2.67619 12.868C2.84213 12.33 3.11472 11.8611 3.49537 11.47C3.92689 11.0266 4.47574 10.844 5.09297 10.9248C5.58515 10.9893 5.99679 11.0738 6.31418 11.1837C6.40275 11.2144 6.4692 11.2341 6.51549 11.2469C6.574 11.2346 6.62519 11.2341 6.65221 11.2345C6.71873 11.2356 6.79257 11.2448 6.85954 11.2558C7.00007 11.2788 7.19544 11.3221 7.4383 11.3811C7.94154 11.5035 8.43473 11.6634 8.91606 11.8604C9.34675 12.0367 9.7905 12.1668 10.2477 12.2509C10.7451 12.3422 11.2394 12.4479 11.7287 12.5675C12.2272 12.6893 12.7172 12.8407 13.1984 13.0221C13.6515 13.193 14.1098 13.3464 14.5731 13.4819C15.0362 13.6173 15.505 13.735 15.9786 13.8346C16.4789 13.9399 16.9724 14.0705 17.4583 14.2261C17.9428 14.3813 18.4211 14.5587 18.8922 14.7589C19.3097 14.9362 19.7452 15.0506 20.1997 15.1027C20.7308 15.1635 21.2468 15.2815 21.7465 15.4556C22.1967 15.6124 22.6559 15.7416 23.1226 15.8435Z" fill="#1A1C20"/>
<path d="M14.1845 16.3017C14.3969 16.3585 14.5953 16.4478 14.7782 16.5693C14.9264 16.6678 15.0828 16.7541 15.2477 16.828C15.4578 16.9222 15.6397 17.056 15.7917 17.228C15.9298 17.3843 16.0523 17.5509 16.159 17.728C16.2573 17.8914 16.3566 18.055 16.4566 18.2186C16.5687 18.4018 16.6549 18.5972 16.7152 18.804C16.7775 19.018 16.801 19.2371 16.7853 19.4597C16.7731 19.6329 16.781 19.8068 16.8092 19.9819C16.8464 20.2131 16.8275 20.4357 16.7232 20.6291C16.7053 20.6622 16.692 20.6882 16.6825 20.7079C16.6835 20.7194 16.6845 20.7288 16.6845 20.7354C16.6844 20.7745 16.6773 20.8132 16.6715 20.8412C16.6587 20.9021 16.6355 20.9822 16.6053 21.0758C16.5366 21.2881 16.4322 21.4823 16.2934 21.657C16.1779 21.8023 16.0692 21.9523 15.967 22.1067C15.8493 22.2846 15.7108 22.4464 15.5525 22.5914C15.3895 22.7407 15.2066 22.8608 15.0048 22.9513C14.822 23.0333 14.6374 23.1082 14.4511 23.1752C14.265 23.2423 14.0756 23.3024 13.8829 23.3558C13.672 23.4143 13.4564 23.4405 13.2374 23.4342C13.0193 23.4279 12.8065 23.3908 12.6 23.3233C12.4321 23.2684 12.2588 23.2294 12.0799 23.2067C11.8484 23.1773 11.6333 23.0996 11.4379 22.9738C11.2727 22.8675 11.1087 22.7591 10.9456 22.6488C10.7554 22.5203 10.5978 22.3585 10.4741 22.1648C10.3701 22.0019 10.2651 21.8419 10.1592 21.6852C10.0439 21.5145 9.94349 21.3347 9.85847 21.1458C9.77469 20.9597 9.70361 20.7677 9.64474 20.57C9.5775 20.3442 9.56553 20.113 9.60873 19.8803C9.64051 19.7092 9.64879 19.5371 9.63345 19.3638C9.61233 19.125 9.65075 18.8946 9.74846 18.6767C9.82776 18.4998 9.90508 18.3231 9.98055 18.1466C10.0707 17.9356 10.2012 17.7511 10.3705 17.5954C10.4981 17.4781 10.6109 17.3457 10.7085 17.1978C10.8388 17.0003 11.0072 16.842 11.2118 16.7255C11.3909 16.6234 11.5753 16.5338 11.7647 16.4568C11.9533 16.3801 12.1459 16.315 12.3424 16.2618C12.5576 16.2036 12.777 16.1843 12.9992 16.2038C13.1831 16.22 13.3665 16.2264 13.5492 16.2233C13.7642 16.2198 13.9761 16.246 14.1845 16.3017ZM14.0543 16.7897C13.8909 16.7461 13.7254 16.7257 13.5574 16.7285C13.357 16.7318 13.156 16.7247 12.9547 16.7071C12.7918 16.6928 12.6321 16.7068 12.4743 16.7494C12.2977 16.7972 12.1244 16.8557 11.9548 16.9247C11.7862 16.9933 11.6217 17.073 11.4617 17.1642C11.3269 17.2409 11.2168 17.3441 11.1298 17.4761C11.0099 17.6578 10.8706 17.8218 10.7122 17.9675C10.5955 18.0749 10.507 18.2001 10.4451 18.3449C10.3684 18.5242 10.2896 18.7038 10.2091 18.8834C10.147 19.0218 10.123 19.1657 10.1365 19.3192C10.1559 19.5382 10.1455 19.7565 10.1054 19.9727C10.0767 20.1274 10.0846 20.2772 10.1287 20.4256C10.1813 20.602 10.2447 20.773 10.3192 20.9384C10.3924 21.1012 10.4787 21.2559 10.5777 21.4025C10.6861 21.5629 10.7935 21.7263 10.8998 21.8929C10.9864 22.0286 11.0955 22.1405 11.2284 22.2303C11.3884 22.3385 11.5495 22.4446 11.7115 22.5489C11.843 22.6335 11.986 22.6859 12.1435 22.7059C12.3536 22.7325 12.5583 22.7784 12.7571 22.8434C12.9173 22.8958 13.0821 22.9243 13.2519 22.9292C13.4206 22.934 13.5858 22.9139 13.7481 22.8689C13.9286 22.8189 14.1059 22.7625 14.2799 22.6999C14.454 22.6372 14.6268 22.5673 14.7982 22.4904C14.9507 22.4221 15.088 22.3316 15.2113 22.2187C15.3395 22.1013 15.451 21.9713 15.5458 21.828C15.6561 21.6614 15.7735 21.4996 15.898 21.3429C15.9992 21.2155 16.0745 21.075 16.1246 20.9203C16.1484 20.8465 16.1628 20.7931 16.1715 20.7578C16.1642 20.7229 16.165 20.694 16.1663 20.6783C16.1698 20.6327 16.1839 20.5923 16.1921 20.5702C16.2112 20.519 16.2422 20.4567 16.2786 20.3893C16.3154 20.3211 16.3357 20.219 16.3105 20.0624C16.2763 19.8496 16.2664 19.6366 16.2814 19.4242C16.2928 19.2611 16.2759 19.1018 16.2303 18.9451C16.1825 18.7811 16.1143 18.627 16.0257 18.4821C15.9251 18.3176 15.8252 18.1531 15.7262 17.9888C15.6355 17.8381 15.5315 17.6959 15.4135 17.5623C15.3094 17.4445 15.1857 17.3539 15.0409 17.289C14.851 17.2038 14.6701 17.1042 14.4985 16.9902C14.3614 16.8991 14.2137 16.8324 14.0543 16.7897ZM16.3099 20.9384C16.3135 20.9403 16.317 20.9422 16.3208 20.9439C16.3171 20.9422 16.3135 20.9403 16.3099 20.9384ZM16.5486 20.4947C16.5477 20.4942 16.5469 20.4936 16.546 20.4932C16.5469 20.4936 16.5477 20.4942 16.5486 20.4947ZM16.5278 20.4837C16.5257 20.4827 16.5236 20.4816 16.5214 20.4807L16.4945 20.4714C16.5063 20.4749 16.5174 20.4791 16.5278 20.4837Z" fill="#F3F4F5"/>
<path d="M14.8307 14.4789C15.034 14.5344 15.2305 14.6124 15.4198 14.7121C15.5726 14.7925 15.7311 14.8494 15.896 14.8833C16.095 14.9243 16.2907 14.9778 16.4826 15.0435C16.6549 15.1025 16.8303 15.1513 17.0086 15.1896C17.2049 15.2318 17.3986 15.2835 17.5894 15.3451C17.7583 15.3995 17.9316 15.4395 18.1093 15.4647C18.3319 15.4962 18.5433 15.5669 18.7421 15.6758C18.8863 15.7549 19.0379 15.8035 19.1984 15.8224C19.4101 15.8472 19.6159 15.8948 19.8151 15.9653C19.9933 16.0284 20.1725 16.0877 20.3527 16.1437C20.5233 16.1967 20.698 16.2363 20.8768 16.2622C21.0892 16.2931 21.2945 16.3496 21.4923 16.4315C21.6635 16.5024 21.837 16.5649 22.0129 16.619C22.2026 16.6774 22.3643 16.737 22.4944 16.7983C22.5129 16.807 22.5289 16.8141 22.5422 16.8197C22.5498 16.8188 22.5576 16.8172 22.5658 16.817C22.6339 16.8154 22.6896 16.8411 22.7272 16.8704C22.7877 16.9177 22.8076 16.9777 22.8106 16.9861C22.8174 17.0054 22.8202 17.0215 22.8214 17.0288C22.8241 17.0444 22.8246 17.0575 22.8249 17.0629C22.826 17.0842 22.8253 17.1099 22.8244 17.1293C22.8223 17.1749 22.8175 17.2465 22.8104 17.3413C22.797 17.5201 22.795 17.7011 22.8039 17.8844C22.8109 18.0303 22.8553 18.1605 22.9391 18.2802C23.0392 18.423 23.1519 18.5492 23.2769 18.6595C23.4074 18.7746 23.5471 18.8797 23.696 18.9744C23.853 19.0742 23.9929 19.158 24.1157 19.2267C24.2299 19.2905 24.3164 19.3881 24.3611 19.5151C24.4035 19.6357 24.4017 19.7639 24.3784 19.8859C24.3402 20.0858 24.2892 20.2823 24.2259 20.4751C24.1629 20.6669 24.0887 20.8553 24.0034 21.0403C23.935 21.1888 23.8949 21.3453 23.8828 21.511C23.8669 21.7294 23.822 21.9406 23.7481 22.1437C23.6867 22.3124 23.6385 22.485 23.6033 22.6614C23.5616 22.8702 23.4954 23.072 23.4048 23.2662C23.3296 23.4273 23.2713 23.5928 23.2298 23.763C23.1844 23.9497 23.1388 24.1366 23.0932 24.3233C23.0484 24.5067 23.0071 24.6912 22.9693 24.8766C22.9256 25.091 22.8494 25.2957 22.7421 25.4899C22.6394 25.6757 22.5279 25.8346 22.4053 25.9609C22.2343 26.1372 22.0041 26.1914 21.7629 26.1669C21.6174 26.1521 21.4787 26.1726 21.3431 26.2298C21.1733 26.3014 21.0027 26.3792 20.8315 26.4632C20.7115 26.5222 20.6294 26.6095 20.5778 26.7338C20.4869 26.9529 20.3505 27.133 20.1622 27.2566C19.9494 27.3961 19.7071 27.4125 19.4645 27.3351C19.2855 27.2781 19.1052 27.2253 18.9236 27.1771C18.7232 27.1239 18.5282 27.0525 18.3387 26.9635C18.1838 26.8906 18.0227 26.8406 17.8551 26.8129C17.6556 26.7799 17.4589 26.7364 17.2652 26.6825C17.0676 26.6276 16.8746 26.5575 16.6862 26.4721C16.5356 26.4038 16.3775 26.3621 16.2108 26.3471C15.9951 26.3276 15.7861 26.2819 15.5845 26.2097C15.4027 26.1445 15.221 26.0784 15.0397 26.0114C14.8732 25.9498 14.7024 25.9032 14.527 25.8718C14.3293 25.8363 14.1341 25.7919 13.9415 25.7382C13.7417 25.6824 13.5473 25.6083 13.3586 25.5163C13.2143 25.446 13.0614 25.4064 12.898 25.3978C12.6646 25.3856 12.4437 25.3242 12.2378 25.2145C12.0823 25.1316 11.9216 25.0695 11.7556 25.0274C11.5828 24.9837 11.4055 24.9538 11.2239 24.9379C11.0127 24.9194 10.8067 24.8809 10.6062 24.822C10.4072 24.7636 10.2134 24.6871 10.0256 24.5924C9.87035 24.5142 9.70964 24.4576 9.543 24.4224C9.34936 24.3814 9.15752 24.334 8.96743 24.2806C8.77924 24.2277 8.5922 24.1707 8.40629 24.1099C8.22442 24.0504 8.04226 23.992 7.85997 23.934C7.67566 23.8754 7.49156 23.8151 7.30814 23.7534C7.14334 23.698 6.97312 23.6602 6.79724 23.6406C6.58446 23.6168 6.378 23.5692 6.17825 23.4977C6.01046 23.4376 5.83848 23.3918 5.6623 23.3602C5.45149 23.3224 5.24809 23.2589 5.05247 23.1698C4.88982 23.0956 4.72277 23.0375 4.55153 22.9948C4.36236 22.9476 4.17399 22.8971 3.98667 22.8435C3.76291 22.7795 3.57207 22.6656 3.44244 22.4864C3.31587 22.3114 3.26186 22.1006 3.26243 21.8728C3.26283 21.7112 3.23859 21.5529 3.18947 21.3968C3.1407 21.242 3.0689 21.0983 2.97329 20.9652C2.8802 20.8356 2.76785 20.7278 2.63521 20.6409C2.45771 20.5247 2.30621 20.3919 2.1852 20.2407C2.02194 20.0366 1.99626 19.7909 2.06991 19.5437C2.12507 19.3586 2.18175 19.1739 2.23973 18.9896C2.30049 18.7964 2.37339 18.6068 2.45822 18.4209C2.53261 18.258 2.59156 18.0908 2.63528 17.9194C2.68064 17.7417 2.71695 17.561 2.74444 17.3778C2.77477 17.1757 2.81797 16.977 2.87381 16.7819C2.92879 16.5899 2.99274 16.4004 3.0656 16.2136C3.13404 16.0381 3.19774 15.8612 3.25674 15.683C3.3167 15.502 3.37528 15.3204 3.43216 15.1385C3.4895 14.9551 3.54688 14.7718 3.60458 14.5885C3.66048 14.4109 3.71018 14.2316 3.75377 14.0504C3.81119 13.8119 3.95248 13.5929 4.22662 13.5453C4.37737 13.5192 4.55631 13.5035 4.76079 13.4971C4.91528 13.4923 5.05604 13.4509 5.1874 13.3723C5.33951 13.2813 5.47495 13.1772 5.59433 13.06C5.71825 12.9383 5.8307 12.8074 5.93136 12.667C6.06424 12.4817 6.23165 12.3428 6.43803 12.2766C6.6386 12.2124 6.85393 12.2199 7.07336 12.2786C7.25996 12.3285 7.44633 12.3797 7.63218 12.4322C7.82814 12.4876 8.02013 12.5567 8.20798 12.6391C8.36639 12.7086 8.53063 12.7574 8.70062 12.7862C8.90245 12.8205 9.10048 12.8684 9.29466 12.9299C9.47492 12.987 9.65613 13.041 9.83821 13.0917C10.0253 13.1439 10.2118 13.1986 10.3975 13.2558C10.5866 13.314 10.7738 13.3788 10.9589 13.4505C11.114 13.5106 11.2767 13.5464 11.4476 13.5573C11.6822 13.5724 11.9033 13.639 12.108 13.7555C12.2619 13.8431 12.421 13.9091 12.5853 13.9545C12.7625 14.0035 12.9422 14.0442 13.1244 14.0763C13.3162 14.11 13.5076 14.1455 13.6984 14.1829C13.8946 14.2215 14.0884 14.2687 14.2798 14.3241C14.4629 14.3771 14.6467 14.4287 14.8307 14.4789ZM14.1394 14.8092C13.9622 14.7579 13.7827 14.7146 13.6009 14.6789C13.4135 14.6421 13.2256 14.6068 13.0372 14.5736C12.8392 14.5388 12.6436 14.495 12.4508 14.4417C12.2451 14.3848 12.0474 14.3019 11.8582 14.1942C11.7198 14.1155 11.5731 14.0716 11.4154 14.0615C11.194 14.0473 10.9807 14.0007 10.7765 13.9216C10.6024 13.8541 10.4264 13.7932 10.2487 13.7384C10.0674 13.6826 9.88543 13.6292 9.70275 13.5782C9.51506 13.5259 9.32816 13.4704 9.14235 13.4115C8.97049 13.3571 8.79485 13.3147 8.61583 13.2843C8.40498 13.2486 8.20111 13.1876 8.00493 13.1015C7.83816 13.0284 7.66802 12.9672 7.49462 12.9181C7.31109 12.8663 7.12708 12.8158 6.94281 12.7665C6.79139 12.726 6.67806 12.7298 6.59215 12.7573C6.51205 12.783 6.42698 12.8423 6.34155 12.9615C6.22392 13.1255 6.09274 13.2785 5.94823 13.4204C5.79912 13.5667 5.63167 13.6951 5.44679 13.8058C5.24118 13.9288 5.01636 13.9947 4.77631 14.0021C4.5863 14.008 4.43276 14.0222 4.31308 14.043C4.30387 14.0446 4.29973 14.0465 4.29252 14.0549C4.28154 14.0678 4.2614 14.0999 4.24489 14.1686C4.19858 14.361 4.14579 14.5515 4.08641 14.7401C4.02881 14.9231 3.97145 15.1063 3.9142 15.2894C3.85649 15.4739 3.79702 15.6579 3.7362 15.8416C3.67443 16.0281 3.60798 16.2134 3.53636 16.397C3.46916 16.5693 3.40995 16.7439 3.3593 16.9209C3.30953 17.0948 3.27132 17.2721 3.24419 17.4528C3.21421 17.6526 3.17442 17.85 3.12482 18.0444C3.07359 18.2451 3.0043 18.4407 2.91757 18.6307C2.8413 18.7978 2.77601 18.9681 2.72157 19.1412C2.66435 19.3231 2.60831 19.5053 2.55387 19.688C2.51791 19.8087 2.53926 19.8746 2.57974 19.9252C2.66248 20.0286 2.77194 20.1267 2.91193 20.2184C3.09682 20.3394 3.25427 20.4907 3.38348 20.6705C3.51018 20.8469 3.60643 21.0387 3.67141 21.245C3.73601 21.4501 3.76839 21.6601 3.76786 21.8741C3.76749 22.0218 3.80147 22.1211 3.85154 22.1903C3.89854 22.2553 3.98044 22.3165 4.12564 22.358C4.30737 22.41 4.49011 22.4586 4.67364 22.5044C4.87514 22.5547 5.07143 22.6235 5.26189 22.7103C5.41931 22.782 5.58238 22.8327 5.75141 22.863C5.95514 22.8995 6.15419 22.9528 6.34851 23.0224C6.51087 23.0805 6.67914 23.1194 6.85343 23.1388C7.06451 23.1624 7.26983 23.2077 7.46913 23.2747C7.64992 23.3355 7.83132 23.3948 8.01298 23.4525C8.19656 23.5109 8.37992 23.5701 8.56306 23.6299C8.74221 23.6885 8.9226 23.7434 9.10394 23.7944C9.28338 23.8449 9.46473 23.8894 9.64761 23.9281C9.8575 23.9725 10.0596 24.0437 10.2532 24.1413C10.4141 24.2224 10.5792 24.2878 10.7484 24.3374C10.9162 24.3867 11.0894 24.4193 11.2679 24.4349C11.476 24.4531 11.6799 24.4871 11.8795 24.5376C12.0858 24.5898 12.2845 24.6672 12.4752 24.7689C12.6156 24.8437 12.7646 24.8849 12.9246 24.8932C13.1549 24.9053 13.3742 24.9618 13.5802 25.0623C13.7417 25.141 13.9075 25.204 14.0774 25.2514C14.2545 25.3009 14.4341 25.3419 14.6161 25.3746C14.8207 25.4112 15.0204 25.4655 15.2149 25.5375C15.3946 25.6039 15.5746 25.6695 15.7549 25.734C15.9154 25.7915 16.0822 25.8283 16.256 25.844C16.4787 25.8641 16.692 25.9201 16.8947 26.012C17.0596 26.0867 17.2281 26.1481 17.4003 26.1959C17.5764 26.2449 17.7556 26.2844 17.9373 26.3144C18.151 26.3498 18.3568 26.4138 18.5536 26.5063C18.7159 26.5827 18.8824 26.6436 19.0531 26.6889C19.2426 26.7392 19.4309 26.7942 19.6178 26.8538C19.741 26.8931 19.8204 26.8765 19.8852 26.834C19.9745 26.7754 20.0521 26.6833 20.1113 26.5406C20.2099 26.3031 20.3784 26.1232 20.609 26.01C20.7886 25.9218 20.9679 25.8399 21.147 25.7643C21.3603 25.6744 21.5839 25.641 21.814 25.6644C21.9481 25.678 22.0083 25.6448 22.0429 25.6091C22.1259 25.5235 22.2123 25.4043 22.2999 25.2456C22.383 25.0952 22.4411 24.9387 22.4743 24.7756C22.5135 24.5839 22.5563 24.3931 22.6026 24.2034C22.6482 24.0169 22.6936 23.8303 22.739 23.6438C22.7884 23.4407 22.8578 23.2433 22.947 23.0523C23.0206 22.8945 23.074 22.7313 23.1077 22.5625C23.1479 22.3611 23.2033 22.1638 23.2735 21.971C23.3311 21.8126 23.3662 21.6471 23.3788 21.4743C23.3952 21.2487 23.4508 21.0331 23.5449 20.8289C23.6222 20.6613 23.6892 20.4908 23.7461 20.3176C23.8026 20.1455 23.8479 19.9698 23.8821 19.791C23.8949 19.7238 23.8879 19.6922 23.8845 19.6825C23.8831 19.6785 23.8821 19.6773 23.8816 19.6768C23.881 19.6761 23.878 19.6727 23.8693 19.6679C23.7362 19.5935 23.5879 19.504 23.4251 19.4005C23.2542 19.2919 23.0933 19.1712 22.9428 19.0384C22.7868 18.9009 22.6476 18.7445 22.5254 18.57C22.3868 18.3722 22.311 18.15 22.2994 17.9088C22.2895 17.7052 22.2917 17.5034 22.3067 17.3036C22.3076 17.2913 22.3081 17.2794 22.3089 17.2681C22.2991 17.2636 22.2886 17.2598 22.2788 17.2552C22.1783 17.2078 22.0415 17.1563 21.8644 17.1018C21.6733 17.0429 21.4848 16.9752 21.2991 16.8983C21.14 16.8324 20.9751 16.7871 20.804 16.7623C20.5993 16.7325 20.3989 16.687 20.2029 16.626C20.0164 16.5681 19.8308 16.5067 19.6465 16.4415C19.4832 16.3837 19.3144 16.3442 19.1396 16.3238C18.9138 16.2973 18.6997 16.2287 18.499 16.1187C18.3529 16.0386 18.1997 15.9877 18.0384 15.9649C17.8323 15.9357 17.6309 15.8893 17.4343 15.8259C17.2596 15.7695 17.0821 15.722 16.9023 15.6834C16.7045 15.6409 16.5101 15.5866 16.3189 15.5211C16.1473 15.4623 15.9723 15.4147 15.7943 15.3781C15.582 15.3344 15.3784 15.2612 15.1843 15.1591C15.0269 15.0761 14.8647 15.0118 14.6977 14.9661C14.5113 14.9152 14.325 14.8629 14.1394 14.8092Z" fill="#F3F4F5"/>
<path fill-rule="evenodd" clip-rule="evenodd" d="M7.65923 17.68C7.78184 17.7212 7.86359 17.818 7.9164 17.9229C7.95637 18.0024 7.98678 18.0657 8.00564 18.1103C8.01412 18.1304 8.02474 18.1569 8.0308 18.1816C8.03223 18.1873 8.04179 18.225 8.03406 18.2689C8.0297 18.2932 8.01357 18.3522 7.95351 18.3931C7.92981 18.409 7.90568 18.4164 7.88355 18.4206C7.87734 18.4233 7.86703 18.4283 7.85172 18.4358C7.81198 18.4554 7.75195 18.487 7.67144 18.5322C7.57033 18.5889 7.4432 18.6304 7.31421 18.5867C7.18159 18.5416 7.10875 18.4282 7.06931 18.3188C7.02906 18.2071 7.01627 18.085 7.06273 17.9683C7.1093 17.8515 7.20226 17.7717 7.30848 17.719C7.4136 17.6669 7.53654 17.6389 7.65923 17.68Z" fill="#F3F4F5"/>
<path fill-rule="evenodd" clip-rule="evenodd" d="M18.96 20.9674C19.0998 20.9656 19.2063 21.0472 19.28 21.137C19.3552 21.2289 19.4083 21.3409 19.4035 21.4664C19.3984 21.5919 19.3366 21.698 19.2541 21.7831C19.1724 21.8673 19.0659 21.9343 18.9365 21.9364C18.8072 21.9384 18.6986 21.8747 18.6138 21.7935C18.5494 21.7317 18.4989 21.682 18.4663 21.6462C18.4517 21.6302 18.4339 21.6091 18.42 21.5881C18.417 21.5835 18.3939 21.5516 18.3864 21.5073C18.3824 21.4832 18.3778 21.4216 18.421 21.3628C18.4381 21.3396 18.4585 21.3246 18.478 21.3132C18.483 21.3086 18.4915 21.3003 18.5036 21.288C18.5345 21.2563 18.5799 21.2068 18.6405 21.1375C18.717 21.0501 18.8236 20.9692 18.96 20.9674Z" fill="#F3F4F5"/>
<path d="M11.9742 18.303C12.1135 18.3085 12.2222 18.4258 12.2169 18.5651L12.2153 18.6023L12.2152 18.6118L12.2139 18.6214C12.1862 18.8648 12.1573 19.0732 12.1283 19.2451C12.2777 19.3082 12.4319 19.3532 12.5922 19.3782C12.6435 19.3862 12.6945 19.3956 12.7455 19.4046C12.8309 19.2507 12.9283 19.1038 13.0389 18.9652C13.0749 18.92 13.117 18.8735 13.1647 18.8376C13.2049 18.8073 13.2971 18.7478 13.4177 18.7676C13.557 18.7904 13.6235 18.8966 13.6492 18.9576C13.6749 19.0188 13.6835 19.085 13.687 19.1389C13.6976 19.3011 13.72 19.4733 13.7548 19.6551C13.7559 19.6608 13.7564 19.6666 13.7575 19.6723C13.7598 19.6732 13.7622 19.6741 13.7646 19.6751C13.9365 19.7436 14.1108 19.8035 14.2873 19.8552C14.3718 19.88 14.4569 19.903 14.5424 19.9254C14.5764 19.8505 14.6085 19.7745 14.6371 19.6972C14.6716 19.6043 14.7045 19.5244 14.736 19.4626C14.7517 19.4319 14.7703 19.3994 14.7916 19.3702C14.8084 19.3472 14.8473 19.2974 14.9112 19.2655L14.9877 19.2271L14.9923 19.2281C15.0652 19.203 15.1485 19.2108 15.217 19.2576C15.3321 19.3362 15.3615 19.4934 15.283 19.6086L15.2619 19.6394L15.1684 19.7764L15.1498 19.7725C15.1381 19.8006 15.1249 19.8341 15.1105 19.873C15.0882 19.9329 15.0637 19.992 15.0386 20.0508C15.0554 20.0558 15.0716 20.0603 15.0869 20.0654C15.1357 20.0817 15.1893 20.1023 15.2376 20.1295L15.2838 20.1592L15.3046 20.1743L15.3213 20.1928C15.4315 20.2463 15.4901 20.3725 15.4529 20.4932C15.4118 20.6265 15.2702 20.7013 15.1369 20.6603L15.1013 20.6492L15.0353 20.629L14.9889 20.5776L14.9756 20.5631C14.966 20.559 14.9504 20.5527 14.9268 20.5449C14.895 20.5342 14.8548 20.5228 14.806 20.5104C14.7175 20.6592 14.6192 20.8017 14.5095 20.9367C14.3623 21.1178 14.1814 21.2485 13.9634 21.2937C13.835 21.3202 13.6967 21.3048 13.5773 21.2176C13.4664 21.1366 13.404 21.0166 13.3674 20.8999C13.302 20.6914 13.2767 20.4764 13.2911 20.2565C13.2957 20.1861 13.2955 20.1155 13.2925 20.0447C13.2172 20.0218 13.1412 20.0012 13.0645 19.9834C13.0452 19.979 13.0258 19.9752 13.0065 19.9709C12.9484 20.0655 12.887 20.1578 12.8207 20.247C12.696 20.4147 12.5579 20.5653 12.4061 20.6978C12.3241 20.7694 12.1952 20.8569 12.0372 20.8416C11.8555 20.8239 11.7565 20.6876 11.709 20.5818C11.6334 20.4135 11.5857 20.2214 11.5613 20.0105C11.5446 19.8666 11.5435 19.7231 11.558 19.5802C11.4427 19.5472 11.3083 19.5129 11.1535 19.4783L11.1459 19.4769L11.1031 19.4645C10.9691 19.4262 10.8914 19.2865 10.9296 19.1524C10.968 19.0183 11.1076 18.9407 11.2417 18.9789L11.278 18.989L11.2779 18.9894C11.4101 19.0191 11.532 19.0499 11.6433 19.0804C11.6654 18.9396 11.6884 18.7713 11.711 18.5747L11.7121 18.5457C11.7175 18.4064 11.8348 18.2977 11.9742 18.303ZM13.795 20.2893C13.7846 20.4479 13.8027 20.6007 13.8491 20.7488C13.8562 20.7711 13.8637 20.7865 13.8691 20.7968C13.9424 20.7794 14.0263 20.7307 14.1177 20.6182C14.18 20.5416 14.2378 20.4621 14.2921 20.3803C14.243 20.3668 14.1938 20.3544 14.1451 20.3402C14.0279 20.3058 13.912 20.2674 13.7968 20.2263C13.796 20.2473 13.7964 20.2684 13.795 20.2893ZM12.4698 19.8685C12.3279 19.8437 12.1894 19.8079 12.0544 19.7592C12.0535 19.8234 12.0555 19.8877 12.063 19.9522C12.0769 20.0723 12.0997 20.1764 12.1288 20.266C12.2308 20.1706 12.3268 20.0644 12.4152 19.9455C12.434 19.9202 12.4517 19.8942 12.4698 19.8685Z" fill="#F3F4F5"/>
</g>
<defs>
<clipPath id="clip0_2030_2454">
<rect width="30" height="30" fill="white"/>
</clipPath>
</defs>
</svg>
