<svg width="30" height="30" viewBox="0 0 30 30" fill="none" xmlns="http://www.w3.org/2000/svg">
<path d="M5.11582 8.42171C4.89365 5.81284 4.78257 4.5084 5.52402 3.62891C6.26548 2.74941 7.56992 2.63833 10.1788 2.41616L18.1077 1.74094C20.7166 1.51877 22.021 1.40769 22.9005 2.14914C23.78 2.89059 23.8911 4.19503 24.1132 6.80391L25.2892 20.613C25.5114 23.2218 25.6225 24.5263 24.881 25.4058C24.1396 26.2853 22.8351 26.3963 20.2262 26.6185L12.2973 27.2937C9.68847 27.5159 8.38403 27.627 7.50454 26.8855C6.62505 26.1441 6.51396 24.8396 6.29179 22.2308L5.11582 8.42171Z" fill="#1A1C20"/>
<path d="M16.3749 1.23124C16.9929 1.15278 17.6169 1.114 18.2414 1.11144C18.8358 1.109 19.4287 1.09713 20.0197 1.07346C20.6559 1.04796 21.2944 1.0866 21.9285 1.18943C22.681 1.31184 23.2829 1.70446 23.6989 2.34496C24.0829 2.93666 24.2929 3.58961 24.3264 4.29055C24.3534 4.85271 24.4411 5.40825 24.5859 5.95827C24.7513 6.58642 24.8423 7.22539 24.862 7.86838C24.8798 8.44579 24.9342 9.02112 25.0217 9.59264C25.118 10.2219 25.1526 10.8565 25.1273 11.4955C25.1045 12.0704 25.127 12.6432 25.1945 13.2098C25.2654 13.8047 25.3369 14.3996 25.4074 14.9945C25.4774 15.5847 25.5572 16.1755 25.6454 16.7642C25.7411 17.4038 25.7591 18.0511 25.6974 18.7023C25.6462 19.2427 25.6879 19.7737 25.8288 20.2981C26.0014 20.9399 26.0768 21.5924 26.0517 22.2519C26.0283 22.8659 25.9878 23.4824 25.9302 24.0958C25.8585 24.8571 25.5011 25.474 24.873 25.897C24.357 26.2443 23.8034 26.5426 23.211 26.7878C22.5914 27.0442 21.9455 27.1856 21.2789 27.2135C20.6812 27.2384 20.0835 27.272 19.4883 27.3095C18.8964 27.3468 18.3048 27.3957 17.7153 27.456C17.092 27.5198 16.4647 27.538 15.8344 27.5116C15.2718 27.4881 14.7148 27.5244 14.1631 27.6237C13.5549 27.7334 12.9422 27.819 12.3292 27.8755C11.7027 27.9333 11.0735 27.9385 10.445 27.8967C9.84985 27.8571 9.25435 27.8231 8.65981 27.796C7.88739 27.7609 7.25701 27.4134 6.81782 26.777C6.42652 26.2095 6.18406 25.579 6.10015 24.896C6.02842 24.3124 5.94086 23.728 5.83809 23.1458C5.731 22.5389 5.65143 21.9277 5.59503 21.3156C5.5376 20.6917 5.52298 20.0641 5.55664 19.4333C5.58571 18.8886 5.53059 18.3502 5.38447 17.8191C5.20567 17.1687 5.14284 16.5068 5.19823 15.8359C5.24539 15.2651 5.23823 14.6995 5.17568 14.1396C5.11177 13.5677 5.00789 12.9986 4.86923 12.4322C4.79347 12.123 4.73141 11.8106 4.68073 11.4988L4.56638 10.5636C4.51545 9.93854 4.50873 9.30709 4.54926 8.67498C4.58585 8.10345 4.57237 7.53712 4.50469 6.97606C4.42778 6.33828 4.42573 5.70087 4.49854 5.06476C4.58103 4.34569 4.88211 3.72433 5.40099 3.23269C5.8994 2.76052 6.49687 2.45685 7.17808 2.31921C7.78442 2.19672 8.39896 2.11414 9.0215 2.07502C9.31429 2.05665 9.53371 2.03854 9.68276 2.01871C9.74633 2.01021 9.79147 2.00155 9.81959 1.99548C9.89995 1.95392 9.97842 1.93219 10.0188 1.92068C10.092 1.89982 10.1789 1.87766 10.2703 1.86011C10.4544 1.82483 10.7002 1.78838 11.0013 1.74981C11.6244 1.67 12.2526 1.64067 12.8832 1.65495C13.4477 1.66766 14.0068 1.6198 14.5613 1.5165C15.1641 1.40414 15.769 1.30819 16.3749 1.23124ZM16.5165 2.33416C15.9317 2.40841 15.3454 2.50133 14.7634 2.60981C14.1337 2.72701 13.4965 2.77787 12.8557 2.76336C12.281 2.75043 11.7103 2.7801 11.1433 2.85269C10.8499 2.89028 10.6277 2.92409 10.4769 2.95304C10.4018 2.96749 10.3517 2.97972 10.3228 2.98797C10.3158 2.98999 10.312 2.99242 10.3103 2.99303C10.3109 2.99277 10.3132 2.99046 10.3179 2.98794C10.2249 3.03833 10.1341 3.06239 10.0906 3.07269C10.0143 3.09077 9.92547 3.10405 9.83319 3.11642C9.64635 3.14139 9.39711 3.16477 9.09413 3.18381C8.52115 3.21976 7.95373 3.29418 7.39704 3.40663C6.91581 3.504 6.50948 3.71395 6.16637 4.03867C5.84343 4.34465 5.65607 4.72062 5.60224 5.18834C5.53912 5.73849 5.5417 6.29032 5.60833 6.84293C5.68424 7.47229 5.70223 8.10714 5.66137 8.74579C5.62424 9.32479 5.62675 9.903 5.67326 10.4737C5.7196 11.0411 5.81086 11.6053 5.94818 12.1659C6.09819 12.7784 6.21069 13.3947 6.28003 14.0148C6.35073 14.6473 6.35635 15.2875 6.30335 15.9291C6.25894 16.4696 6.30841 17.0029 6.45285 17.5279C6.63 18.1723 6.70288 18.827 6.66762 19.4908C6.63676 20.069 6.64905 20.6466 6.7016 21.2169C6.75517 21.7976 6.83052 22.3765 6.93215 22.9525C7.03839 23.5543 7.12964 24.1593 7.20378 24.7629C7.26585 25.2672 7.44113 25.7259 7.73091 26.1462C7.97304 26.4973 8.28402 26.6709 8.70935 26.6902C9.31129 26.7175 9.91364 26.7485 10.5161 26.7886C11.0864 26.8265 11.658 26.8217 12.2261 26.7693C12.8074 26.7158 13.3882 26.6341 13.9654 26.53C14.5973 26.4162 15.2357 26.3749 15.8792 26.4017C16.4569 26.4259 17.0337 26.4089 17.6038 26.3505C18.2075 26.2887 18.814 26.2385 19.4201 26.2003C20.0226 26.1624 20.6274 26.1277 21.2323 26.1025C21.7677 26.0801 22.2842 25.9684 22.7841 25.7617C23.3114 25.5435 23.8015 25.2793 24.2543 24.9744C24.5946 24.745 24.7819 24.4337 24.8235 23.9894C24.8791 23.3968 24.9195 22.804 24.9422 22.2112C24.9631 21.6638 24.8996 21.1207 24.7557 20.5853C24.5806 19.9331 24.527 19.2685 24.5907 18.5963C24.644 18.0339 24.6265 17.4767 24.5443 16.9278C24.4546 16.3287 24.3755 15.7283 24.3042 15.1276C24.2336 14.5318 24.1619 13.9343 24.0909 13.3385C24.0165 12.7134 23.9918 12.0832 24.0169 11.4503C24.0394 10.8819 24.0066 10.3189 23.921 9.76023C23.8267 9.14414 23.7735 8.52431 23.7543 7.90176C23.7372 7.34386 23.6566 6.78927 23.5124 6.24145C23.3478 5.61635 23.2464 4.98261 23.2158 4.34153C23.1916 3.83951 23.0439 3.37955 22.7664 2.9516C22.5203 2.57266 22.1928 2.35638 21.7516 2.28432C21.1902 2.19327 20.6269 2.15757 20.0658 2.18006C19.4605 2.20432 18.8534 2.2192 18.2448 2.22168C17.6655 2.22405 17.0893 2.26147 16.5165 2.33416Z" fill="#1A1C20"/>
<path d="M4.73887 9.36532C4.5167 6.75644 4.40562 5.452 5.14707 4.57251C5.88853 3.69302 7.19296 3.58193 9.80184 3.35976L17.7307 2.68454C20.3396 2.46237 21.644 2.35129 22.5235 3.09274C23.403 3.8342 23.5141 5.13864 23.7363 7.74751L24.9123 21.5566C25.1344 24.1654 25.2455 25.4699 24.5041 26.3494C23.7626 27.2289 22.4582 27.3399 19.8493 27.5621L11.9204 28.2373C9.31152 28.4595 8.00708 28.5706 7.12759 27.8291C6.24809 27.0877 6.13701 25.7832 5.91484 23.1744L4.73887 9.36532Z" fill="#1A1C20"/>
<path d="M15.9999 2.17435C16.6179 2.09589 17.2419 2.05712 17.8664 2.05456C18.4608 2.05211 19.0537 2.04025 19.6447 2.01658C20.2809 1.99108 20.9194 2.02971 21.5535 2.13255C22.306 2.25496 22.9079 2.64757 23.3239 3.28807C23.7079 3.87977 23.9179 4.53273 23.9514 5.23367C23.9784 5.79582 24.0661 6.35136 24.2109 6.90138C24.3763 7.52954 24.4673 8.16851 24.487 8.8115C24.5048 9.3889 24.5592 9.96424 24.6467 10.5358C24.743 11.165 24.7776 11.7996 24.7523 12.4386C24.7295 13.0136 24.752 13.5863 24.8195 14.1529C24.8904 14.7479 24.9619 15.3427 25.0324 15.9376C25.1024 16.5278 25.1822 17.1186 25.2704 17.7073C25.3661 18.347 25.3841 18.9942 25.3224 19.6454C25.2712 20.1859 25.3129 20.7168 25.4538 21.2412C25.6264 21.883 25.7018 22.5355 25.6767 23.195C25.6533 23.809 25.6128 24.4255 25.5552 25.0389C25.4835 25.8002 25.1261 26.4171 24.498 26.8401C23.982 27.1874 23.4284 27.4857 22.836 27.7309C22.2164 27.9873 21.5705 28.1287 20.9039 28.1566C20.3062 28.1815 19.7085 28.2151 19.1133 28.2526C18.5214 28.2899 17.9298 28.3388 17.3403 28.3991C16.717 28.4629 16.0897 28.4811 15.4594 28.4547C14.8968 28.4312 14.3398 28.4675 13.7881 28.5668C13.1799 28.6765 12.5672 28.7621 11.9542 28.8186C11.3277 28.8764 10.6985 28.8816 10.07 28.8398C9.47485 28.8003 8.87935 28.7662 8.28481 28.7392C7.51239 28.7041 6.88201 28.3565 6.44282 27.7201C6.05152 27.1526 5.80906 26.5221 5.72515 25.8391C5.65342 25.2555 5.56586 24.6711 5.46309 24.0889C5.356 23.482 5.27643 22.8708 5.22003 22.2587C5.1626 21.6348 5.14798 21.0073 5.18164 20.3764C5.21071 19.8317 5.15559 19.2933 5.00947 18.7622C4.83067 18.1118 4.76784 17.4499 4.82323 16.779C4.87039 16.2082 4.86323 15.6427 4.80068 15.0827C4.73677 14.5108 4.63289 13.9417 4.49423 13.3754C4.41847 13.0661 4.35641 12.7537 4.30573 12.4419L4.19138 11.5067C4.14045 10.8817 4.13373 10.2502 4.17426 9.6181C4.21085 9.04656 4.19737 8.48024 4.12969 7.91918C4.05278 7.2814 4.05073 6.64399 4.12354 6.00788C4.20603 5.28881 4.50711 4.66744 5.02599 4.17581C5.5244 3.70363 6.12187 3.39996 6.80308 3.26232C7.40942 3.13984 8.02396 3.05726 8.6465 3.01813C8.93929 2.99976 9.15871 2.98165 9.30776 2.96182C9.37133 2.95332 9.41647 2.94467 9.44459 2.9386C9.52495 2.89704 9.60342 2.8753 9.64378 2.8638C9.717 2.84294 9.80393 2.82078 9.89534 2.80322C10.0794 2.76794 10.3252 2.7315 10.6263 2.69292C11.2494 2.61311 11.8776 2.58379 12.5082 2.59806C13.0727 2.61077 13.6318 2.56292 14.1863 2.45961C14.7891 2.34725 15.394 2.25131 15.9999 2.17435ZM16.1415 3.27727C15.5567 3.35153 14.9704 3.44444 14.3884 3.55292C13.7587 3.67013 13.1215 3.72099 12.4807 3.70648C11.906 3.69354 11.3353 3.72321 10.7683 3.79581C10.4749 3.8334 10.2527 3.8672 10.1019 3.89616C10.0268 3.91061 9.97671 3.92284 9.94778 3.93108C9.94079 3.9331 9.93702 3.93553 9.93531 3.93615C9.93586 3.93589 9.9382 3.93358 9.94289 3.93105C9.84988 3.98145 9.75907 4.00551 9.71563 4.01581C9.63931 4.03389 9.55047 4.04717 9.45819 4.05953C9.27135 4.08451 9.02211 4.10789 8.71913 4.12692C8.14615 4.16287 7.57873 4.23729 7.02204 4.34975C6.54081 4.44711 6.13448 4.65706 5.79137 4.98178C5.46843 5.28777 5.28107 5.66374 5.22724 6.13145C5.16412 6.68161 5.1667 7.23344 5.23333 7.78604C5.30924 8.4154 5.32723 9.05026 5.28637 9.6889C5.24924 10.2679 5.25175 10.8461 5.29826 11.4169C5.3446 11.9842 5.43586 12.5484 5.57318 13.1091C5.72319 13.7215 5.83569 14.3378 5.90503 14.9579C5.97573 15.5905 5.98135 16.2306 5.92835 16.8722C5.88394 17.4127 5.93341 17.946 6.07785 18.471C6.255 19.1154 6.32788 19.7701 6.29262 20.4339C6.26176 21.0121 6.27405 21.5897 6.3266 22.16C6.38017 22.7407 6.45552 23.3196 6.55715 23.8956C6.66339 24.4974 6.75464 25.1024 6.82878 25.706C6.89085 26.2104 7.06613 26.669 7.35591 27.0893C7.59804 27.4404 7.90902 27.614 8.33435 27.6333C8.93629 27.6607 9.53864 27.6917 10.1411 27.7317C10.7114 27.7697 11.283 27.7648 11.8511 27.7125C12.4324 27.6589 13.0132 27.5772 13.5904 27.4731C14.2223 27.3593 14.8607 27.318 15.5042 27.3449C16.0819 27.3691 16.6587 27.352 17.2288 27.2936C17.8325 27.2318 18.439 27.1816 19.0451 27.1434C19.6476 27.1055 20.2524 27.0708 20.8573 27.0456C21.3927 27.0232 21.9092 26.9115 22.4091 26.7048C22.9364 26.4866 23.4265 26.2224 23.8793 25.9175C24.2196 25.6881 24.4069 25.3768 24.4485 24.9325C24.5041 24.3399 24.5445 23.7472 24.5672 23.1543C24.5881 22.6069 24.5246 22.0638 24.3807 21.5284C24.2056 20.8762 24.152 20.2116 24.2157 19.5394C24.269 18.977 24.2515 18.4199 24.1693 17.8709C24.0796 17.2718 24.0005 16.6714 23.9292 16.0707C23.8586 15.4749 23.7869 14.8774 23.7159 14.2816C23.6415 13.6566 23.6168 13.0264 23.6419 12.3934C23.6644 11.825 23.6316 11.262 23.546 10.7033C23.4517 10.0873 23.3985 9.46742 23.3793 8.84487C23.3622 8.28697 23.2816 7.73239 23.1374 7.18456C22.9728 6.55946 22.8714 5.92572 22.8408 5.28464C22.8166 4.78263 22.6689 4.32266 22.3914 3.89472C22.1453 3.51577 21.8178 3.29949 21.3766 3.22743C20.8152 3.13638 20.2519 3.10069 19.6908 3.12317C19.0855 3.14744 18.4784 3.16231 17.8698 3.1648C17.2905 3.16716 16.7143 3.20459 16.1415 3.27727Z" fill="#1A1C20"/>
<path d="M22.2047 3.13494C22.3729 3.1199 22.5227 3.24376 22.5384 3.41174L22.541 3.44266L22.6057 4.03513C22.619 4.21148 22.6248 4.36644 22.6189 4.49806C22.6095 4.70594 22.6268 4.91245 22.6714 5.11558C22.7233 5.35143 22.7664 5.58809 22.8013 5.8253C22.8374 6.07095 22.8536 6.319 22.8526 6.5684C22.8516 6.79286 22.863 7.01682 22.8834 7.2385C22.9037 7.45996 22.9339 7.68082 22.9758 7.90068C23.0219 8.14303 23.0524 8.38713 23.0671 8.63281C23.0817 8.87716 23.0834 9.12342 23.0698 9.37026C23.0589 9.56858 23.0835 9.76342 23.1437 9.95527C23.2232 10.2085 23.2669 10.4674 23.2741 10.7294C23.2801 10.9473 23.3026 11.165 23.3415 11.38C23.3874 11.6339 23.4014 11.8906 23.3857 12.1495C23.3726 12.3646 23.3821 12.5781 23.4112 12.7889C23.4431 13.0199 23.4747 13.2515 23.5063 13.4824C23.5374 13.7093 23.5725 13.9368 23.6123 14.163C23.6581 14.4238 23.664 14.6881 23.6294 14.9544C23.6045 15.146 23.6218 15.3333 23.6818 15.5168C23.7665 15.7762 23.8048 16.0419 23.7975 16.3118C23.7917 16.527 23.8055 16.7408 23.84 16.952C23.882 17.2082 23.8914 17.4673 23.8679 17.7282C23.8506 17.9206 23.8722 18.1096 23.9354 18.2969C24.0217 18.5522 24.0703 18.8128 24.0767 19.0777C24.0822 19.3068 24.092 19.5362 24.1062 19.7643C24.1204 19.9918 24.1394 20.2203 24.1644 20.4468C24.1919 20.6968 24.1962 20.9493 24.178 21.2025C24.163 21.4097 24.1772 21.6147 24.2183 21.8166C24.2673 22.057 24.3017 22.2995 24.3237 22.5426C24.3461 22.7909 24.3494 23.0408 24.3319 23.2916C24.3179 23.4924 24.3357 23.6909 24.3875 23.8875C24.4548 24.1425 24.487 24.4011 24.4846 24.6623C24.4824 24.8987 24.4796 25.1363 24.4708 25.3722C24.4624 25.5969 24.4672 25.7259 24.4768 25.7828L24.4983 25.8624L24.5053 25.893L24.508 25.9243L24.5096 25.9696C24.5181 26.1382 24.3882 26.2807 24.2197 26.2897C24.0508 26.2981 23.9059 26.1693 23.8974 26.0004L23.8979 25.9807L23.8812 25.9248L23.8781 25.9152L23.8773 25.906C23.8522 25.7757 23.8474 25.5796 23.856 25.3476C23.8646 25.1177 23.872 24.8873 23.8742 24.6569C23.8761 24.4511 23.8488 24.2463 23.7952 24.0434C23.7266 23.7827 23.7019 23.5176 23.7205 23.2498C23.7358 23.0313 23.7325 22.8122 23.713 22.5968C23.693 22.3768 23.6606 22.158 23.6161 21.9399C23.5637 21.6828 23.5475 21.4212 23.5665 21.1584C23.582 20.9422 23.5783 20.728 23.5549 20.5156C23.5288 20.2794 23.5091 20.0416 23.4943 19.8044C23.4796 19.5683 23.4684 19.331 23.4627 19.0939C23.4579 18.8921 23.4235 18.6912 23.3564 18.4926C23.2662 18.2256 23.2325 17.9507 23.2576 17.6721C23.2764 17.4624 23.2692 17.2556 23.2359 17.0515C23.195 16.8019 23.1765 16.5484 23.1834 16.2947C23.1887 16.0962 23.1606 15.8996 23.0972 15.7058C23.0092 15.4359 22.9829 15.1581 23.0195 14.8764C23.0464 14.6697 23.0435 14.4662 23.0086 14.2674C22.9675 14.0338 22.9306 13.7997 22.8985 13.5653C22.8669 13.3345 22.8353 13.1027 22.8034 12.8718C22.7688 12.6208 22.7593 12.3678 22.7748 12.113C22.7876 11.9025 22.7753 11.6943 22.7381 11.4887C22.6937 11.2433 22.6674 10.9945 22.6606 10.7457C22.6549 10.5414 22.6215 10.3395 22.5587 10.1394C22.4766 9.87816 22.4418 9.61056 22.4567 9.33838C22.469 9.11467 22.4681 8.89139 22.455 8.6707C22.4418 8.45111 22.4141 8.23157 22.3729 8.01476C22.3274 7.77606 22.295 7.53572 22.2729 7.29494C22.2507 7.05358 22.2385 6.8089 22.2396 6.56498C22.2405 6.34662 22.2256 6.13033 22.1941 5.91571C22.1613 5.69242 22.121 5.46815 22.0721 5.24582C22.016 4.99053 21.9944 4.73179 22.0061 4.4706C22.0153 4.26448 21.9929 3.95333 21.9329 3.52781L21.9278 3.46818C21.9129 3.2998 22.0363 3.15016 22.2047 3.13494Z" fill="#F3F4F5"/>
<path d="M16.6732 6.96784C16.9279 6.92441 17.1866 6.91213 17.4459 6.93051C17.7001 6.94856 17.9285 6.9922 18.1232 7.06771C18.4239 7.18451 18.5596 7.4585 18.5971 7.75302C18.626 7.98018 18.6606 8.20715 18.6983 8.43359C18.7418 8.69537 18.7431 8.96186 18.7059 9.22846C18.6703 9.48261 18.6137 9.70993 18.5307 9.90409C18.469 10.0484 18.3647 10.1631 18.2226 10.2355C18.0863 10.3047 17.933 10.3264 17.7827 10.3211C17.5676 10.3134 17.3535 10.3258 17.1421 10.3587C16.8858 10.3985 16.6262 10.4071 16.3655 10.3817C16.173 10.363 15.9839 10.3825 15.7969 10.4443C15.5413 10.5288 15.2801 10.5733 15.0154 10.5781C14.7863 10.5822 14.5564 10.5924 14.3281 10.6055C14.101 10.6185 13.8743 10.637 13.6481 10.6611C13.398 10.6878 13.1456 10.6912 12.8923 10.6726C12.6851 10.6573 12.48 10.6715 12.2781 10.7128C12.0382 10.7619 11.7968 10.7968 11.5545 10.8199C11.3068 10.8434 11.0564 10.8483 10.8059 10.8333C10.606 10.8215 10.4085 10.8428 10.2135 10.898C9.96086 10.9695 9.70423 11.0085 9.44475 11.0142C9.2903 11.0176 9.12883 10.9897 8.99045 10.8989C8.84583 10.8039 8.7614 10.6623 8.72386 10.5061C8.67773 10.3131 8.63236 10.0978 8.58777 9.86409C8.54218 9.62503 8.50806 9.38387 8.4854 9.14269C8.462 8.89278 8.46124 8.64124 8.48344 8.38827C8.49315 8.27795 8.49436 8.20309 8.49286 8.15923C8.47258 8.11727 8.45571 8.06661 8.46047 8.00359C8.46724 7.91593 8.50797 7.85382 8.53617 7.8214C8.56386 7.78965 8.5934 7.77043 8.61013 7.75993C8.66459 7.72592 8.72696 7.71056 8.7496 7.7049C8.81669 7.68816 8.91337 7.67095 9.02919 7.65484C9.27929 7.62007 9.53171 7.60898 9.7854 7.62158C9.99369 7.63193 10.2002 7.61706 10.4038 7.57382C10.6403 7.5236 10.8779 7.48098 11.1161 7.4482C11.3623 7.41434 11.6101 7.40037 11.8593 7.40404C12.0836 7.40734 12.3078 7.39866 12.5301 7.38073C12.7519 7.36281 12.9731 7.33471 13.1933 7.29533C13.436 7.2519 13.6805 7.22315 13.926 7.21113C14.1706 7.19921 14.4177 7.20178 14.6643 7.21811C14.8621 7.23119 15.0566 7.20958 15.2495 7.15137C15.5038 7.07457 15.7625 7.03198 16.0247 7.02752C16.2422 7.02384 16.4584 7.00442 16.6732 6.96784ZM16.7775 7.57161C16.5322 7.61345 16.2847 7.63762 16.0361 7.64188C15.8317 7.64535 15.6282 7.67619 15.427 7.7369C15.1643 7.81624 14.8947 7.84746 14.6225 7.82944C14.3995 7.81472 14.1773 7.81309 13.9569 7.82383C13.7376 7.83454 13.5195 7.85989 13.3025 7.89869C13.063 7.94155 12.8215 7.97184 12.5799 7.99137C12.3383 8.01086 12.0947 8.01871 11.8513 8.01515C11.6328 8.01194 11.4146 8.02636 11.199 8.05602C10.9754 8.08679 10.7514 8.12593 10.5291 8.17313C10.2743 8.22714 10.0161 8.24696 9.75569 8.2341C9.54029 8.22341 9.32585 8.23309 9.11431 8.26247C9.10977 8.26309 9.10457 8.26306 9.10017 8.26367C9.09802 8.31775 9.09917 8.37859 9.09357 8.44221C9.07458 8.65888 9.07551 8.87331 9.09544 9.08585C9.11631 9.30798 9.14602 9.5302 9.1881 9.75068C9.23128 9.97694 9.27644 10.182 9.31998 10.3641C9.3239 10.38 9.32831 10.3862 9.32908 10.3874L9.32643 10.3876C9.32705 10.388 9.35284 10.4044 9.43138 10.4027C9.6382 10.3981 9.84451 10.3669 10.0481 10.3092C10.3087 10.2355 10.5738 10.2064 10.8429 10.2224C11.0619 10.2355 11.2797 10.2305 11.4954 10.21C11.7163 10.189 11.9384 10.1553 12.1574 10.1105C12.4144 10.058 12.6759 10.0415 12.9385 10.0609C13.1549 10.0768 13.3695 10.0741 13.582 10.0514C13.8185 10.0262 14.0576 10.007 14.2951 9.99339C14.531 9.97987 14.7676 9.9706 15.0042 9.96637C15.2059 9.96275 15.4066 9.92793 15.6054 9.86223C15.8727 9.77387 16.1479 9.7438 16.4265 9.77095C16.6362 9.79133 16.8432 9.78578 17.0475 9.7541C17.2974 9.71522 17.5516 9.69962 17.8053 9.7087C17.8883 9.71152 17.9296 9.69753 17.9452 9.68967C17.9538 9.68519 17.9598 9.6804 17.967 9.66378C18.0228 9.53324 18.0701 9.36119 18.1006 9.14297C18.1295 8.9365 18.125 8.73242 18.0919 8.53328C18.053 8.29962 18.0187 8.06553 17.9889 7.83107C17.9679 7.66555 17.9178 7.64491 17.9027 7.63908C17.7825 7.59241 17.6176 7.55775 17.4019 7.54246C17.1913 7.52756 16.9833 7.53656 16.7775 7.57161Z" fill="#F3F4F5"/>
<path d="M17.9286 2.88002C18.1921 2.79706 18.4617 2.76579 18.7347 2.78468C18.9552 2.80002 19.176 2.79904 19.3954 2.78403C19.664 2.76563 19.9307 2.79214 20.1929 2.86472C20.3778 2.91591 20.5647 2.9269 20.7573 2.89363C21.0385 2.84495 21.3172 2.85863 21.5897 2.93574C21.8158 2.99979 21.9899 3.04554 22.1109 3.07378C22.1757 3.0889 22.2301 3.10379 22.2707 3.11579C22.2895 3.12136 22.3158 3.12829 22.3398 3.13838C22.3503 3.14283 22.3744 3.1543 22.4005 3.17192C22.4133 3.18057 22.4397 3.1984 22.4654 3.22868C22.4817 3.24808 22.5052 3.2901 22.5212 3.34672C22.5252 3.35889 22.5243 3.37181 22.5267 3.38452C22.529 3.40034 22.5383 3.41601 22.538 3.43383L22.5343 3.69843L22.337 3.72279C22.2917 3.73966 22.2433 3.75121 22.1921 3.74448L22.1462 3.73904L22.1459 3.42674L21.9271 3.42356C21.9255 3.52713 21.9738 3.59677 21.9967 3.62408C22.0213 3.65331 22.0459 3.67146 22.057 3.67901C22.0797 3.6943 22.0999 3.70094 22.1021 3.70187C22.1099 3.70514 22.1101 3.70609 22.0973 3.70228C22.0743 3.69549 22.0339 3.68421 21.9721 3.66978C21.8372 3.63831 21.6529 3.58923 21.4236 3.52428C21.2407 3.4725 21.054 3.4641 20.8616 3.4974C20.5808 3.54592 20.3023 3.53089 20.0291 3.45528C19.833 3.40098 19.6361 3.38179 19.4381 3.39527C19.1906 3.41222 18.9418 3.41367 18.6934 3.3964C18.4978 3.38279 18.3046 3.40457 18.1128 3.46498C17.8435 3.54976 17.566 3.57634 17.2856 3.54254C17.0798 3.51782 16.879 3.52454 16.6818 3.56281C16.4488 3.60806 16.2149 3.64794 15.9812 3.68476C15.7513 3.72098 15.5215 3.75788 15.2916 3.79421C15.0409 3.83382 14.7865 3.84827 14.5308 3.8372C14.3195 3.82808 14.1108 3.84318 13.9057 3.88332C13.6612 3.93113 13.4143 3.96104 13.1656 3.97037C12.9608 3.97802 12.7578 4.01319 12.5572 4.07735C12.2955 4.16102 12.0268 4.19631 11.7541 4.18178C11.5302 4.16986 11.3074 4.17046 11.0864 4.18347C10.8672 4.19639 10.6492 4.22268 10.4325 4.26318C10.1927 4.30802 9.95016 4.33993 9.708 4.36091C9.46627 4.38184 9.22346 4.39164 8.97984 4.38911C8.76115 4.38684 8.5432 4.4001 8.32754 4.43042C8.10399 4.46187 7.88018 4.50209 7.65786 4.54974C7.40267 4.60435 7.14332 4.62612 6.88246 4.61355C6.67733 4.60379 6.36643 4.62522 5.94188 4.68653L5.935 4.68934L5.88023 4.694C5.71207 4.70833 5.56397 4.58286 5.54901 4.41477C5.53435 4.24617 5.65965 4.09821 5.82824 4.08355L5.85431 4.08133C6.2909 4.01828 6.64795 3.98798 6.91213 4.00059C7.12014 4.0106 7.32651 3.99419 7.52988 3.95065C7.76638 3.89996 8.0045 3.85849 8.24262 3.825C8.48856 3.79042 8.73641 3.77341 8.98547 3.77597C9.20966 3.77831 9.43378 3.76927 9.65598 3.75002C9.87787 3.73078 10.0989 3.70133 10.3188 3.6602C10.5613 3.61486 10.8057 3.58559 11.0511 3.57114C11.2949 3.55681 11.5398 3.55556 11.7859 3.56863C11.9837 3.57917 12.1791 3.55388 12.3708 3.49258C12.6233 3.41186 12.8809 3.36679 13.1423 3.35702C13.3595 3.3489 13.5759 3.32459 13.7896 3.28277C14.0425 3.23333 14.2992 3.2132 14.5583 3.22442C14.773 3.2337 14.985 3.22283 15.1943 3.18984C15.4245 3.15346 15.6563 3.11644 15.8866 3.08017C16.113 3.04449 16.3401 3.00387 16.566 2.96002C16.8271 2.90943 17.0932 2.90098 17.361 2.93325C17.5545 2.95644 17.7428 2.93848 17.9286 2.88002Z" fill="#F3F4F5"/>
</svg>
