<svg width="30" height="30" viewBox="0 0 30 30" fill="none" xmlns="http://www.w3.org/2000/svg">
<g clip-path="url(#clip0_2030_2455)">
<path fill-rule="evenodd" clip-rule="evenodd" d="M19.2067 4.96426C19.2193 4.97353 19.2521 4.99757 19.2796 5.03562C19.2909 5.05135 19.3091 5.08127 19.3209 5.12287L19.3339 5.14092C19.3718 5.19157 19.4355 5.26946 19.5287 5.37701C19.7513 5.63403 19.8851 5.9334 19.9271 6.26911C19.965 6.57274 19.9674 6.87683 19.9337 7.18026C19.9195 7.30862 19.9231 7.39117 19.9328 7.43801C19.9339 7.44286 19.936 7.44667 19.9369 7.45007C20.0224 7.49637 20.1812 7.5648 20.4295 7.65287C20.7332 7.76058 21.0069 7.91835 21.2482 8.12492C21.4892 8.33129 21.6863 8.57648 21.8393 8.85885C22.0002 9.15578 22.0748 9.47624 22.0605 9.81508C22.0463 10.1524 21.9487 10.4639 21.7676 10.743C21.6105 10.9849 21.4514 11.2158 21.2923 11.435C21.2671 11.4698 21.259 11.4913 21.2564 11.5013C21.2641 11.5117 21.2887 11.5381 21.3559 11.574C21.6391 11.7255 21.892 11.9191 22.1131 12.1533C22.3526 12.4071 22.4978 12.7098 22.543 13.0546C22.584 13.3679 22.5801 13.6783 22.5322 13.9842C22.4826 14.3008 22.3707 14.5968 22.1979 14.8701C22.0418 15.1169 21.8793 15.36 21.7106 15.5987C21.532 15.8517 21.324 16.0816 21.0871 16.2864C20.8904 16.4564 20.7298 16.6546 20.6051 16.8825C20.4535 17.1596 20.2679 17.4108 20.0488 17.6345C19.8562 17.8311 19.679 18.0409 19.5189 18.2635C19.3405 18.5117 19.1387 18.741 18.9126 18.9501C18.7214 19.1268 18.5638 19.3307 18.4399 19.5625C18.2923 19.839 18.115 20.0929 17.9082 20.323C17.7177 20.5349 17.5302 20.7504 17.3467 20.9679C17.1637 21.1848 16.9849 21.4057 16.8106 21.6296C16.6263 21.8663 16.4243 22.0885 16.2064 22.2978C16.0076 22.4888 15.826 22.6936 15.6617 22.9111C15.4731 23.1607 15.2535 23.3765 15.003 23.5567C14.7753 23.7205 14.546 23.887 14.3155 24.056C14.0912 24.2206 13.8739 24.3958 13.6642 24.5821C13.426 24.7938 13.1588 24.9609 12.8643 25.0824C12.5889 25.196 12.3073 25.2958 12.0199 25.3812C11.7994 25.4468 11.6301 25.5704 11.5032 25.7574C11.337 26.0024 11.1609 26.2403 10.9739 26.4697C10.7692 26.7209 10.5229 26.9216 10.2375 27.0702C9.98131 27.2036 9.72008 27.3329 9.45463 27.4575C9.13526 27.6073 8.7996 27.6354 8.45945 27.5419C8.16626 27.4613 7.88576 27.3594 7.61954 27.2347C7.36063 27.1133 7.10258 26.9776 6.84483 26.8294C6.58092 26.6778 6.33089 26.5067 6.09678 26.3165C5.86382 26.1272 5.64455 25.9204 5.43944 25.6973C5.25523 25.4969 5.0537 25.3186 4.83484 25.162C4.59703 24.9919 4.36404 24.8154 4.13581 24.6334C3.90886 24.4524 3.68472 24.2675 3.46387 24.079C3.24566 23.8927 3.02643 23.7071 2.80765 23.5222C2.57364 23.3242 2.36618 23.1049 2.18645 22.8644C2.00864 22.6263 1.85417 22.3698 1.72217 22.096C1.57613 21.793 1.51785 21.4701 1.54964 21.1339C1.57889 20.8248 1.64458 20.5219 1.74477 20.2261C1.85144 19.9113 2.02281 19.6348 2.25696 19.3997C2.42255 19.2334 2.51051 19.0491 2.53261 18.8416C2.55957 18.5877 2.56084 18.3254 2.53661 18.0557C2.5113 17.774 2.47963 17.4924 2.44064 17.2118C2.39987 16.9183 2.37335 16.6231 2.36177 16.3264C2.35007 16.0264 2.35878 15.7265 2.38772 15.4278C2.41664 15.1292 2.46502 14.8341 2.53319 14.5427C2.59868 14.2628 2.66421 13.9826 2.73003 13.7028C2.7959 13.4228 2.86318 13.1425 2.92962 12.8626C2.99677 12.5797 3.06904 12.2982 3.14752 12.0184C3.22542 11.7407 3.30486 11.4626 3.38613 11.1858C3.46954 10.9018 3.56707 10.6215 3.67875 10.3454C3.78474 10.0834 3.87965 9.82086 3.96323 9.55864C4.05985 9.25556 4.21356 8.98105 4.42248 8.73717C4.64724 8.4749 4.93536 8.30441 5.27642 8.22899C5.61521 8.15413 5.94718 8.18357 6.26437 8.31691C6.56998 8.44549 6.82688 8.63771 7.02895 8.89337C7.23137 9.14964 7.35647 9.4416 7.40133 9.76325C7.44233 10.0574 7.45009 10.3572 7.4254 10.6621C7.41489 10.7918 7.41744 10.8901 7.42635 10.9627C7.4296 10.9589 7.43357 10.9552 7.43692 10.9512C7.62202 10.7279 7.81086 10.5074 8.00291 10.2898C8.18346 10.0852 8.34663 9.86622 8.49232 9.63318C8.64846 9.38339 8.81132 9.13841 8.98111 8.89952C9.15333 8.65724 9.33857 8.42483 9.53565 8.20257C9.72431 7.98981 9.90894 7.77329 10.0898 7.55428C10.2712 7.33476 10.4502 7.11292 10.6255 6.88852C10.8029 6.66137 10.9819 6.43462 11.1618 6.2095C11.3476 5.9771 11.5464 5.7558 11.7582 5.54627C11.9683 5.33836 12.1864 5.14202 12.4117 4.95677C12.6691 4.74524 12.9667 4.61543 13.2987 4.56937C13.6192 4.52502 13.9367 4.5466 14.2474 4.63441C14.5621 4.72337 14.842 4.87871 15.084 5.09829C15.3121 5.30533 15.4811 5.55212 15.59 5.83509C15.7674 5.61903 15.9744 5.42659 16.2095 5.25828C16.4588 5.07985 16.7185 4.93097 16.9876 4.81309C17.2691 4.68984 17.567 4.6206 17.8792 4.60506C18.1997 4.58914 18.5095 4.64349 18.8036 4.76716C18.933 4.82156 19.0349 4.86771 19.105 4.90362C19.1378 4.92043 19.1755 4.9415 19.2067 4.96426Z" fill="#1A1C20"/>
<path d="M20.2877 11.6927C20.3995 11.5541 20.6024 11.5324 20.741 11.6442C20.8796 11.756 20.9013 11.9588 20.7895 12.0974L20.7646 12.1283C20.4961 12.5024 20.2604 12.7911 20.0596 12.981C19.9002 13.1317 19.7632 13.3 19.648 13.4861C19.5139 13.7027 19.3727 13.9136 19.2242 14.1187C19.0706 14.3306 18.9013 14.5301 18.7171 14.717C18.5514 14.885 18.3944 15.0601 18.2462 15.2421C18.0982 15.424 17.9592 15.6133 17.8287 15.8096C17.6849 16.026 17.5277 16.232 17.3579 16.4276C17.1891 16.622 17.0087 16.8069 16.817 16.9824C16.6539 17.1316 16.5748 17.2501 16.5436 17.3348C16.5146 17.4134 16.4839 17.4886 16.4518 17.5459C16.4386 17.5694 16.409 17.6208 16.3597 17.6646C16.3347 17.6868 16.2798 17.7296 16.1972 17.7457C16.0974 17.7652 15.9985 17.7377 15.9246 17.6781L15.8051 17.5817L15.8053 17.5369C15.7559 17.4293 15.7665 17.299 15.8459 17.2005L15.9618 17.0568C16.0478 16.8592 16.1968 16.6763 16.3819 16.5069C16.5557 16.3479 16.7189 16.1803 16.8714 16.0047C17.023 15.83 17.163 15.6459 17.2916 15.4525C17.4335 15.239 17.5851 15.0333 17.7462 14.8352C17.9074 14.6372 18.0782 14.4469 18.2582 14.2643C18.4197 14.1005 18.5674 13.9258 18.7017 13.7404C18.841 13.5481 18.9736 13.3502 19.0995 13.1469C19.2441 12.9132 19.4168 12.7013 19.6166 12.5123C19.7736 12.3638 19.9829 12.1124 20.2465 11.7446L20.252 11.737L20.2877 11.6927Z" fill="#F3F4F5"/>
<path fill-rule="evenodd" clip-rule="evenodd" d="M22.0308 8.47815C22.0421 8.48847 22.0722 8.51578 22.0957 8.55687C22.1053 8.57364 22.1208 8.60568 22.1281 8.64871L22.1385 8.66735C22.1707 8.72174 22.2265 8.80661 22.3077 8.92354C22.5014 9.20273 22.6028 9.51485 22.6087 9.853C22.6141 10.1589 22.5841 10.4616 22.5183 10.7597C22.4905 10.8855 22.4846 10.9675 22.4893 11.0152C22.4898 11.0202 22.4908 11.0247 22.4913 11.0283C22.5715 11.0835 22.723 11.1682 22.9609 11.2824C23.2514 11.4219 23.5067 11.6079 23.7246 11.839C23.9422 12.0698 24.1122 12.3347 24.2343 12.6317C24.3626 12.9441 24.4013 13.2706 24.351 13.6061C24.3008 13.9401 24.1708 14.2392 23.9608 14.4975C23.7789 14.7212 23.5974 14.934 23.416 15.1349C23.3872 15.1667 23.3762 15.1866 23.3725 15.1964C23.3788 15.2072 23.4001 15.2359 23.4636 15.2792C23.7291 15.46 23.9599 15.6795 24.1548 15.9359C24.366 16.2138 24.4774 16.5308 24.4856 16.8785C24.493 17.1944 24.4574 17.5026 24.3772 17.8017C24.2942 18.1114 24.1508 18.3943 23.9498 18.6476C23.7684 18.8762 23.5813 19.1003 23.3883 19.3195C23.1837 19.552 22.9518 19.7578 22.6944 19.9362C22.4808 20.0842 22.2999 20.2643 22.1516 20.4776C21.9713 20.7371 21.7595 20.9675 21.5177 21.1667C21.3054 21.3416 21.108 21.5315 20.9252 21.7357C20.7214 21.9634 20.4955 22.1692 20.2485 22.353C20.0395 22.5085 19.8605 22.6949 19.7126 22.9124C19.5363 23.1716 19.3331 23.4051 19.1029 23.6119C18.891 23.8022 18.6821 23.9959 18.4766 24.1926C18.2715 24.3889 18.0703 24.5893 17.8731 24.7934C17.6646 25.0091 17.4407 25.2093 17.2019 25.3942C16.9838 25.5629 16.7814 25.7471 16.5949 25.9459C16.3808 26.174 16.1394 26.3652 15.8712 26.5177C15.6273 26.6563 15.3816 26.7974 15.1344 26.941C14.8938 27.0806 14.659 27.2318 14.4307 27.3946C14.1714 27.5797 13.8878 27.7174 13.5821 27.8069C13.2962 27.8905 13.0055 27.9597 12.7106 28.014C12.4844 28.0557 12.303 28.1607 12.1568 28.3331C11.9656 28.5589 11.7643 28.7761 11.554 28.9842C11.3238 29.2121 11.0579 29.3862 10.7585 29.5035C10.4895 29.6089 10.216 29.7097 9.93882 29.8053C9.60508 29.9204 9.2674 29.9126 8.93892 29.7832C8.65631 29.6719 8.38907 29.5405 8.13791 29.3882C7.89326 29.2399 7.65003 29.0776 7.40939 28.9028C7.16321 28.7239 6.93409 28.5271 6.72162 28.313C6.5101 28.1 6.3135 27.8718 6.13329 27.628C5.97141 27.4091 5.79017 27.2091 5.58914 27.03C5.3709 26.8356 5.15718 26.6359 4.94971 26.4306C4.74351 26.2267 4.54069 26.0193 4.34135 25.8085C4.14417 25.6 3.94675 25.3915 3.74887 25.1842C3.53723 24.9625 3.35439 24.7224 3.20128 24.464C3.04975 24.2082 2.92291 23.9363 2.82079 23.6499C2.70789 23.3331 2.68501 23.0065 2.75243 22.6755C2.81442 22.3714 2.91067 22.0771 3.04176 21.7937C3.18141 21.4919 3.38174 21.2348 3.63977 21.0258C3.82222 20.8781 3.92926 20.7044 3.97329 20.5003C4.02709 20.251 4.05632 19.9912 4.06099 19.7207C4.06584 19.4378 4.06366 19.1539 4.05478 18.8707C4.04549 18.5744 4.05124 18.2777 4.07135 17.9813C4.09169 17.6817 4.13229 17.3844 4.19288 17.0905C4.25343 16.7969 4.33372 16.509 4.4325 16.2266C4.52744 15.9553 4.62243 15.6837 4.71769 15.4125C4.81299 15.1411 4.90841 14.8695 5.00426 14.5983C5.10124 14.324 5.20362 14.0515 5.31155 13.7814C5.41858 13.5137 5.52789 13.2463 5.63817 12.9797C5.75137 12.7062 5.87819 12.4379 6.01866 12.1753C6.15195 11.926 6.27429 11.6751 6.38533 11.4233C6.51372 11.1322 6.69568 10.8757 6.92947 10.6554C7.18074 10.4187 7.48441 10.2798 7.83131 10.2411C8.17635 10.2027 8.50431 10.2672 8.80565 10.4337C9.09588 10.5942 9.33079 10.8125 9.50447 11.0884C9.67837 11.3646 9.77098 11.6678 9.78138 11.9923C9.79082 12.2892 9.7673 12.5886 9.71025 12.8893C9.68598 13.0171 9.67805 13.1151 9.67918 13.1883C9.68278 13.1849 9.68719 13.1815 9.69092 13.1779C9.8987 12.9757 10.11 12.7765 10.3241 12.5806C10.5254 12.3965 10.7111 12.196 10.8807 11.9798C11.0624 11.7483 11.2501 11.5224 11.4442 11.3031C11.6412 11.0806 11.8502 10.8692 12.0698 10.6692C12.2801 10.4777 12.4867 10.2822 12.6899 10.0836C12.8936 9.88469 13.0952 9.68318 13.2934 9.47873C13.494 9.27177 13.6954 9.06469 13.8983 8.86001C14.1079 8.64864 14.3303 8.44993 14.5633 8.26408C14.7944 8.07979 15.0315 7.90703 15.2753 7.74687C15.5538 7.56386 15.8639 7.46719 16.1992 7.45685C16.5226 7.4469 16.836 7.50216 17.1356 7.62258C17.4389 7.7446 17.7008 7.9288 17.9179 8.17293C18.1227 8.40312 18.2645 8.66645 18.3426 8.95945C18.542 8.76351 18.7683 8.59422 19.02 8.45191C19.2868 8.30115 19.5604 8.18133 19.8404 8.09283C20.1335 8.00019 20.4376 7.96243 20.7498 7.98027C21.07 7.99862 21.3711 8.08571 21.6503 8.23991C21.7734 8.30794 21.8709 8.36447 21.9368 8.40771C21.9676 8.42788 22.0023 8.45229 22.0308 8.47815Z" fill="#1A1C20"/>
<path d="M18.0026 9.39207C18.129 9.51744 18.1299 9.72147 18.0046 9.84787L17.9709 9.88217C17.668 10.2235 17.4062 10.4843 17.1883 10.6516C17.0142 10.7853 16.8604 10.9386 16.7265 11.1121C16.5709 11.3138 16.4085 11.5092 16.2397 11.6978C16.0653 11.8927 15.8765 12.0738 15.6738 12.2407C15.4915 12.3908 15.3172 12.5485 15.151 12.714C14.9848 12.8795 14.8265 13.0534 14.6761 13.2351C14.5103 13.4353 14.3327 13.6237 14.1431 13.8004C13.9545 13.9761 13.7553 14.1413 13.5458 14.2954C13.3777 14.4192 13.2359 14.5692 13.12 14.7469C12.9744 14.9703 12.8232 15.1556 12.6636 15.2839C12.6014 15.3338 12.5492 15.3748 12.5092 15.4033C12.4907 15.4165 12.4662 15.4329 12.4413 15.4468C12.4309 15.4526 12.4049 15.4668 12.371 15.4775C12.355 15.4825 12.3189 15.4931 12.2721 15.4933C12.2274 15.4935 12.1263 15.4837 12.0405 15.3977L12.0316 15.3881C12.0316 15.3881 11.8695 15.2879 11.8694 15.2258C11.8692 15.1637 11.9469 15.087 11.9469 15.087C11.9601 15.0305 11.9873 14.9767 12.0313 14.9326L12.0653 14.8987L12.3364 15.1025L12.4 15.0857C12.3387 15.0241 12.6504 15.0534 12.6005 15.0461L12.2595 14.7816C12.3441 14.7136 12.4519 14.5909 12.5798 14.3947C12.7374 14.1529 12.9325 13.946 13.1636 13.776C13.3532 13.6364 13.533 13.4873 13.7031 13.3287C13.8723 13.1711 14.0313 13.003 14.1794 12.8241C14.3429 12.6267 14.5151 12.4376 14.6959 12.2575C14.8766 12.0775 15.0661 11.9057 15.2641 11.7427C15.4418 11.5964 15.607 11.4382 15.7595 11.2677C15.9178 11.0909 16.0699 10.9077 16.216 10.7183C16.3839 10.5006 16.5773 10.3077 16.7955 10.1401C16.967 10.0084 17.2009 9.77944 17.5006 9.44088L17.5066 9.43428L17.5468 9.39405C17.6722 9.26768 17.8762 9.26675 18.0026 9.39207ZM12.6005 15.0461C12.5813 15.0432 12.4717 15.1737 12.4597 15.1737C12.4148 15.1739 12.3343 15.15 12.3209 15.1543C12.2929 15.1631 12.0676 14.8974 12.0653 14.8987C12.058 14.9027 12.1438 14.8525 12.1573 14.8429C12.1816 14.8256 12.1997 14.8297 12.2595 14.7816L12.6005 15.0461Z" fill="#F3F4F5"/>
<path d="M21.8811 11.2524C22.0079 11.3774 22.0094 11.5814 21.8844 11.7082L21.8587 11.734C21.5536 12.0808 21.2897 12.3454 21.0708 12.5146C20.8976 12.6485 20.7446 12.8021 20.6113 12.976C20.4564 13.1783 20.2947 13.3744 20.1265 13.5638C19.9526 13.7596 19.7646 13.9414 19.5629 14.109C19.3815 14.2596 19.2082 14.4184 19.0427 14.5849C18.8773 14.7513 18.7198 14.9255 18.5705 15.108C18.4059 15.309 18.2295 15.4984 18.0411 15.6762C17.8537 15.8532 17.6558 16.0199 17.4474 16.1756C17.2803 16.3005 17.1399 16.4512 17.0256 16.6297C16.8748 16.8652 16.6956 17.075 16.489 17.258C16.3174 17.41 16.1582 17.5744 16.0114 17.7508C15.8442 17.9517 15.674 18.116 15.5002 18.2171C15.4725 18.2333 15.4495 18.2477 15.4303 18.2593L15.397 18.2933C15.3549 18.336 15.3032 18.3628 15.2492 18.3771C15.2492 18.3771 15.1835 18.4014 15.1191 18.4016C15.0547 18.4018 14.9418 18.2973 14.9418 18.2973L14.9408 18.2969L14.9402 18.2956L14.9316 18.2877C14.8366 18.1941 14.8251 18.0741 14.8416 17.9925C14.8549 17.9268 14.8852 17.8821 14.8963 17.8665C14.9214 17.8314 14.9488 17.8083 14.9567 17.8016C14.9788 17.7827 15.0028 17.7661 15.02 17.7547C15.0582 17.7294 15.112 17.6972 15.1763 17.6597C15.2554 17.6137 15.3689 17.5153 15.516 17.3385C15.6837 17.137 15.8657 16.9492 16.0619 16.7755C16.223 16.6328 16.3631 16.4687 16.4824 16.2824C16.6381 16.0393 16.8313 15.8306 17.0612 15.6588C17.25 15.5177 17.4289 15.3673 17.5982 15.2076C17.7664 15.0487 17.9246 14.8795 18.0718 14.6997C18.2342 14.5012 18.4052 14.3112 18.5853 14.1301C18.7653 13.949 18.9542 13.7766 19.1513 13.6129C19.3279 13.4662 19.4922 13.307 19.6443 13.1357C19.8022 12.958 19.9539 12.7742 20.0995 12.5842C20.2667 12.366 20.4592 12.1725 20.6767 12.0044C20.8473 11.8725 21.0804 11.6431 21.3792 11.3032L21.3854 11.2963L21.3917 11.29L21.4253 11.2557C21.5503 11.1289 21.7543 11.1275 21.8811 11.2524Z" fill="#F3F4F5"/>
<path d="M22.3879 15.2831C22.5138 15.1572 22.7178 15.1572 22.8437 15.2831C22.9696 15.409 22.9696 15.613 22.8437 15.7389L22.8156 15.767C22.5088 16.1104 22.2436 16.3723 22.0238 16.5397C21.8492 16.6726 21.6951 16.8254 21.5607 16.9982C21.4043 17.1992 21.2414 17.3939 21.0719 17.5819C20.8967 17.7763 20.7071 17.9566 20.504 18.1228C20.3213 18.2723 20.1466 18.4296 19.9799 18.5948C19.8133 18.7599 19.6549 18.9333 19.5043 19.1146C19.3383 19.3144 19.16 19.5025 18.9703 19.6789C18.7818 19.8543 18.5827 20.0189 18.3734 20.173C18.1953 20.304 18.1041 20.4134 18.064 20.4942C18.0268 20.5693 17.9883 20.6408 17.9502 20.6944C17.9347 20.7163 17.8997 20.7643 17.846 20.8026C17.8188 20.822 17.7597 20.8587 17.6758 20.8659C17.5746 20.8746 17.4791 20.8367 17.412 20.7696L17.3034 20.6611L17.3084 20.6166C17.2707 20.5043 17.2952 20.3759 17.3846 20.2864L17.5152 20.1558C17.6217 19.9685 17.7893 19.8026 17.9914 19.6538C18.1812 19.5142 18.3613 19.365 18.5317 19.2066C18.701 19.0491 18.8598 18.881 19.0083 18.7023C19.1721 18.5052 19.3447 18.3168 19.5261 18.137C19.7074 17.9573 19.8975 17.7862 20.096 17.6238C20.274 17.4782 20.4394 17.3203 20.5927 17.1502C20.7517 16.9739 20.9046 16.7911 21.0515 16.6024C21.2202 16.3855 21.4144 16.1932 21.6333 16.0265C21.8052 15.8956 22.0401 15.668 22.3414 15.3303L22.3476 15.3234L22.3879 15.2831Z" fill="#F3F4F5"/>
<path d="M22.5937 0.726525C22.7637 0.779321 22.8589 0.960174 22.8061 1.13022L22.7949 1.16452C22.6869 1.61291 22.5761 1.96997 22.4591 2.22191C22.3665 2.42144 22.3006 2.62897 22.2609 2.84493C22.2148 3.09561 22.1594 3.34349 22.095 3.58866C22.0629 3.71107 22.0323 3.81466 22.0033 3.89539C21.9889 3.93552 21.9732 3.9758 21.9552 4.01214C21.9407 4.04134 21.9109 4.09733 21.8605 4.14572L21.784 4.2196L21.7791 4.21993C21.6987 4.28082 21.5917 4.30386 21.4882 4.27138C21.3183 4.21805 21.2237 4.0369 21.2771 3.86702L21.3949 3.68013L21.4166 3.61603C21.4323 3.56631 21.4511 3.50324 21.4717 3.42507C21.5319 3.19562 21.5835 2.9634 21.6267 2.7285C21.6763 2.45887 21.7591 2.19903 21.8747 1.95014C21.9652 1.7553 22.0646 1.44475 22.1702 1.00489L22.1728 0.994994L22.1761 0.98444L22.19 0.938926C22.2428 0.768885 22.4236 0.673735 22.5937 0.726525Z" fill="#1A1C20"/>
<path d="M29.3225 7.45581C29.2698 7.28577 29.0889 7.19062 28.9189 7.24341L28.8846 7.25462C28.4362 7.36259 28.0791 7.47337 27.8272 7.59037C27.6276 7.68302 27.4201 7.74888 27.2041 7.78859C26.9535 7.83469 26.7056 7.89013 26.4604 7.95449C26.338 7.98662 26.2344 8.01717 26.1537 8.04617C26.1135 8.0606 26.0733 8.07633 26.0369 8.09433C26.0077 8.10879 25.9517 8.13861 25.9034 8.18898L25.8295 8.2655L25.8291 8.27045C25.7683 8.3508 25.7452 8.45783 25.7777 8.56135C25.831 8.73123 26.0122 8.82576 26.182 8.77243L26.3798 8.66544L26.433 8.63292C26.4828 8.61723 26.5458 8.59835 26.624 8.57784C26.8535 8.51761 27.0857 8.46602 27.3206 8.42282C27.5902 8.37324 27.85 8.29039 28.0989 8.1748C28.2938 8.08433 28.6043 7.98488 29.0442 7.87929L29.0541 7.87665L29.0646 7.87335L29.1101 7.8595C29.2802 7.8067 29.3753 7.62585 29.3225 7.45581Z" fill="#1A1C20"/>
<path d="M26.8059 2.78717C26.9318 2.66127 27.1358 2.66127 27.2617 2.78717C27.3876 2.91307 27.3876 3.11707 27.2617 3.24298L27.2336 3.27101C26.9268 3.61442 26.6616 3.87633 26.4417 4.04377C26.2672 4.17667 26.1131 4.32939 25.9787 4.50221C25.8223 4.70322 25.6594 4.89792 25.4899 5.08598C25.3147 5.28036 25.1251 5.46068 24.922 5.62688C24.7341 5.78056 24.5992 5.89888 24.5126 5.98407C24.4644 6.03154 24.4295 6.06609 24.4078 6.08829C24.4064 6.08971 24.405 6.091 24.4038 6.09225L24.4078 6.09687L24.3738 6.13084C24.3569 6.14775 24.3381 6.16167 24.3187 6.17404C24.3187 6.17404 24.2025 6.2578 24.113 6.25079C24.0181 6.24335 23.9154 6.1282 23.9154 6.1282C23.843 6.05574 23.8244 5.97039 23.8217 5.91646C23.8191 5.86592 23.8289 5.82673 23.8346 5.80795C23.8458 5.7701 23.8617 5.74305 23.8662 5.73539C23.878 5.71548 23.8897 5.70084 23.8926 5.69713C23.9011 5.68647 23.9093 5.67751 23.9134 5.67305C23.9231 5.6624 23.9352 5.64953 23.9477 5.63677C23.9736 5.61035 24.0116 5.5727 24.0605 5.52464C24.168 5.41878 24.3208 5.28588 24.514 5.12787C24.6919 4.98226 24.8574 4.82429 25.0107 4.65425C25.1696 4.47789 25.3226 4.29517 25.4694 4.10643C25.6382 3.88951 25.8324 3.69722 26.0512 3.53057C26.2231 3.39967 26.4581 3.17201 26.7594 2.83433L26.7656 2.82741L26.8059 2.78717Z" fill="#1A1C20"/>
<path d="M16.4649 6.93504C16.7341 6.95449 16.9961 6.99743 17.2499 7.06424C17.5267 7.1371 17.7797 7.26321 18.0069 7.44065C18.2266 7.61224 18.4178 7.81565 18.5797 8.04934C18.6278 8.11865 18.6702 8.1864 18.7066 8.2513C18.8539 8.12345 19.0022 8.02479 19.1525 7.96398C19.3702 7.8759 19.5825 7.7764 19.7892 7.66547C20.0383 7.53178 20.3038 7.44242 20.584 7.39821C20.8837 7.35093 21.1791 7.38113 21.4641 7.48729C21.716 7.58115 21.9557 7.69661 22.1824 7.83385C22.3927 7.96117 22.5563 8.06867 22.6605 8.15242L22.6792 8.16735L22.6955 8.18507L22.7249 8.21679C22.8664 8.28326 22.9425 8.44416 22.897 8.59879C22.8467 8.76952 22.6676 8.86732 22.4968 8.81708L22.4511 8.80356L22.3653 8.77837L22.3051 8.7126L22.2407 8.64264C22.1688 8.58719 22.0413 8.5024 21.8485 8.38564C21.6569 8.26967 21.4537 8.17135 21.2388 8.09132C21.0572 8.02368 20.8742 8.0055 20.6847 8.03535C20.4756 8.06834 20.2792 8.13432 20.0942 8.23358C19.867 8.35556 19.6335 8.46466 19.3941 8.56148C19.2446 8.62196 19.0292 8.79468 18.7509 9.14358L18.7113 9.19303L18.6553 9.22428L18.6138 9.2476C18.4581 9.33406 18.2618 9.27776 18.1753 9.12213C18.1413 9.06072 18.1303 8.99322 18.138 8.92856L18.1777 8.79501L18.1749 8.63797L18.1777 8.63144C18.1555 8.58223 18.1155 8.5112 18.0499 8.41642C17.9238 8.23449 17.7769 8.07941 17.61 7.94906C17.4507 7.82466 17.2767 7.73814 17.0857 7.68786C16.8718 7.63155 16.6491 7.59492 16.4183 7.57825C16.235 7.56507 16.0683 7.60476 15.9094 7.70045C15.6933 7.8306 15.4791 7.95885 15.2676 8.08479C15.0846 8.1938 14.9198 8.32898 14.7727 8.49105C14.5817 8.70148 14.3626 8.87653 14.1169 9.01532C13.9156 9.129 13.7248 9.25706 13.5446 9.39872C13.3655 9.53948 13.1989 9.69425 13.0451 9.86328C12.8752 10.05 12.7004 10.2313 12.5213 10.4071C12.3417 10.5834 12.1562 10.7546 11.9648 10.9202C11.7925 11.0693 11.6346 11.2317 11.4914 11.4076C11.3426 11.5904 11.2022 11.7803 11.0702 11.9771C10.9208 12.1999 10.7503 12.4063 10.5595 12.5956C10.4294 12.7247 10.2718 12.977 10.0982 13.39L10.0837 13.4245L10.0618 13.4548L10.0403 13.4832L9.9612 13.5551L9.8808 13.6068C9.86879 13.6111 9.85633 13.6134 9.84395 13.6162C9.84008 13.6172 9.83621 13.6181 9.83229 13.619C9.8253 13.6203 9.81835 13.6214 9.8113 13.6222C9.80453 13.6232 9.79772 13.6251 9.79077 13.6255C9.785 13.6258 9.77924 13.6246 9.77352 13.6246C9.76494 13.6246 9.75644 13.6243 9.74786 13.6236C9.73436 13.6226 9.72123 13.6207 9.70822 13.618C9.70049 13.6165 9.693 13.6141 9.68536 13.612C9.67423 13.6088 9.66333 13.6056 9.65271 13.6012C9.64269 13.5972 9.63303 13.5924 9.62333 13.5873C9.6136 13.5821 9.60399 13.577 9.59487 13.5709C9.59114 13.5684 9.58687 13.5666 9.58321 13.5639C9.57965 13.5613 9.57685 13.5578 9.57342 13.5551C9.56269 13.5465 9.55267 13.5374 9.5431 13.5276C9.53783 13.5222 9.53254 13.5169 9.52771 13.5112C9.5198 13.5019 9.51261 13.4921 9.50579 13.4818C9.5004 13.4738 9.49546 13.4656 9.49086 13.4571C9.48597 13.4482 9.48137 13.4391 9.47733 13.4296C9.47284 13.4191 9.46901 13.4083 9.46567 13.3974C9.46306 13.3889 9.46105 13.3802 9.45914 13.3713C9.45653 13.3592 9.4543 13.3472 9.45308 13.3349C9.45264 13.3304 9.45147 13.326 9.45121 13.3214L9.44841 13.2733L9.49086 13.1118L9.56782 12.8853C9.57477 12.8564 9.58327 12.8252 9.59114 12.7915C9.64434 12.5636 9.68841 12.3338 9.72314 12.1026C9.7512 11.9157 9.73397 11.7318 9.6695 11.5466C9.60415 11.359 9.50231 11.1965 9.36212 11.0564C9.1999 10.8943 9.02441 10.7457 8.83599 10.61C8.68421 10.5008 8.5191 10.4432 8.33365 10.4347C8.09824 10.4239 7.86542 10.4274 7.63587 10.4449C7.46973 10.4577 7.32955 10.5206 7.20489 10.6418C7.02609 10.8155 6.84605 10.9882 6.66523 11.159C6.51484 11.3012 6.39422 11.4672 6.30281 11.6586C6.17535 11.9253 5.9986 12.1567 5.77481 12.3503C5.61406 12.4894 5.48569 12.6498 5.38814 12.8326C5.277 13.0408 5.17778 13.2538 5.09009 13.4711C5.00459 13.683 4.93654 13.8999 4.88673 14.1218C4.82944 14.3769 4.75258 14.6278 4.65631 14.8741C4.57661 15.0781 4.52636 15.2877 4.50519 15.5033C4.47991 15.7608 4.44008 16.016 4.38578 16.2688C4.34132 16.4757 4.33007 16.6868 4.35266 16.9026C4.38238 17.1866 4.36613 17.4677 4.30276 17.7441C4.25059 17.9716 4.21364 18.2003 4.19221 18.4302C4.17076 18.6605 4.16411 18.8918 4.17262 19.1238C4.18226 19.3861 4.17197 19.6476 4.14137 19.9074C4.10623 20.2055 3.99949 20.4781 3.82233 20.719C3.68269 20.9088 3.54794 21.1046 3.4184 21.3062C3.30212 21.4872 3.21488 21.6794 3.15674 21.8832C3.08961 22.1184 3.02134 22.3547 2.95151 22.5917C2.89613 22.7797 2.8647 23.0886 2.87361 23.5399L2.85767 23.6561L2.83715 23.7737L2.79983 23.8334C2.7542 24.0054 2.62869 23.9498 2.45663 23.9042C2.2846 23.8586 2.18206 23.6817 2.22761 23.5096L2.22901 23.5054C2.22255 23.0562 2.25205 22.6842 2.33302 22.4093C2.40234 22.174 2.47022 21.9394 2.53685 21.7059C2.61249 21.4409 2.72595 21.1913 2.87595 20.9578C3.01268 20.745 3.15495 20.5379 3.30273 20.337C3.41307 20.1869 3.47877 20.0201 3.50096 19.8318C3.52767 19.6051 3.53691 19.377 3.52848 19.1476C3.51894 18.8878 3.52589 18.6287 3.54994 18.3705C3.57402 18.1119 3.61553 17.855 3.67401 17.5999C3.72131 17.3937 3.73418 17.184 3.71179 16.9698C3.68223 16.6874 3.69664 16.4081 3.75563 16.1335C3.8048 15.9047 3.84096 15.6736 3.86385 15.4404C3.89084 15.1654 3.95495 14.8982 4.05601 14.6395C4.14058 14.4232 4.20794 14.2033 4.25798 13.9805C4.31548 13.7244 4.39361 13.4741 4.49213 13.23C4.58847 12.9912 4.69767 12.7573 4.81956 12.5289C4.95503 12.2752 5.13352 12.0524 5.35316 11.8624C5.5098 11.7269 5.63209 11.567 5.72117 11.3806C5.84626 11.1187 6.01355 10.8878 6.22258 10.6903C6.40122 10.5215 6.57907 10.3512 6.75571 10.1795C6.98652 9.95517 7.26736 9.82663 7.58689 9.80218C7.8431 9.7826 8.10197 9.7786 8.36303 9.79052C8.67397 9.80474 8.95943 9.90464 9.2124 10.0867C9.42873 10.2424 9.63079 10.4138 9.81783 10.6007C10.0269 10.8097 10.1809 11.0555 10.2782 11.3349C10.335 11.4982 10.3676 11.6641 10.3771 11.8316C10.4319 11.7623 10.4853 11.6917 10.5347 11.618C10.6777 11.4048 10.83 11.1987 10.9914 11.0004C11.1583 10.7954 11.3423 10.6062 11.5427 10.4328C11.724 10.2759 11.8998 10.1136 12.0698 9.94677C12.2401 9.77959 12.4062 9.60717 12.5679 9.4295C12.7457 9.23411 12.9386 9.05462 13.1458 8.89171C13.3519 8.72971 13.5702 8.58386 13.7997 8.4542C13.9849 8.34965 14.1497 8.2174 14.2951 8.05727C14.4843 7.84883 14.6989 7.67297 14.9378 7.53067C15.1484 7.40528 15.3616 7.27782 15.5768 7.1482C15.8493 6.98418 16.1483 6.9122 16.4649 6.93504Z" fill="white"/>
</g>
<defs>
<clipPath id="clip0_2030_2455">
<rect width="30" height="30" fill="white"/>
</clipPath>
</defs>
</svg>
