<svg width="30" height="30" viewBox="0 0 30 30" fill="none" xmlns="http://www.w3.org/2000/svg">
<g clip-path="url(#clip0_2030_2449)">
<path d="M3.37891 6.46262C3.37891 4.02746 3.37891 2.80989 4.13541 2.05338C4.89192 1.29688 6.1095 1.29688 8.54465 1.29688H21.4342C23.8693 1.29688 25.0869 1.29688 25.8434 2.05338C26.5999 2.80989 26.5999 4.02746 26.5999 6.46262V23.5741C26.5999 26.0093 26.5999 27.2269 25.8434 27.9834C25.0869 28.7399 23.8693 28.7399 21.4342 28.7399H8.54465C6.1095 28.7399 4.89192 28.7399 4.13541 27.9834C3.37891 27.2269 3.37891 26.0093 3.37891 23.5741V6.46262Z" fill="#1A1C20"/>
<path d="M14.3807 0.68804C14.959 0.664133 15.5381 0.678269 16.1161 0.724323C16.6604 0.767742 17.2064 0.790794 17.7505 0.792765C18.2947 0.794694 18.8406 0.772645 19.3849 0.732569C19.9601 0.69019 20.5369 0.679582 21.1125 0.696286C21.6895 0.71307 22.266 0.759839 22.8396 0.841417C23.374 0.91747 23.9155 0.964795 24.462 0.978715C25.1794 0.996938 25.7836 1.29446 26.2378 1.85033C26.648 2.35249 26.9273 2.92102 27.0649 3.55356C27.1968 4.16074 27.2257 4.77407 27.1577 5.38955C27.0985 5.9245 27.0792 6.45923 27.0971 6.99177C27.1158 7.54954 27.1351 8.10901 27.1535 8.66655C27.1718 9.219 27.1992 9.77279 27.2344 10.3253C27.2726 10.9256 27.2382 11.5268 27.1296 12.1254C27.0395 12.6223 27.036 13.1177 27.1255 13.6146C27.2343 14.2185 27.2608 14.8249 27.2022 15.4304C27.1508 15.962 27.1406 16.4935 27.17 17.0248C27.2028 17.6169 27.1759 18.2094 27.0892 18.8006C27.0157 19.301 27.0259 19.8043 27.1214 20.3059C27.235 20.9033 27.2747 21.5021 27.2426 22.1015C27.213 22.654 27.1909 23.2074 27.1779 23.7602C27.1647 24.3189 27.1526 24.879 27.1375 25.4391C27.1204 26.0704 26.9778 26.6694 26.7058 27.2269C26.4282 27.7953 26.026 28.2563 25.5072 28.6031C24.9898 28.9487 24.4057 29.149 23.7677 29.2047C23.1771 29.2562 22.5837 29.2503 21.9919 29.1845C21.4795 29.1276 20.9673 29.1376 20.4544 29.2167C19.8623 29.308 19.2677 29.3393 18.6745 29.3094C18.1162 29.2813 17.558 29.2493 16.9997 29.2167C16.4662 29.1854 15.9311 29.1926 15.3975 29.2369C14.8273 29.2841 14.2568 29.3095 13.6864 29.3135C13.1033 29.3176 12.5174 29.2816 11.935 29.2006C11.4334 29.1309 10.9324 29.1396 10.4296 29.2327C9.81225 29.3473 9.19096 29.3535 8.57302 29.2488C8.04285 29.159 7.51306 29.1131 6.9873 29.1119C6.41698 29.1106 5.84104 29.0812 5.25974 29.027C4.54074 28.9599 3.95098 28.6197 3.52435 28.03C3.11734 27.467 2.92061 26.8309 2.94341 26.1454C2.96164 25.5953 2.95113 25.0497 2.91496 24.511C2.87691 23.9441 2.85788 23.3761 2.85476 22.8078C2.85168 22.244 2.8588 21.6804 2.87455 21.1169C2.89012 20.5602 2.90299 20.003 2.91496 19.4463C2.92699 18.8867 2.94422 18.327 2.96361 17.7674C2.98191 17.2396 2.95503 16.7098 2.8828 16.1812C2.80216 15.5918 2.77642 14.9998 2.80611 14.4095C2.83294 13.8756 2.82235 13.3415 2.77807 12.8073C2.72888 12.2149 2.7405 11.6194 2.81023 11.0274C2.87291 10.4948 2.89421 9.96143 2.87868 9.42932C2.86228 8.86709 2.85584 8.30481 2.85476 7.74258C2.85371 7.19265 2.84051 6.64215 2.81436 6.09171C2.7868 5.51149 2.79617 4.92933 2.84239 4.34848C2.89177 3.73003 3.04549 3.13755 3.30253 2.57681C3.58792 1.95532 4.05419 1.50022 4.68292 1.23682C5.2396 1.00386 5.82328 0.858713 6.43027 0.801012C6.99164 0.747654 7.48327 0.712985 7.90344 0.692163C8.11203 0.681834 8.28698 0.677601 8.41593 0.683917C8.47548 0.686854 8.55424 0.693818 8.62951 0.712366C8.65122 0.717726 8.68554 0.736689 8.73052 0.756483H9.00718C9.10509 0.754474 9.22241 0.750377 9.36011 0.744526C9.94382 0.71974 10.5283 0.742134 11.1116 0.805135C11.6336 0.861456 12.1556 0.861236 12.6775 0.809258C13.245 0.752709 13.8131 0.711531 14.3807 0.68804ZM14.4249 1.72128C13.8771 1.74393 13.3265 1.78377 12.7785 1.83837C12.1858 1.89729 11.5913 1.89414 10.9986 1.83012C10.4671 1.77278 9.93581 1.75524 9.40464 1.77776C9.12304 1.78973 8.89769 1.79451 8.73877 1.78972C8.66341 1.78744 8.58114 1.78217 8.5087 1.76952C8.47735 1.76401 8.4099 1.75008 8.33924 1.71715L8.331 1.71303C8.25175 1.71108 8.12908 1.71271 7.9558 1.72128C7.55536 1.74111 7.07857 1.77771 6.52716 1.83012C6.0222 1.87817 5.54186 2.00103 5.08245 2.19337C4.69464 2.35583 4.41721 2.6195 4.23887 3.00849C4.03258 3.45861 3.91125 3.93378 3.87151 4.43301C3.82883 4.97004 3.818 5.50747 3.84347 6.04347C3.87035 6.6094 3.88651 7.17709 3.88759 7.74258C3.88866 8.2951 3.89579 8.84875 3.91191 9.40128C3.92886 9.98394 3.90376 10.5665 3.83522 11.1486C3.77358 11.6719 3.76385 12.1957 3.80719 12.7187C3.85539 13.2992 3.86443 13.8812 3.83522 14.4619C3.80879 14.9874 3.83169 15.5135 3.90367 16.0398C3.98395 16.6266 4.01309 17.2161 3.99273 17.8036C3.9735 18.3585 3.96013 18.9153 3.9482 19.4702C3.93619 20.0284 3.9234 20.5871 3.90779 21.1454C3.89236 21.6975 3.88456 22.2517 3.88759 22.8041C3.89062 23.3509 3.91158 23.8971 3.9482 24.4426C3.98676 25.0168 3.99608 25.5971 3.97665 26.1817C3.96171 26.6315 4.08703 27.0419 4.3638 27.4248C4.62075 27.7793 4.94295 27.9634 5.35663 28.002C5.9077 28.0534 6.45264 28.0774 6.99101 28.0787C7.57511 28.08 8.1611 28.1329 8.7466 28.2321C9.24432 28.3163 9.74183 28.3122 10.24 28.2197C10.8519 28.1061 11.4669 28.0903 12.0801 28.1756C12.6129 28.2496 13.1465 28.284 13.6786 28.2803C14.223 28.2765 14.7684 28.2529 15.313 28.2077C15.8948 28.1595 16.4784 28.1535 17.0603 28.1875C17.6159 28.2201 18.1717 28.2482 18.7273 28.2762C19.2497 28.3024 19.7734 28.2765 20.2969 28.1958C20.8995 28.1028 21.5054 28.0883 22.109 28.1554C22.6329 28.2135 23.1573 28.2211 23.6791 28.1756C24.1528 28.134 24.5689 27.9873 24.9341 27.7435C25.2967 27.5008 25.5783 27.1793 25.7777 26.7709C25.9825 26.3505 26.0915 25.8983 26.1046 25.4111C26.1197 24.8523 26.1315 24.2936 26.1446 23.7363C26.1579 23.1731 26.1833 22.6079 26.2135 22.045C26.2409 21.5306 26.2029 21.0157 26.1046 20.4993C25.9877 19.8852 25.9739 19.2662 26.0642 18.6509C26.1411 18.1274 26.1658 17.6039 26.1368 17.0813C26.1045 16.4976 26.1166 15.9133 26.1731 15.3298C26.2224 14.8197 26.2005 14.3077 26.1084 13.796C25.9973 13.178 26.0004 12.5578 26.1125 11.9398C26.2062 11.4229 26.2339 10.9052 26.2011 10.39C26.1653 9.82771 26.1393 9.26514 26.1207 8.70284C26.1023 8.1451 26.083 7.58602 26.0642 7.02805C26.0446 6.44505 26.068 5.86085 26.1327 5.27658C26.1883 4.77302 26.16 4.27357 26.0519 3.77538C25.9491 3.30248 25.7457 2.8806 25.4384 2.50424C25.1744 2.18124 24.8537 2.0226 24.4377 2.01195C23.8512 1.99708 23.269 1.94823 22.6941 1.86641C22.1588 1.79026 21.6222 1.74479 21.084 1.72911C20.5435 1.7134 20.0019 1.72559 19.4616 1.76539C18.8913 1.80739 18.3209 1.82797 17.7505 1.826C17.1795 1.82398 16.6062 1.79898 16.0353 1.75344C15.4985 1.71061 14.9616 1.69911 14.4249 1.72128ZM8.03125 1.28753C8.03672 1.33618 8.04942 1.37961 8.06465 1.41864C8.0501 1.37898 8.03692 1.33566 8.03125 1.28712V1.28753ZM8.92843 0.902026C8.92497 0.898159 8.9236 0.889575 8.92018 0.885946C8.91403 0.879554 8.90243 0.879271 8.89627 0.873577C8.90609 0.883425 8.91863 0.89053 8.92843 0.902026Z" fill="#1A1C20"/>
<path d="M18.9715 3.12555C19.2152 3.06738 19.4603 3.04471 19.7062 3.06123C19.9191 3.07553 20.1325 3.08627 20.3453 3.09215C20.5568 3.09799 20.7683 3.09914 20.9798 3.09462C21.2136 3.08962 21.448 3.106 21.6812 3.14328C21.872 3.17378 22.0631 3.1768 22.2534 3.15441C22.4796 3.12784 22.7061 3.11461 22.9325 3.11235C23.1638 3.11009 23.396 3.12532 23.6268 3.15894C23.8114 3.1858 23.996 3.18159 24.1814 3.14575C24.4556 3.09271 24.7297 3.12998 24.9363 3.33046C25.1329 3.52155 25.1967 3.78169 25.1767 4.05406C25.1621 4.25365 25.1646 4.45341 25.1853 4.65314C25.2088 4.87854 25.2213 5.10418 25.2233 5.32973C25.2253 5.56374 25.2062 5.79782 25.1656 6.03106C25.1345 6.20944 25.1394 6.3882 25.1812 6.56788C25.2408 6.8245 25.2443 7.08296 25.1899 7.34013C25.1487 7.53457 25.1303 7.72851 25.1367 7.92148C25.1433 8.12249 25.1659 8.32531 25.2055 8.52715C25.2515 8.76156 25.2755 8.99714 25.2744 9.23261C25.2733 9.46581 25.2516 9.68792 25.2076 9.89642C25.1766 10.0429 25.105 10.1782 24.9808 10.277C24.8594 10.3734 24.7114 10.4156 24.5644 10.4262C24.3418 10.4424 24.1191 10.4515 23.8965 10.453C23.6761 10.4545 23.4555 10.4517 23.2351 10.444C23.0194 10.4364 22.8031 10.4296 22.5874 10.4238C22.3693 10.4179 22.1508 10.4089 21.9327 10.3994C21.7366 10.3909 21.5395 10.4036 21.3427 10.4374C21.1049 10.4781 20.8667 10.4924 20.6281 10.4774C20.4274 10.4647 20.2254 10.4676 20.0245 10.4885C19.7844 10.5134 19.5432 10.5082 19.3034 10.4728C19.1042 10.4435 18.905 10.4322 18.7064 10.4394C18.4868 10.4475 18.2672 10.4525 18.0475 10.453C17.8369 10.4535 17.6257 10.4595 17.415 10.4728C17.1904 10.487 16.9652 10.492 16.7405 10.4864C16.5241 10.481 16.3067 10.4765 16.0903 10.4708C15.8748 10.465 15.658 10.4604 15.4426 10.4572C15.2318 10.4539 15.0209 10.4568 14.8101 10.4662C14.5935 10.4759 14.3769 10.4839 14.1603 10.493C13.9393 10.5023 13.7175 10.506 13.4965 10.5042C13.2788 10.5023 13.0599 10.5003 12.8422 10.4951C12.6138 10.4897 12.3845 10.4687 12.1565 10.4349C11.9566 10.4053 11.7568 10.3932 11.5574 10.3994C11.3505 10.4059 11.1432 10.4231 10.9361 10.4506C10.7077 10.4809 10.4791 10.497 10.2504 10.4976C10.0251 10.498 9.79905 10.4888 9.57383 10.4683C9.36238 10.449 9.15069 10.4345 8.93929 10.4262C8.72435 10.4179 8.50856 10.4108 8.29362 10.406C8.07693 10.4012 7.8601 10.3956 7.64341 10.3904C7.43347 10.3853 7.22337 10.388 7.01341 10.3974C6.79102 10.4073 6.56789 10.4123 6.34548 10.4085C6.12538 10.4047 5.90422 10.396 5.68414 10.3838C5.44011 10.3701 5.20957 10.3131 5.036 10.1747C4.83851 10.0173 4.76168 9.77091 4.74244 9.51999C4.72497 9.29093 4.7245 9.06095 4.7379 8.83185C4.75036 8.61953 4.75704 8.40549 4.76017 8.19319C4.76329 7.98021 4.76185 7.76709 4.75769 7.55411C4.75344 7.33619 4.75228 7.1173 4.7511 6.89937C4.74988 6.66993 4.76514 6.44075 4.79562 6.21165C4.82138 6.01814 4.82211 5.82364 4.80016 5.6303C4.77419 5.40121 4.76298 5.17191 4.76882 4.94258C4.77429 4.72928 4.77777 4.51432 4.77583 4.30103C4.77386 4.0828 4.77402 3.878 4.7779 3.68669C4.7798 3.59307 4.78161 3.52195 4.78243 3.47518C4.78284 3.45171 4.7823 3.43254 4.78243 3.42158L4.78449 3.42859C4.7847 3.43181 4.78515 3.44138 4.78697 3.45292C4.78769 3.45752 4.79033 3.47648 4.7981 3.49951C4.80139 3.50925 4.81129 3.53867 4.83356 3.57084C4.84772 3.5911 4.90576 3.66045 5.00961 3.68216C4.78888 3.42104 5.00134 3.13291 5.02734 3.12555C5.03236 3.1249 5.04086 3.12575 5.04301 3.12555L5.04507 3.12349H5.07187C5.08535 3.12276 5.10717 3.12039 5.13413 3.11895C5.18813 3.11607 5.26917 3.1115 5.37697 3.10576C5.61148 3.09327 5.84627 3.10291 6.08037 3.13462C6.27257 3.16065 6.46508 3.16315 6.65718 3.13915C6.88034 3.11129 7.10389 3.09054 7.32718 3.07896C7.558 3.06701 7.78877 3.07362 8.01944 3.09669C8.227 3.11745 8.43542 3.12709 8.64284 3.12802C8.84984 3.12892 9.05707 3.12034 9.26419 3.10122C9.49252 3.08013 9.72139 3.07278 9.94985 3.08102C10.1775 3.08927 10.4062 3.11116 10.6335 3.14575C10.8157 3.17347 10.9977 3.16881 11.181 3.13008C11.4227 3.07898 11.6659 3.05993 11.9091 3.07648C12.111 3.09023 12.3129 3.0893 12.5148 3.07236C12.7543 3.05221 12.995 3.06125 13.2339 3.09875C13.4316 3.12978 13.6292 3.1404 13.8263 3.13214C14.0426 3.12302 14.2599 3.11472 14.4761 3.10576C14.6888 3.09694 14.9025 3.08481 15.1152 3.06782C15.3612 3.04817 15.6083 3.06547 15.8524 3.12101C16.0273 3.16072 16.2007 3.16051 16.3756 3.12101C16.6231 3.06516 16.8723 3.05338 17.1215 3.08349C17.3201 3.10758 17.5197 3.11253 17.7181 3.09875C17.9588 3.08203 18.1995 3.09502 18.4392 3.13915C18.6163 3.17175 18.7931 3.16814 18.9715 3.12555ZM19.6683 3.63103C19.4811 3.61846 19.2924 3.6349 19.103 3.6801C18.8488 3.74068 18.5925 3.74681 18.337 3.69989C18.1438 3.66431 17.9503 3.65318 17.7581 3.66649C17.5237 3.68278 17.2888 3.67709 17.0547 3.64876C16.8711 3.62649 16.6854 3.63578 16.5001 3.67762C16.2424 3.73569 15.9831 3.7362 15.7254 3.67762C15.5366 3.63467 15.3491 3.62071 15.1622 3.63557C14.942 3.65316 14.7211 3.66643 14.5009 3.67556C14.2844 3.68454 14.0672 3.69322 13.8507 3.70236C13.6152 3.71226 13.3796 3.69923 13.1448 3.66237C12.9508 3.63193 12.7573 3.62386 12.5639 3.6401C12.3332 3.65951 12.1019 3.66238 11.8712 3.6467C11.6815 3.6338 11.4905 3.64631 11.2993 3.68669C11.0496 3.73949 10.7972 3.74714 10.5465 3.70896C10.3409 3.67772 10.1352 3.65868 9.93006 3.65124C9.72606 3.64385 9.52191 3.65014 9.31779 3.66897C9.09243 3.68978 8.86625 3.6988 8.64078 3.69783C8.41541 3.69682 8.18901 3.68487 7.96378 3.66237C7.76151 3.64214 7.55815 3.63828 7.35604 3.64876C7.14646 3.65964 6.93575 3.67822 6.72604 3.70442C6.48564 3.73436 6.2448 3.73235 6.0045 3.69989C5.80574 3.67298 5.60625 3.66503 5.4079 3.67556C5.3871 3.67667 5.36649 3.67662 5.3477 3.67762C5.34757 3.684 5.34784 3.69122 5.3477 3.69783C5.34394 3.88319 5.3437 4.08297 5.34564 4.29691C5.34763 4.5165 5.34467 4.73618 5.33904 4.95577C5.33384 5.15873 5.34283 5.36278 5.36584 5.56598C5.39305 5.80574 5.39072 6.04751 5.35883 6.2871C5.3318 6.49052 5.32021 6.69424 5.32131 6.89731C5.32249 7.11244 5.32371 7.32785 5.32791 7.54298C5.3322 7.76261 5.3332 7.98222 5.32997 8.20185C5.32673 8.42255 5.31859 8.64456 5.30565 8.86524C5.29376 9.0686 5.29675 9.27206 5.31224 9.47546C5.32612 9.65738 5.37397 9.71487 5.39223 9.72944C5.43476 9.76294 5.52983 9.8035 5.71754 9.81396C5.9302 9.8258 6.14397 9.83466 6.35661 9.83828C6.56656 9.84184 6.77665 9.83901 6.98661 9.82963C7.20958 9.81963 7.43362 9.81727 7.65661 9.82262C7.87302 9.82782 8.09041 9.83144 8.30681 9.83622C8.5248 9.84105 8.74357 9.84753 8.96155 9.85601C9.18272 9.86463 9.40384 9.88039 9.62495 9.90054C9.83264 9.91948 10.0408 9.92779 10.2484 9.92734C10.4521 9.92689 10.6565 9.91441 10.8606 9.88735C11.0865 9.85735 11.3136 9.83874 11.5397 9.83169C11.7734 9.82441 12.0079 9.8371 12.241 9.87168C12.4459 9.90203 12.6509 9.92041 12.8554 9.92528C13.0703 9.9304 13.286 9.93209 13.501 9.93394C13.7125 9.93575 13.9241 9.93418 14.1356 9.92528C14.3519 9.91617 14.5694 9.90608 14.7858 9.89642C15.0077 9.88653 15.2297 9.88397 15.4516 9.88735C15.669 9.89066 15.8866 9.89478 16.1039 9.90054C16.3203 9.90628 16.5377 9.91077 16.7541 9.91621C16.9623 9.92143 17.1714 9.91824 17.3796 9.90508C17.6015 9.89107 17.8235 9.88335 18.0455 9.88281C18.2587 9.8823 18.4733 9.87743 18.6866 9.86962C18.9205 9.86111 19.1546 9.87515 19.3879 9.90961C19.581 9.93809 19.7741 9.94287 19.9668 9.92281C20.1989 9.89867 20.4313 9.8929 20.6636 9.90755C20.8577 9.91978 21.0521 9.90965 21.247 9.87622C21.4832 9.83571 21.72 9.82141 21.957 9.83169C22.172 9.84103 22.3877 9.84816 22.6027 9.85395C22.8199 9.85981 23.0381 9.86654 23.2553 9.87416C23.4675 9.88158 23.6798 9.88426 23.8919 9.88281C24.1023 9.88137 24.314 9.87373 24.5244 9.85849C24.5899 9.85362 24.6165 9.83766 24.6246 9.83169C24.6281 9.82894 24.6405 9.81808 24.6489 9.77809C24.6839 9.61204 24.7036 9.42977 24.7046 9.23055L24.6914 8.93204C24.6819 8.83347 24.6663 8.73487 24.6469 8.636C24.6015 8.40497 24.5742 8.17313 24.5665 7.94127C24.5586 7.70126 24.5807 7.46075 24.6312 7.22221C24.6683 7.04691 24.6675 6.87278 24.6267 6.69693C24.5677 6.44362 24.56 6.18796 24.6044 5.93334C24.6393 5.73349 24.6552 5.53335 24.6535 5.33426C24.6517 5.12686 24.6392 4.91841 24.6176 4.71086C24.5934 4.47795 24.5918 4.24464 24.6089 4.01159C24.6206 3.85168 24.5798 3.77957 24.5397 3.74029C24.5094 3.71087 24.4486 3.67411 24.2906 3.70442C24.043 3.75232 23.7932 3.75833 23.5448 3.72215C23.3427 3.69271 23.1407 3.6802 22.9391 3.68216C22.7331 3.68419 22.5265 3.69587 22.3202 3.72009C22.0776 3.74862 21.8343 3.74309 21.5921 3.70442C21.3923 3.67248 21.1922 3.66019 20.993 3.66443C20.772 3.66916 20.5506 3.66847 20.3296 3.66237C20.1094 3.65628 19.8885 3.64582 19.6683 3.63103ZM5.12506 3.13462V3.13008L5.06733 3.12349C5.08812 3.12349 5.10714 3.13096 5.12506 3.13462Z" fill="#F3F4F5"/>
<path d="M18.9715 11.5693C19.2152 11.5111 19.4603 11.4884 19.7062 11.505C19.9191 11.5193 20.1325 11.53 20.3453 11.5359C20.5568 11.5417 20.7683 11.5429 20.9798 11.5384C21.2136 11.5334 21.448 11.5497 21.6812 11.587C21.872 11.6175 22.0631 11.6205 22.2534 11.5981C22.4796 11.5716 22.7061 11.5583 22.9325 11.5561C23.1638 11.5538 23.396 11.569 23.6268 11.6027C23.8114 11.6295 23.996 11.6253 24.1814 11.5895C24.4556 11.5364 24.7297 11.5737 24.9363 11.7742C25.1329 11.9653 25.1967 12.2254 25.1767 12.4978C25.1621 12.6974 25.1646 12.8971 25.1853 13.0969C25.2088 13.3223 25.2213 13.5479 25.2233 13.7735C25.2253 14.0075 25.2062 14.2415 25.1656 14.4748C25.1345 14.6532 25.1394 14.8319 25.1812 15.0116C25.2408 15.2682 25.2443 15.5267 25.1899 15.7839C25.1487 15.9783 25.1303 16.1722 25.1367 16.3652C25.1433 16.5662 25.1659 16.769 25.2055 16.9709C25.2515 17.2053 25.2755 17.4409 25.2744 17.6763C25.2733 17.9095 25.2516 18.1316 25.2076 18.3401C25.1766 18.4867 25.105 18.6219 24.9808 18.7207C24.8594 18.8171 24.7114 18.8593 24.5644 18.87C24.3418 18.8861 24.1191 18.8952 23.8965 18.8968C23.6761 18.8983 23.4555 18.8954 23.2351 18.8877C23.0194 18.8801 22.8031 18.8733 22.5874 18.8675C22.3693 18.8616 22.1508 18.8526 21.9327 18.8432C21.7366 18.8346 21.5395 18.8473 21.3427 18.8811C21.1049 18.9218 20.8667 18.9361 20.6281 18.9211C20.4274 18.9084 20.2254 18.9113 20.0245 18.9322C19.7844 18.9572 19.5432 18.9519 19.3034 18.9165C19.1042 18.8872 18.905 18.8759 18.7064 18.8832C18.4868 18.8912 18.2672 18.8962 18.0475 18.8968C17.8369 18.8973 17.6257 18.9032 17.415 18.9165C17.1904 18.9307 16.9652 18.9358 16.7405 18.9302C16.5241 18.9247 16.3067 18.9202 16.0903 18.9145C15.8748 18.9088 15.658 18.9042 15.4426 18.9009C15.2318 18.8977 15.0209 18.9005 14.8101 18.91C14.5935 18.9196 14.3769 18.9276 14.1603 18.9368C13.9393 18.9461 13.7175 18.9498 13.4965 18.9479C13.2788 18.946 13.0599 18.944 12.8422 18.9388C12.6138 18.9334 12.3845 18.9124 12.1565 18.8786C11.9566 18.849 11.7568 18.8369 11.5574 18.8432C11.3505 18.8496 11.1432 18.8668 10.9361 18.8943C10.7077 18.9246 10.4791 18.9408 10.2504 18.9413C10.0251 18.9418 9.79905 18.9325 9.57383 18.912C9.36238 18.8927 9.15069 18.8782 8.93929 18.87C8.72435 18.8616 8.50856 18.8545 8.29362 18.8498C8.07693 18.845 7.8601 18.8393 7.64341 18.8341C7.43347 18.829 7.22337 18.8317 7.01341 18.8411C6.79102 18.8511 6.56789 18.856 6.34548 18.8522C6.12538 18.8485 5.90422 18.8397 5.68414 18.8275C5.44011 18.8138 5.20957 18.7568 5.036 18.6185C4.83851 18.461 4.76168 18.2146 4.74244 17.9637C4.72497 17.7347 4.7245 17.5047 4.7379 17.2756C4.75036 17.0633 4.75704 16.8492 4.76017 16.6369C4.76329 16.4239 4.76185 16.2108 4.75769 15.9978C4.75344 15.7799 4.75228 15.561 4.7511 15.3431C4.74988 15.1137 4.76514 14.8845 4.79562 14.6554C4.82138 14.4619 4.82211 14.2674 4.80016 14.074C4.77419 13.8449 4.76298 13.6156 4.76882 13.3863C4.77429 13.173 4.77777 12.958 4.77583 12.7448C4.77386 12.5265 4.77402 12.3217 4.7779 12.1304C4.7798 12.0368 4.78161 11.9657 4.78243 11.9189C4.78284 11.8954 4.7823 11.8763 4.78243 11.8653L4.78449 11.8723C4.7847 11.8755 4.78515 11.8851 4.78697 11.8966C4.78769 11.9012 4.79033 11.9202 4.7981 11.9432C4.80139 11.953 4.81129 11.9824 4.83356 12.0146C4.84772 12.0348 4.90576 12.1042 5.00961 12.1259C4.78888 11.8648 5.00134 11.5766 5.02734 11.5693C5.03236 11.5686 5.04086 11.5695 5.04301 11.5693L5.04507 11.5672H5.07187C5.08535 11.5665 5.10717 11.5641 5.13413 11.5627C5.18813 11.5598 5.26917 11.5552 5.37697 11.5495C5.61148 11.537 5.84627 11.5466 6.08037 11.5783C6.27257 11.6044 6.46508 11.6069 6.65718 11.5829C6.88034 11.555 7.10389 11.5343 7.32718 11.5227C7.558 11.5107 7.78877 11.5173 8.01944 11.5404C8.227 11.5612 8.43542 11.5708 8.64284 11.5717C8.84984 11.5726 9.05707 11.5641 9.26419 11.5449C9.49252 11.5239 9.72139 11.5165 9.94985 11.5247C10.1775 11.533 10.4062 11.5549 10.6335 11.5895C10.8157 11.6172 10.9977 11.6125 11.181 11.5738C11.4227 11.5227 11.6659 11.5037 11.9091 11.5202C12.111 11.534 12.3129 11.533 12.5148 11.5161C12.7543 11.4959 12.995 11.505 13.2339 11.5425C13.4316 11.5735 13.6292 11.5841 13.8263 11.5759C14.0426 11.5667 14.2599 11.5584 14.4761 11.5495C14.6888 11.5407 14.9025 11.5285 15.1152 11.5116C15.3612 11.4919 15.6083 11.5092 15.8524 11.5647C16.0273 11.6044 16.2007 11.6042 16.3756 11.5647C16.6231 11.5089 16.8723 11.4971 17.1215 11.5272C17.3201 11.5513 17.5197 11.5563 17.7181 11.5425C17.9588 11.5258 18.1995 11.5387 18.4392 11.5829C18.6163 11.6155 18.7931 11.6119 18.9715 11.5693ZM19.6683 12.0748C19.4811 12.0622 19.2924 12.0786 19.103 12.1238C18.8488 12.1844 18.5925 12.1905 18.337 12.1436C18.1438 12.108 17.9503 12.0969 17.7581 12.1102C17.5237 12.1265 17.2888 12.1208 17.0547 12.0925C16.8711 12.0702 16.6854 12.0795 16.5001 12.1213C16.2424 12.1794 15.9831 12.1799 15.7254 12.1213C15.5366 12.0784 15.3491 12.0644 15.1622 12.0793C14.942 12.0969 14.7211 12.1102 14.5009 12.1193C14.2844 12.1283 14.0672 12.137 13.8507 12.1461C13.6152 12.156 13.3796 12.143 13.1448 12.1061C12.9508 12.0757 12.7573 12.0676 12.5639 12.0838C12.3332 12.1032 12.1019 12.1061 11.8712 12.0904C11.6815 12.0775 11.4905 12.09 11.2993 12.1304C11.0496 12.1832 10.7972 12.1909 10.5465 12.1527C10.3409 12.1214 10.1352 12.1024 9.93006 12.095C9.72606 12.0876 9.52191 12.0939 9.31779 12.1127C9.09243 12.1335 8.86625 12.1425 8.64078 12.1416C8.41541 12.1406 8.18901 12.1286 7.96378 12.1061C7.76151 12.0859 7.55815 12.082 7.35604 12.0925C7.14646 12.1034 6.93575 12.1219 6.72604 12.1481C6.48564 12.1781 6.2448 12.1761 6.0045 12.1436C5.80574 12.1167 5.60625 12.1088 5.4079 12.1193C5.3871 12.1204 5.36649 12.1203 5.3477 12.1213C5.34757 12.1277 5.34784 12.1349 5.3477 12.1416C5.34394 12.3269 5.3437 12.5267 5.34564 12.7406C5.34763 12.9602 5.34467 13.1799 5.33904 13.3995C5.33384 13.6025 5.34283 13.8065 5.36584 14.0097C5.39305 14.2495 5.39072 14.4912 5.35883 14.7308C5.3318 14.9342 5.32021 15.138 5.32131 15.341C5.32249 15.5562 5.32371 15.7716 5.32791 15.9867C5.3322 16.2063 5.3332 16.4259 5.32997 16.6456C5.32673 16.8663 5.31859 17.0883 5.30565 17.309C5.29376 17.5123 5.29675 17.7158 5.31224 17.9192C5.32612 18.1011 5.37397 18.1586 5.39223 18.1732C5.43476 18.2067 5.52983 18.2472 5.71754 18.2577C5.9302 18.2695 6.14397 18.2784 6.35661 18.282C6.56656 18.2856 6.77665 18.2827 6.98661 18.2734C7.20958 18.2634 7.43362 18.261 7.65661 18.2663C7.87302 18.2715 8.09041 18.2752 8.30681 18.2799C8.5248 18.2848 8.74357 18.2913 8.96155 18.2997C9.18272 18.3084 9.40384 18.3241 9.62495 18.3443C9.83264 18.3632 10.0408 18.3715 10.2484 18.3711C10.4521 18.3706 10.6565 18.3581 10.8606 18.3311C11.0865 18.3011 11.3136 18.2825 11.5397 18.2754C11.7734 18.2681 12.0079 18.2808 12.241 18.3154C12.4459 18.3458 12.6509 18.3641 12.8554 18.369C13.0703 18.3741 13.286 18.3758 13.501 18.3777C13.7125 18.3795 13.9241 18.3779 14.1356 18.369C14.3519 18.3599 14.5694 18.3498 14.7858 18.3401C15.0077 18.3303 15.2297 18.3277 15.4516 18.3311C15.669 18.3344 15.8866 18.3385 16.1039 18.3443C16.3203 18.35 16.5377 18.3545 16.7541 18.3599C16.9623 18.3652 17.1714 18.362 17.3796 18.3488C17.6015 18.3348 17.8235 18.3271 18.0455 18.3265C18.2587 18.326 18.4733 18.3212 18.6866 18.3133C18.9205 18.3048 19.1546 18.3189 19.3879 18.3533C19.581 18.3818 19.7741 18.3866 19.9668 18.3665C20.1989 18.3424 20.4313 18.3366 20.6636 18.3513C20.8577 18.3635 21.0521 18.3534 21.247 18.3199C21.4832 18.2794 21.72 18.2651 21.957 18.2754C22.172 18.2848 22.3877 18.2919 22.6027 18.2977C22.8199 18.3035 23.0381 18.3103 23.2553 18.3179C23.4675 18.3253 23.6798 18.328 23.8919 18.3265C24.1023 18.3251 24.314 18.3175 24.5244 18.3022C24.5899 18.2973 24.6165 18.2814 24.6246 18.2754C24.6281 18.2727 24.6405 18.2618 24.6489 18.2218C24.6839 18.0558 24.7036 17.8735 24.7046 17.6743L24.6914 17.3758C24.6819 17.2772 24.6663 17.1786 24.6469 17.0797C24.6015 16.8487 24.5742 16.6169 24.5665 16.385C24.5586 16.145 24.5807 15.9045 24.6312 15.6659C24.6683 15.4906 24.6675 15.3165 24.6267 15.1407C24.5677 14.8873 24.56 14.6317 24.6044 14.3771C24.6393 14.1772 24.6552 13.9771 24.6535 13.778C24.6517 13.5706 24.6392 13.3621 24.6176 13.1546C24.5934 12.9217 24.5918 12.6884 24.6089 12.4553C24.6206 12.2954 24.5798 12.2233 24.5397 12.184C24.5094 12.1546 24.4486 12.1178 24.2906 12.1481C24.043 12.196 23.7932 12.2021 23.5448 12.1659C23.3427 12.1364 23.1407 12.1239 22.9391 12.1259C22.7331 12.1279 22.5265 12.1396 22.3202 12.1638C22.0776 12.1923 21.8343 12.1868 21.5921 12.1481C21.3923 12.1162 21.1922 12.1039 20.993 12.1082C20.772 12.1129 20.5506 12.1122 20.3296 12.1061C20.1094 12.1 19.8885 12.0896 19.6683 12.0748ZM5.12506 11.5783V11.5738L5.06733 11.5672C5.08812 11.5672 5.10714 11.5747 5.12506 11.5783Z" fill="#F3F4F5"/>
<path d="M18.9715 20.0136C19.2152 19.9554 19.4603 19.9328 19.7062 19.9493C19.9191 19.9636 20.1325 19.9743 20.3453 19.9802C20.5568 19.9861 20.7683 19.9872 20.9798 19.9827C21.2136 19.9777 21.448 19.9941 21.6812 20.0313C21.872 20.0618 22.0631 20.0649 22.2534 20.0425C22.4796 20.0159 22.7061 20.0027 22.9325 20.0004C23.1638 19.9981 23.396 20.0134 23.6268 20.047C23.8114 20.0739 23.996 20.0697 24.1814 20.0338C24.4556 19.9808 24.7297 20.018 24.9363 20.2185C25.1329 20.4096 25.1967 20.6698 25.1767 20.9421C25.1621 21.1417 25.1646 21.3415 25.1853 21.5412C25.2088 21.7666 25.2213 21.9922 25.2233 22.2178C25.2253 22.4518 25.2062 22.6859 25.1656 22.9191C25.1345 23.0975 25.1394 23.2763 25.1812 23.4559C25.2408 23.7126 25.2443 23.971 25.1899 24.2282C25.1487 24.4226 25.1303 24.6166 25.1367 24.8095C25.1433 25.0105 25.1659 25.2134 25.2055 25.4152C25.2515 25.6496 25.2755 25.8852 25.2744 26.1207C25.2733 26.3539 25.2516 26.576 25.2076 26.7845C25.1766 26.931 25.105 27.0662 24.9808 27.165C24.8594 27.2614 24.7114 27.3036 24.5644 27.3143C24.3418 27.3304 24.1191 27.3396 23.8965 27.3411C23.6761 27.3426 23.4555 27.3397 23.2351 27.332C23.0194 27.3245 22.8031 27.3176 22.5874 27.3118C22.3693 27.3059 22.1508 27.297 21.9327 27.2875C21.7366 27.279 21.5395 27.2917 21.3427 27.3254C21.1049 27.3662 20.8667 27.3804 20.6281 27.3654C20.4274 27.3528 20.2254 27.3556 20.0245 27.3766C19.7844 27.4015 19.5432 27.3963 19.3034 27.3609C19.1042 27.3315 18.905 27.3202 18.7064 27.3275C18.4868 27.3355 18.2672 27.3406 18.0475 27.3411C17.8369 27.3416 17.6257 27.3476 17.415 27.3609C17.1904 27.3751 16.9652 27.3801 16.7405 27.3745C16.5241 27.3691 16.3067 27.3646 16.0903 27.3588C15.8748 27.3531 15.658 27.3485 15.4426 27.3452C15.2318 27.342 15.0209 27.3449 14.8101 27.3543C14.5935 27.364 14.3769 27.372 14.1603 27.3811C13.9393 27.3904 13.7175 27.3941 13.4965 27.3922C13.2788 27.3903 13.0599 27.3883 12.8422 27.3831C12.6138 27.3777 12.3845 27.3568 12.1565 27.323C11.9566 27.2933 11.7568 27.2813 11.5574 27.2875C11.3505 27.2939 11.1432 27.3111 10.9361 27.3386C10.7077 27.3689 10.4791 27.3851 10.2504 27.3856C10.0251 27.3861 9.79905 27.3769 9.57383 27.3563C9.36238 27.3371 9.15069 27.3225 8.93929 27.3143C8.72435 27.3059 8.50856 27.2988 8.29362 27.2941C8.07693 27.2893 7.8601 27.2836 7.64341 27.2784C7.43347 27.2734 7.22337 27.276 7.01341 27.2854C6.79102 27.2954 6.56789 27.3004 6.34548 27.2966C6.12538 27.2928 5.90422 27.2841 5.68414 27.2718C5.44011 27.2581 5.20957 27.2011 5.036 27.0628C4.83851 26.9053 4.76168 26.659 4.74244 26.408C4.72497 26.179 4.7245 25.949 4.7379 25.7199C4.75036 25.5076 4.75704 25.2936 4.76017 25.0812C4.76329 24.8683 4.76185 24.6552 4.75769 24.4422C4.75344 24.2243 4.75228 24.0054 4.7511 23.7874C4.74988 23.558 4.76514 23.3288 4.79562 23.0997C4.82138 22.9062 4.82211 22.7117 4.80016 22.5184C4.77419 22.2893 4.76298 22.06 4.76882 21.8306C4.77429 21.6173 4.77777 21.4024 4.77583 21.1891C4.77386 20.9709 4.77402 20.7661 4.7779 20.5748C4.7798 20.4811 4.78161 20.41 4.78243 20.3632C4.78284 20.3398 4.7823 20.3206 4.78243 20.3096L4.78449 20.3167C4.7847 20.3199 4.78515 20.3294 4.78697 20.341C4.78769 20.3456 4.79033 20.3645 4.7981 20.3876C4.80139 20.3973 4.81129 20.4267 4.83356 20.4589C4.84772 20.4792 4.90576 20.5485 5.00961 20.5702C4.78888 20.3091 5.00134 20.021 5.02734 20.0136C5.03236 20.013 5.04086 20.0138 5.04301 20.0136L5.04507 20.0115H5.07187C5.08535 20.0108 5.10717 20.0085 5.13413 20.007C5.18813 20.0041 5.26917 19.9996 5.37697 19.9938C5.61148 19.9813 5.84627 19.991 6.08037 20.0227C6.27257 20.0487 6.46508 20.0512 6.65718 20.0272C6.88034 19.9993 7.10389 19.9786 7.32718 19.967C7.558 19.9551 7.78877 19.9617 8.01944 19.9847C8.227 20.0055 8.43542 20.0152 8.64284 20.0161C8.84984 20.017 9.05707 20.0084 9.26419 19.9893C9.49252 19.9682 9.72139 19.9608 9.94985 19.9691C10.1775 19.9773 10.4062 19.9992 10.6335 20.0338C10.8157 20.0615 10.9977 20.0569 11.181 20.0181C11.4227 19.967 11.6659 19.948 11.9091 19.9645C12.111 19.9783 12.3129 19.9774 12.5148 19.9604C12.7543 19.9403 12.995 19.9493 13.2339 19.9868C13.4316 20.0178 13.6292 20.0285 13.8263 20.0202C14.0426 20.0111 14.2599 20.0028 14.4761 19.9938C14.6888 19.985 14.9025 19.9729 15.1152 19.9559C15.3612 19.9362 15.6083 19.9535 15.8524 20.0091C16.0273 20.0488 16.2007 20.0486 16.3756 20.0091C16.6231 19.9532 16.8723 19.9414 17.1215 19.9716C17.3201 19.9956 17.5197 20.0006 17.7181 19.9868C17.9588 19.9701 18.1995 19.9831 18.4392 20.0272C18.6163 20.0598 18.7931 20.0562 18.9715 20.0136ZM19.6683 20.5191C19.4811 20.5065 19.2924 20.523 19.103 20.5682C18.8488 20.6287 18.5925 20.6349 18.337 20.5879C18.1438 20.5524 17.9503 20.5412 17.7581 20.5546C17.5237 20.5708 17.2888 20.5652 17.0547 20.5368C16.8711 20.5146 16.6854 20.5238 16.5001 20.5657C16.2424 20.6238 15.9831 20.6243 15.7254 20.5657C15.5366 20.5227 15.3491 20.5088 15.1622 20.5236C14.942 20.5412 14.7211 20.5545 14.5009 20.5636C14.2844 20.5726 14.0672 20.5813 13.8507 20.5904C13.6152 20.6003 13.3796 20.5873 13.1448 20.5504C12.9508 20.52 12.7573 20.5119 12.5639 20.5282C12.3332 20.5476 12.1019 20.5504 11.8712 20.5348C11.6815 20.5219 11.4905 20.5344 11.2993 20.5748C11.0496 20.6275 10.7972 20.6352 10.5465 20.597C10.3409 20.5658 10.1352 20.5467 9.93006 20.5393C9.72606 20.5319 9.52191 20.5382 9.31779 20.557C9.09243 20.5778 8.86625 20.5869 8.64078 20.5859C8.41541 20.5849 8.18901 20.5729 7.96378 20.5504C7.76151 20.5302 7.55815 20.5263 7.35604 20.5368C7.14646 20.5477 6.93575 20.5663 6.72604 20.5925C6.48564 20.6224 6.2448 20.6204 6.0045 20.5879C5.80574 20.561 5.60625 20.5531 5.4079 20.5636C5.3871 20.5647 5.36649 20.5647 5.3477 20.5657C5.34757 20.5721 5.34784 20.5793 5.3477 20.5859C5.34394 20.7713 5.3437 20.971 5.34564 21.185C5.34763 21.4046 5.34467 21.6242 5.33904 21.8438C5.33384 22.0468 5.34283 22.2508 5.36584 22.454C5.39305 22.6938 5.39072 22.9356 5.35883 23.1752C5.3318 23.3786 5.32021 23.5823 5.32131 23.7854C5.32249 24.0005 5.32371 24.2159 5.32791 24.431C5.3322 24.6507 5.3332 24.8703 5.32997 25.0899C5.32673 25.3106 5.31859 25.5326 5.30565 25.7533C5.29376 25.9567 5.29675 26.1601 5.31224 26.3635C5.32612 26.5454 5.37397 26.6029 5.39223 26.6175C5.43476 26.651 5.52983 26.6916 5.71754 26.702C5.9302 26.7139 6.14397 26.7227 6.35661 26.7263C6.56656 26.7299 6.77665 26.7271 6.98661 26.7177C7.20958 26.7077 7.43362 26.7053 7.65661 26.7107C7.87302 26.7159 8.09041 26.7195 8.30681 26.7243C8.5248 26.7291 8.74357 26.7356 8.96155 26.7441C9.18272 26.7527 9.40384 26.7684 9.62495 26.7886C9.83264 26.8075 10.0408 26.8158 10.2484 26.8154C10.4521 26.815 10.6565 26.8025 10.8606 26.7754C11.0865 26.7454 11.3136 26.7268 11.5397 26.7197C11.7734 26.7125 12.0079 26.7252 12.241 26.7597C12.4459 26.7901 12.6509 26.8085 12.8554 26.8133C13.0703 26.8185 13.286 26.8201 13.501 26.822C13.7125 26.8238 13.9241 26.8222 14.1356 26.8133C14.3519 26.8042 14.5694 26.7941 14.7858 26.7845C15.0077 26.7746 15.2297 26.772 15.4516 26.7754C15.669 26.7787 15.8866 26.7828 16.1039 26.7886C16.3203 26.7943 16.5377 26.7988 16.7541 26.8043C16.9623 26.8095 17.1714 26.8063 17.3796 26.7931C17.6015 26.7791 17.8235 26.7714 18.0455 26.7709C18.2587 26.7704 18.4733 26.7655 18.6866 26.7577C18.9205 26.7492 19.1546 26.7632 19.3879 26.7977C19.581 26.8262 19.7741 26.8309 19.9668 26.8109C20.1989 26.7867 20.4313 26.781 20.6636 26.7956C20.8577 26.8078 21.0521 26.7977 21.247 26.7643C21.4832 26.7238 21.72 26.7095 21.957 26.7197C22.172 26.7291 22.3877 26.7362 22.6027 26.742C22.8199 26.7479 23.0381 26.7546 23.2553 26.7622C23.4675 26.7696 23.6798 26.7723 23.8919 26.7709C24.1023 26.7694 24.314 26.7618 24.5244 26.7465C24.5899 26.7417 24.6165 26.7257 24.6246 26.7197C24.6281 26.717 24.6405 26.7061 24.6489 26.6661C24.6839 26.5001 24.7036 26.3178 24.7046 26.1186L24.6914 25.8201C24.6819 25.7215 24.6663 25.6229 24.6469 25.5241C24.6015 25.293 24.5742 25.0612 24.5665 24.8293C24.5586 24.5893 24.5807 24.3488 24.6312 24.1103C24.6683 23.935 24.6675 23.7608 24.6267 23.585C24.5677 23.3317 24.56 23.076 24.6044 22.8214C24.6393 22.6216 24.6552 22.4214 24.6535 22.2223C24.6517 22.0149 24.6392 21.8065 24.6176 21.5989C24.5934 21.366 24.5918 21.1327 24.6089 20.8997C24.6206 20.7397 24.5798 20.6676 24.5397 20.6284C24.5094 20.5989 24.4486 20.5622 24.2906 20.5925C24.043 20.6404 23.7932 20.6464 23.5448 20.6102C23.3427 20.5808 23.1407 20.5683 22.9391 20.5702C22.7331 20.5722 22.5265 20.5839 22.3202 20.6082C22.0776 20.6367 21.8343 20.6312 21.5921 20.5925C21.3923 20.5605 21.1922 20.5483 20.993 20.5525C20.772 20.5572 20.5506 20.5565 20.3296 20.5504C20.1094 20.5443 19.8885 20.5339 19.6683 20.5191ZM5.12506 20.0227V20.0181L5.06733 20.0115C5.08812 20.0115 5.10714 20.019 5.12506 20.0227Z" fill="#F3F4F5"/>
<path d="M14.9817 5.6739C14.9946 5.67182 15.0404 5.66379 15.0954 5.67596C15.1053 5.67817 15.1171 5.68455 15.1309 5.68957C15.149 5.69118 15.1774 5.6926 15.2179 5.6941C15.348 5.69888 15.4813 5.71414 15.6141 5.74069C15.8161 5.78123 15.9768 5.9014 16.066 6.09239C16.1162 6.20022 16.167 6.3093 16.2132 6.41976C16.2833 6.58707 16.2918 6.76471 16.2355 6.93844C16.2046 7.03304 16.1778 7.13863 16.1551 7.25261C16.1124 7.46628 15.9809 7.63116 15.7791 7.71769C15.6444 7.77528 15.5067 7.81387 15.3672 7.83355C15.2368 7.85185 15.1038 7.85895 14.9705 7.85375C14.8025 7.84717 14.6452 7.7968 14.503 7.70656C14.342 7.60428 14.2298 7.45432 14.1871 7.26581C14.1584 7.13878 14.1416 7.01024 14.1356 6.88071C14.1297 6.75268 14.133 6.6198 14.1467 6.48449C14.1663 6.2926 14.2518 6.12375 14.3962 5.99467C14.5063 5.89633 14.6274 5.81456 14.759 5.75389C14.8122 5.72935 14.8613 5.70999 14.8996 5.69616C14.9157 5.69037 14.9476 5.6794 14.9817 5.6739ZM14.9973 6.27298C14.9193 6.30896 14.8447 6.35719 14.7747 6.41976C14.7389 6.45183 14.72 6.4885 14.7145 6.54221C14.7033 6.6522 14.7013 6.7562 14.7058 6.85391C14.7102 6.94999 14.7223 7.04646 14.7438 7.14129C14.7515 7.17463 14.7675 7.20004 14.8081 7.22581C14.8676 7.26357 14.9278 7.28098 14.9928 7.28354C15.0928 7.28743 15.1908 7.28378 15.2868 7.27034C15.373 7.25824 15.4637 7.23212 15.5564 7.19242C15.5742 7.18459 15.5807 7.17729 15.5828 7.17469C15.5853 7.17135 15.5921 7.16253 15.5964 7.14129C15.6229 7.00799 15.6555 6.88121 15.6941 6.7628C15.7066 6.72402 15.7049 6.68675 15.6855 6.64034C15.6421 6.53683 15.5964 6.43367 15.5494 6.33276C15.5429 6.31907 15.5383 6.31457 15.5362 6.31297C15.5337 6.31106 15.5238 6.30398 15.5007 6.29936C15.3963 6.27856 15.2951 6.26748 15.1977 6.26391C15.139 6.26175 15.086 6.25806 15.0443 6.25277L15.0419 6.25071C15.0291 6.25633 15.0147 6.26497 14.9973 6.27298ZM14.8394 6.16165C14.8422 6.16421 14.8478 6.16585 14.8505 6.16825C14.8451 6.16331 14.8386 6.15872 14.8328 6.15258C14.8353 6.15521 14.8368 6.15913 14.8394 6.16165Z" fill="#F3F4F5"/>
<path d="M14.9817 14.1182C14.9946 14.1161 15.0404 14.1081 15.0954 14.1202C15.1053 14.1224 15.1171 14.1288 15.1309 14.1338C15.149 14.1355 15.1774 14.1369 15.2179 14.1384C15.348 14.1432 15.4813 14.1584 15.6141 14.185C15.8161 14.2255 15.9768 14.3457 16.066 14.5367C16.1162 14.6445 16.167 14.7536 16.2132 14.864C16.2833 15.0313 16.2918 15.209 16.2355 15.3827C16.2046 15.4773 16.1778 15.5829 16.1551 15.6969C16.1124 15.9106 15.9809 16.0754 15.7791 16.162C15.6444 16.2196 15.5067 16.2581 15.3672 16.2778C15.2368 16.2961 15.1038 16.3032 14.9705 16.298C14.8025 16.2914 14.6452 16.2411 14.503 16.1508C14.342 16.0486 14.2298 15.8986 14.1871 15.7101C14.1584 15.5831 14.1416 15.4545 14.1356 15.325C14.1297 15.197 14.133 15.0641 14.1467 14.9288C14.1663 14.7369 14.2518 14.568 14.3962 14.4389C14.5063 14.3406 14.6274 14.2588 14.759 14.1982C14.8122 14.1736 14.8613 14.1543 14.8996 14.1404C14.9157 14.1346 14.9476 14.1237 14.9817 14.1182ZM14.9973 14.7173C14.9193 14.7532 14.8447 14.8015 14.7747 14.864C14.7389 14.8961 14.72 14.9328 14.7145 14.9865C14.7033 15.0965 14.7013 15.2005 14.7058 15.2982C14.7102 15.3943 14.7223 15.4907 14.7438 15.5856C14.7515 15.6189 14.7675 15.6443 14.8081 15.6701C14.8676 15.7078 14.9278 15.7253 14.9928 15.7278C15.0928 15.7317 15.1908 15.7281 15.2868 15.7146C15.373 15.7025 15.4637 15.6764 15.5564 15.6367C15.5742 15.6289 15.5807 15.6216 15.5828 15.619C15.5853 15.6156 15.5921 15.6068 15.5964 15.5856C15.6229 15.4523 15.6555 15.3255 15.6941 15.2071C15.7066 15.1683 15.7049 15.131 15.6855 15.0846C15.6421 14.9811 15.5964 14.8779 15.5494 14.777C15.5429 14.7633 15.5383 14.7588 15.5362 14.7572C15.5337 14.7553 15.5238 14.7483 15.5007 14.7436C15.3963 14.7228 15.2951 14.7118 15.1977 14.7082C15.139 14.706 15.086 14.7023 15.0443 14.697L15.0419 14.695C15.0291 14.7006 15.0147 14.7092 14.9973 14.7173ZM14.8394 14.6059C14.8422 14.6085 14.8478 14.6101 14.8505 14.6125C14.8451 14.6076 14.8386 14.603 14.8328 14.5969C14.8353 14.5995 14.8368 14.6034 14.8394 14.6059Z" fill="#F3F4F5"/>
<path d="M14.9817 22.5619C14.9946 22.5598 15.0404 22.5518 15.0954 22.564C15.1053 22.5662 15.1171 22.5726 15.1309 22.5776C15.149 22.5792 15.1774 22.5806 15.2179 22.5821C15.348 22.5869 15.4813 22.6021 15.6141 22.6287C15.8161 22.6692 15.9768 22.7894 16.066 22.9804C16.1162 23.0882 16.167 23.1973 16.2132 23.3078C16.2833 23.4751 16.2918 23.6527 16.2355 23.8264C16.2046 23.921 16.1778 24.0266 16.1551 24.1406C16.1124 24.3543 15.9809 24.5192 15.7791 24.6057C15.6444 24.6633 15.5067 24.7019 15.3672 24.7216C15.2368 24.7399 15.1038 24.747 14.9705 24.7418C14.8025 24.7352 14.6452 24.6848 14.503 24.5946C14.342 24.4923 14.2298 24.3423 14.1871 24.1538C14.1584 24.0268 14.1416 23.8982 14.1356 23.7687C14.1297 23.6407 14.133 23.5078 14.1467 23.3725C14.1663 23.1806 14.2518 23.0118 14.3962 22.8827C14.5063 22.7843 14.6274 22.7026 14.759 22.6419C14.8122 22.6174 14.8613 22.598 14.8996 22.5842C14.9157 22.5784 14.9476 22.5674 14.9817 22.5619ZM14.9973 23.161C14.9193 23.197 14.8447 23.2452 14.7747 23.3078C14.7389 23.3398 14.72 23.3765 14.7145 23.4302C14.7033 23.5402 14.7013 23.6442 14.7058 23.7419C14.7102 23.838 14.7223 23.9345 14.7438 24.0293C14.7515 24.0626 14.7675 24.088 14.8081 24.1138C14.8676 24.1516 14.9278 24.169 14.9928 24.1715C15.0928 24.1754 15.1908 24.1718 15.2868 24.1583C15.373 24.1462 15.4637 24.1201 15.5564 24.0804C15.5742 24.0726 15.5807 24.0653 15.5828 24.0627C15.5853 24.0593 15.5921 24.0505 15.5964 24.0293C15.6229 23.896 15.6555 23.7692 15.6941 23.6508C15.7066 23.612 15.7049 23.5747 15.6855 23.5283C15.6421 23.4248 15.5964 23.3217 15.5494 23.2208C15.5429 23.2071 15.5383 23.2026 15.5362 23.201C15.5337 23.1991 15.5238 23.192 15.5007 23.1874C15.3963 23.1666 15.2951 23.1555 15.1977 23.1519C15.139 23.1497 15.086 23.1461 15.0443 23.1408L15.0419 23.1387C15.0291 23.1443 15.0147 23.153 14.9973 23.161ZM14.8394 23.0497C14.8422 23.0522 14.8478 23.0539 14.8505 23.0563C14.8451 23.0513 14.8386 23.0467 14.8328 23.0406C14.8353 23.0432 14.8368 23.0471 14.8394 23.0497Z" fill="#F3F4F5"/>
</g>
<defs>
<clipPath id="clip0_2030_2449">
<rect width="30" height="30" fill="white"/>
</clipPath>
</defs>
</svg>
