<svg width="30" height="30" viewBox="0 0 30 30" fill="none" xmlns="http://www.w3.org/2000/svg">
<path d="M4.53757 24.1863L5.64025 6.45024C5.77966 4.2079 5.84936 3.08673 6.57759 2.40237C7.30581 1.71802 8.42914 1.71802 10.6758 1.71802H18.7748C20.9719 1.71802 22.0705 1.71802 22.794 2.38165C23.5175 3.04528 23.6121 4.13977 23.8013 6.32873V6.32875L25.3443 24.1758C25.4676 25.602 25.5292 26.315 25.3069 26.8714C25.0784 27.4432 24.6487 27.9118 24.0986 28.1887C23.5635 28.4581 22.8477 28.4581 21.4163 28.4581C20.2052 28.4581 19.5997 28.4581 19.1144 28.2446C18.6147 28.0249 18.1999 27.649 17.932 27.1735C17.6718 26.7115 17.6121 26.1089 17.4928 24.9038V24.9038L16.3918 13.7798C16.3151 13.0047 15.6631 12.414 14.8842 12.414C14.0911 12.414 13.4322 13.0258 13.3734 13.8168L12.563 24.7337C12.4662 26.0386 12.4177 26.6911 12.1348 27.1865C11.8797 27.6332 11.4941 27.9912 11.0297 28.2126C10.5147 28.4581 9.86048 28.4581 8.55195 28.4581C7.07193 28.4581 6.33192 28.4581 5.77959 28.1668C5.28244 27.9046 4.88709 27.4839 4.65626 26.9714C4.39981 26.4021 4.44573 25.6635 4.53757 24.1863Z" fill="#1A1C20"/>
<path d="M16.2342 1.11898C16.8032 1.10484 17.3727 1.13066 17.9412 1.1979C18.471 1.26055 19.0009 1.29794 19.5294 1.31227C20.0893 1.32746 20.643 1.36963 21.1889 1.43831C21.7988 1.51514 22.3482 1.73052 22.8287 2.08463C23.3287 2.45321 23.6716 2.95251 23.8576 3.56291C24.0239 4.11011 24.133 4.67365 24.1845 5.24978C24.2334 5.79643 24.2789 6.3456 24.3146 6.89356C24.3501 7.43711 24.3849 7.98185 24.4209 8.52527C24.4562 9.05637 24.5103 9.58596 24.5828 10.1139C24.6582 10.6624 24.7194 11.2144 24.768 11.7653C24.8156 12.3033 24.8713 12.841 24.9335 13.3777C24.9991 13.9431 25.0221 14.5121 25.0044 15.0843C24.9885 15.5991 25.0244 16.1121 25.1107 16.6177C25.2063 17.178 25.2639 17.7418 25.2843 18.3086C25.3028 18.822 25.371 19.3322 25.4852 19.8381C25.6126 20.4019 25.6883 20.9716 25.718 21.5447C25.746 22.0869 25.7775 22.6307 25.8126 23.1723C25.848 23.7185 25.8783 24.2652 25.9032 24.8121C25.9299 25.3964 25.8889 25.9739 25.7772 26.5388C25.6527 27.1674 25.3515 27.7121 24.8824 28.1585C24.3881 28.6285 23.7805 28.8552 23.0969 28.8326C22.5525 28.8145 22.011 28.803 21.4728 28.8011C20.9305 28.7993 20.3844 28.8024 19.8371 28.8052C19.1587 28.8084 18.5565 28.5694 18.0516 28.1073C17.5404 27.6395 17.2608 27.0472 17.2277 26.3572C17.2028 25.8414 17.1186 25.3371 16.9752 24.8439C16.8054 24.2602 16.7306 23.6628 16.7545 23.0584C16.7752 22.5339 16.758 22.0134 16.7034 21.4971C16.6473 20.968 16.571 20.4378 16.4746 19.9126C16.3719 19.352 16.3086 18.7866 16.2858 18.218C16.2639 17.6742 16.2408 17.1293 16.2145 16.5859C16.1897 16.076 16.1149 15.5694 15.9862 15.0686C15.8515 14.5451 15.7048 14.0444 15.5484 13.5666C15.4937 13.3995 15.4168 13.3034 15.3394 13.2436C15.2613 13.1832 15.1432 13.132 14.9573 13.1176C14.7696 13.1032 14.6436 13.1337 14.5554 13.1804C14.4687 13.2263 14.3813 13.3084 14.3029 13.4562C14.0927 13.8532 13.9346 14.298 13.8338 14.7927C13.7292 15.3065 13.6625 15.8227 13.6328 16.3415C13.6014 16.8921 13.5597 17.4443 13.5068 17.9933C13.454 18.5405 13.3916 19.0872 13.3216 19.6331C13.2574 20.133 13.255 20.6394 13.3135 21.1504C13.383 21.757 13.3514 22.3589 13.2189 22.9517C13.106 23.4564 13.0435 23.9655 13.0336 24.4771C13.0223 25.0607 12.9449 25.6311 12.8013 26.1877C12.6557 26.7519 12.4346 27.2863 12.1352 27.788C11.7696 28.4002 11.195 28.7316 10.4794 28.7577C9.93562 28.7775 9.39317 28.8037 8.85571 28.8406C8.29748 28.8789 7.73827 28.8931 7.18052 28.8801C6.55716 28.8653 5.97135 28.7059 5.43043 28.4029C4.83916 28.0714 4.45375 27.5629 4.30692 26.9053C4.1852 26.3599 4.11362 25.8013 4.0943 25.2301C4.07517 24.6635 4.09891 24.0942 4.16517 23.5271C4.22397 23.0229 4.22679 22.5141 4.17282 22.0017C4.11005 21.4047 4.13507 20.8116 4.2437 20.2242C4.34064 19.7001 4.41263 19.1742 4.46075 18.6473C4.5087 18.1218 4.52962 17.5921 4.52357 17.0631C4.5172 16.5048 4.53057 15.9473 4.56706 15.3915C4.60364 14.8351 4.66162 14.2781 4.74062 13.7244C4.81495 13.2034 4.85979 12.6804 4.87069 12.1555C4.88179 11.6206 4.87496 11.0846 4.85498 10.5476C4.83332 9.96607 4.87474 9.38716 4.97297 8.81319C5.06118 8.29833 5.10847 7.77935 5.11874 7.26001C5.12401 6.99141 5.12662 6.78792 5.12277 6.64913C5.12099 6.58606 5.11808 6.54043 5.11552 6.51181C5.10075 6.46461 5.09439 6.42449 5.09136 6.4047C5.08567 6.36704 5.08123 6.33015 5.07968 6.29839C5.07656 6.23382 5.07694 6.15843 5.07968 6.07771C5.08529 5.91359 5.10239 5.69022 5.1268 5.41528C5.17645 4.85618 5.25328 4.29666 5.35553 3.73647C5.47528 3.08042 5.78811 2.52073 6.28574 2.07295C6.77577 1.63218 7.35142 1.36328 8.0004 1.27683C8.57189 1.20084 9.14424 1.16763 9.71506 1.17817C10.2693 1.18847 10.8244 1.21687 11.3782 1.2571C11.9108 1.29582 12.4461 1.31319 12.9785 1.31227C13.5052 1.31129 14.032 1.2811 14.559 1.22529C15.1172 1.16617 15.6758 1.13286 16.2342 1.11898ZM16.258 2.12409C15.7273 2.13732 15.1966 2.17418 14.6657 2.2304C14.1036 2.28994 13.5409 2.32043 12.9785 2.32141C12.4215 2.32238 11.8644 2.30268 11.3073 2.26222C10.7718 2.22329 10.2349 2.1973 9.69895 2.18732C9.17908 2.17767 8.65622 2.20849 8.13409 2.27792C7.68933 2.3371 7.30085 2.51524 6.95985 2.82196C6.62658 3.1218 6.42788 3.48311 6.34856 3.91768C6.25176 4.44806 6.17879 4.97794 6.13191 5.50589C6.10811 5.77417 6.09309 5.97652 6.08842 6.11315V6.24724L6.10453 6.30241C6.11099 6.33637 6.11315 6.37048 6.11621 6.40067C6.12245 6.46268 6.12561 6.53752 6.12789 6.61772C6.13247 6.78054 6.13329 7.00444 6.12789 7.27974C6.11662 7.84985 6.06311 8.4183 5.96641 8.98272C5.8799 9.48803 5.84472 9.99634 5.86372 10.5081C5.88444 11.0645 5.89131 11.6208 5.87983 12.1753C5.86809 12.7405 5.82168 13.3053 5.74171 13.8662C5.66638 14.3942 5.6111 14.9244 5.5762 15.4548C5.54134 15.985 5.52664 16.5181 5.53271 17.051C5.53916 17.6146 5.51697 18.1782 5.46586 18.7383C5.41491 19.2966 5.33571 19.8548 5.23311 20.4095C5.14257 20.9 5.12538 21.395 5.17794 21.8954C5.23965 22.4813 5.23795 23.0661 5.17029 23.6455C5.10987 24.1625 5.08568 24.6792 5.10304 25.1947C5.12027 25.7049 5.18465 26.202 5.2923 26.6846C5.37522 27.0559 5.57608 27.3298 5.92292 27.5242C6.31861 27.7458 6.74366 27.8599 7.20388 27.8709C7.73114 27.8833 8.26046 27.8718 8.78846 27.8355C9.33719 27.7978 9.8891 27.7691 10.4439 27.7489C10.8276 27.7349 11.0827 27.5818 11.2678 27.2717C11.5183 26.8521 11.702 26.4067 11.8235 25.9356C11.9472 25.4565 12.0147 24.9641 12.0245 24.4573C12.0357 23.8776 12.106 23.3011 12.2335 22.731C12.3412 22.249 12.3651 21.7602 12.3084 21.2648C12.2409 20.6747 12.2459 20.0881 12.3205 19.5066C12.3892 18.9707 12.4499 18.4318 12.5017 17.8947C12.5533 17.3594 12.593 16.8231 12.6237 16.2863C12.6561 15.7183 12.7301 15.1528 12.8444 14.5914C12.9627 14.0106 13.1526 13.4734 13.4122 12.9835C13.5689 12.6878 13.789 12.4452 14.0822 12.2896C14.3738 12.1352 14.7 12.0865 15.0362 12.1124C15.3756 12.1388 15.6938 12.2388 15.9584 12.4434C16.2236 12.6485 16.4009 12.9293 16.5064 13.2512C16.6702 13.7517 16.8196 14.2764 16.9595 14.8201C17.105 15.3866 17.1956 15.9597 17.2236 16.5388C17.2501 17.0849 17.2725 17.632 17.2945 18.1786C17.3155 18.6998 17.3738 19.2173 17.4681 19.7313C17.569 20.2816 17.6497 20.8363 17.7085 21.3908C17.7684 21.9566 17.7864 22.5282 17.7636 23.1015C17.7442 23.5956 17.8055 24.0807 17.9448 24.56C18.1107 25.1301 18.2082 25.715 18.2368 26.3101C18.2572 26.7313 18.417 27.0728 18.7333 27.3623C19.0557 27.6574 19.4143 27.7982 19.8331 27.796C20.3833 27.7932 20.9316 27.7902 21.4768 27.792C22.0256 27.7939 22.5776 27.805 23.1323 27.8234C23.5478 27.8371 23.888 27.7074 24.1845 27.4256C24.5063 27.1195 24.7047 26.7613 24.7878 26.3415C24.8834 25.858 24.9211 25.3642 24.8981 24.8596C24.8734 24.3183 24.8426 23.7762 24.8075 23.2356C24.7721 22.6898 24.7411 22.1421 24.7129 21.5958C24.6862 21.0812 24.6145 20.5701 24.4998 20.0624C24.3718 19.4957 24.2959 18.9208 24.2751 18.3441C24.2563 17.822 24.2018 17.3031 24.1137 16.7869C24.016 16.2147 23.9772 15.6347 23.9953 15.0529C24.0114 14.5296 23.9923 14.0079 23.9325 13.4917C23.8692 12.9462 23.8112 12.399 23.7629 11.8523C23.7157 11.3182 23.6548 10.7839 23.5817 10.252C23.5059 9.70062 23.449 9.14731 23.4122 8.59252C23.3762 8.04909 23.3409 7.50397 23.3055 6.96041C23.2703 6.42053 23.2275 5.87896 23.1794 5.34038C23.134 4.83212 23.0379 4.33864 22.8919 3.85848C22.7651 3.44154 22.544 3.12869 22.2295 2.89686C21.8955 2.6508 21.5111 2.49587 21.0629 2.4394C20.5503 2.37491 20.0297 2.33573 19.5021 2.32141C18.9428 2.30625 18.3827 2.2652 17.8228 2.19899C17.3016 2.13735 16.7787 2.11116 16.258 2.12409Z" fill="#1A1C20"/>
<path d="M14.6996 5.5365C14.8496 5.5365 14.9676 5.65528 14.9734 5.80389C15.0591 6.01587 15.0972 6.25057 14.9779 6.46067L14.9779 6.8239C14.9778 6.92962 14.9169 7.01805 14.8301 7.06511L14.8019 7.10216L14.667 7.10216C14.5345 7.10203 14.4548 7.01875 14.4234 6.9737C14.3929 6.92994 14.3784 6.88548 14.3714 6.86055C14.3565 6.807 14.3511 6.74508 14.3473 6.689C14.3349 6.50811 14.3978 6.3385 14.495 6.18886C14.4966 6.18643 14.5011 6.17554 14.4995 6.14738C14.4973 6.11205 14.4855 6.05412 14.4475 5.97141L14.4214 5.91704L14.4214 5.81476C14.4214 5.66104 14.5459 5.5365 14.6996 5.5365Z" fill="#F3F4F5"/>
<path d="M14.7002 7.9986C14.8539 7.9986 14.9785 8.12313 14.9785 8.27686L14.9785 8.31833C14.9945 8.46505 14.9979 8.6054 14.9785 8.73351L14.9785 9.286C14.9784 9.41349 14.8913 9.51607 14.7743 9.54896L14.759 9.56426L14.6523 9.56426C14.5568 9.56391 14.4767 9.51999 14.424 9.45996C14.3792 9.40893 14.3593 9.35399 14.3503 9.32063C14.3323 9.25392 14.333 9.18106 14.335 9.12291C14.3397 8.98781 14.368 8.84959 14.4155 8.71176C14.4355 8.65316 14.447 8.5409 14.424 8.35296L14.422 8.33565L14.422 8.27686C14.422 8.12313 14.5465 7.9986 14.7002 7.9986Z" fill="#F3F4F5"/>
<path d="M9.58295 3.16229C9.73667 3.16229 9.86121 3.28683 9.86121 3.44055V3.44498C9.91281 3.59049 9.94717 3.74705 9.90913 3.8972L9.90711 3.89922C9.91345 3.90958 9.92307 3.9198 9.92886 3.93183C9.94326 3.96205 9.96963 4.03162 9.95463 4.11909C9.93535 4.22914 9.86208 4.30245 9.78953 4.33654C9.73028 4.36426 9.67394 4.36673 9.64617 4.36674H9.56321L9.55677 4.3603C9.41563 4.34689 9.3048 4.23311 9.30469 4.08848V3.44055C9.30469 3.28683 9.42922 3.16229 9.58295 3.16229Z" fill="#F3F4F5"/>
<path d="M19.0939 2.86584C19.2476 2.86584 19.3721 2.99038 19.3721 3.1441V3.18558C19.3917 3.3852 19.4009 3.55592 19.3919 3.68975C19.3887 3.736 19.3796 3.78163 19.3721 3.82707V4.17701C19.3721 4.31713 19.2677 4.42739 19.1329 4.44681L19.1221 4.45527H19.0351C18.9515 4.45524 18.849 4.42107 18.783 4.32479C18.73 4.24744 18.7278 4.16677 18.7286 4.12909C18.7305 4.05146 18.7564 3.97291 18.7786 3.91405C18.8109 3.8287 18.8289 3.74006 18.835 3.65069C18.8412 3.55706 18.8381 3.41386 18.8176 3.21377L18.8156 3.19847V3.1441C18.8156 2.99038 18.9402 2.86584 19.0939 2.86584Z" fill="#F3F4F5"/>
<path d="M9.34044 6.12119L9.47977 6.13891L9.50152 6.17998C9.60646 6.25421 9.65209 6.38976 9.59937 6.5126L9.58407 6.54965L9.50595 6.73006C9.5001 6.7865 9.49317 6.84449 9.48823 6.90402C9.4725 7.0939 9.38726 7.25908 9.25145 7.38926C9.20565 7.43317 9.18316 7.47846 9.17735 7.53262C9.16056 7.688 9.11632 7.83504 9.04245 7.96954C8.98528 8.0736 8.92548 8.17774 8.86205 8.28082C8.80972 8.36586 8.76302 8.45763 8.72513 8.55465C8.67166 8.69135 8.59953 8.81871 8.50969 8.93318C8.42892 9.03598 8.3416 9.13362 8.24673 9.22432C8.13556 9.33057 8.0067 9.41266 7.86418 9.46997C7.76958 9.50803 7.67932 9.55447 7.59438 9.60728C7.48039 9.6781 7.35844 9.73838 7.23115 9.78769C7.07129 9.84931 6.88118 9.84305 6.68309 9.81588C6.56273 9.85222 6.42998 9.80958 6.36375 9.69628C6.28695 9.56386 6.33161 9.39329 6.46362 9.31574L6.50067 9.296L6.58765 9.24406L6.68993 9.26137C6.88979 9.29652 6.99143 9.2831 7.03101 9.26781C7.12708 9.23059 7.21694 9.18506 7.30081 9.13291C7.41369 9.06276 7.53325 9.00248 7.6576 8.95251C7.73384 8.92177 7.80178 8.87931 7.86176 8.82204C7.9378 8.74934 8.00829 8.67138 8.07277 8.58928C8.12826 8.51856 8.17363 8.43947 8.20767 8.3525C8.25736 8.22529 8.31776 8.10353 8.38808 7.98927C8.44686 7.89376 8.50289 7.79807 8.5556 7.70215C8.59176 7.6363 8.61586 7.5595 8.62526 7.47181C8.64566 7.28269 8.72961 7.11817 8.86648 6.98697C8.91321 6.94205 8.92822 6.90069 8.93171 6.85852C8.9416 6.73929 8.95523 6.62456 8.96876 6.51502C8.97599 6.4566 8.98686 6.38893 9.00983 6.33019C9.02086 6.3021 9.04232 6.25251 9.08594 6.20817C9.13759 6.15598 9.22761 6.10616 9.34044 6.12119Z" fill="#F3F4F5"/>
<path d="M19.9447 5.97348L19.8054 5.9912L19.7836 6.03228C19.6787 6.1065 19.6331 6.24206 19.6858 6.3649L19.7011 6.40195L19.7792 6.58235C19.7851 6.6388 19.792 6.69679 19.7969 6.75631C19.8127 6.94619 19.8979 7.11138 20.0337 7.24156C20.0795 7.28547 20.102 7.33075 20.1078 7.38492C20.1246 7.5403 20.1688 7.68734 20.2427 7.82183C20.2999 7.92589 20.3597 8.03003 20.4231 8.13311C20.4754 8.21816 20.5221 8.30993 20.56 8.40694C20.6135 8.54365 20.6856 8.67101 20.7755 8.78547C20.8562 8.88828 20.9436 8.98591 21.0384 9.07662C21.1496 9.18287 21.2785 9.26495 21.421 9.32226C21.5156 9.36033 21.6058 9.40677 21.6908 9.45958C21.8048 9.53039 21.9267 9.59067 22.054 9.63998C22.2139 9.70161 22.404 9.69534 22.6021 9.66817C22.7224 9.70451 22.8552 9.66188 22.9214 9.54857C22.9982 9.41615 22.9535 9.24558 22.8215 9.16803L22.7845 9.1483L22.6975 9.09635L22.5952 9.11367C22.3954 9.14882 22.2937 9.1354 22.2541 9.12011C22.1581 9.08288 22.0682 9.03736 21.9843 8.98521C21.8715 8.91505 21.7519 8.85478 21.6276 8.8048C21.5513 8.77407 21.4834 8.73161 21.4234 8.67433C21.3474 8.60163 21.2769 8.52367 21.2124 8.44158C21.1569 8.37086 21.1115 8.29177 21.0775 8.20479C21.0278 8.07758 20.9674 7.95582 20.8971 7.84157C20.8383 7.74606 20.7823 7.65036 20.7296 7.55445C20.6934 7.48859 20.6693 7.4118 20.6599 7.32411C20.6395 7.13498 20.5555 6.97047 20.4187 6.83927C20.372 6.79435 20.3569 6.75299 20.3534 6.71081C20.3436 6.59159 20.3299 6.47686 20.3164 6.36732C20.3092 6.3089 20.2983 6.24123 20.2753 6.18248C20.2643 6.15439 20.2428 6.10481 20.1992 6.06047C20.1476 6.00828 20.0575 5.95845 19.9447 5.97348Z" fill="#F3F4F5"/>
<path d="M14.435 2.78185C14.4957 2.71765 14.5261 2.68555 14.5664 2.67799C14.6067 2.67044 14.6467 2.68933 14.7266 2.72713L14.8794 2.79941C14.9007 2.80948 14.9113 2.81451 14.9208 2.82137C14.9303 2.82823 14.9384 2.83676 14.9546 2.85383L15.3171 3.2355C15.3856 3.30754 15.4198 3.34356 15.423 3.38868C15.4263 3.43381 15.3976 3.47437 15.3403 3.5555L15.08 3.92354C15.0738 3.93238 15.0706 3.9368 15.0672 3.94093C15.0637 3.94506 15.0598 3.94889 15.0522 3.95653L14.8717 4.1366C14.8006 4.20764 14.765 4.24316 14.7194 4.24729C14.6739 4.25141 14.6325 4.22287 14.5497 4.16578L14.2599 3.96598C14.2513 3.96 14.2469 3.95701 14.2429 3.95368C14.2388 3.95035 14.235 3.94668 14.2275 3.93936L13.9747 3.69434C13.9025 3.62433 13.8664 3.58933 13.8615 3.54389C13.8567 3.49845 13.8845 3.45658 13.9402 3.37285L14.0814 3.16061C14.0874 3.1516 14.0904 3.1471 14.0938 3.14287C14.0972 3.13864 14.1009 3.13471 14.1083 3.12685L14.435 2.78185Z" fill="#F3F4F5"/>
<path d="M15.2518 2.7965C15.4007 2.91834 15.5195 3.07701 15.5479 3.27566C15.5762 3.47539 15.506 3.65999 15.3946 3.81647C15.1824 4.11402 14.8909 4.2921 14.5316 4.26183C14.3624 4.24753 14.2046 4.18798 14.0757 4.07346C13.9493 3.96089 13.8699 3.81136 13.8232 3.64721C13.7736 3.47232 13.771 3.29101 13.8392 3.12029C13.9066 2.95193 14.0322 2.82125 14.1844 2.72015C14.3031 2.64138 14.3957 2.58044 14.4616 2.53964C14.494 2.5196 14.5248 2.5006 14.5491 2.48748C14.5604 2.48141 14.5772 2.47336 14.5948 2.46608C14.6033 2.46257 14.6208 2.45568 14.6413 2.4506C14.6518 2.44786 14.7213 2.43087 14.8012 2.45825L14.8595 2.48624C14.8666 2.49067 14.8731 2.49541 14.8775 2.49847C14.8868 2.5049 14.8984 2.513 14.9077 2.52009C14.9269 2.53464 14.9525 2.55492 14.9831 2.5793C15.0454 2.62882 15.1358 2.70165 15.2518 2.7965ZM14.4911 3.18252C14.4066 3.23868 14.3709 3.2896 14.3558 3.32725C14.3416 3.36294 14.3356 3.41508 14.3585 3.49553C14.384 3.5852 14.4175 3.63181 14.4454 3.65689C14.4714 3.67998 14.5108 3.70119 14.5788 3.70692C14.694 3.71656 14.8113 3.67308 14.9404 3.49201C14.9987 3.40988 15 3.36757 14.9979 3.35327C14.9956 3.33751 14.9809 3.29435 14.8987 3.22717C14.812 3.15626 14.742 3.09775 14.687 3.05355C14.635 3.08685 14.5701 3.1301 14.4911 3.18252Z" fill="#F3F4F5"/>
<path d="M14.5797 10.4487C14.7335 10.4487 14.858 10.5733 14.858 10.727V10.7358C14.9188 10.9648 14.9231 11.2054 14.7883 11.4075C14.7784 11.4225 14.7714 11.4377 14.7646 11.451L14.858 11.4273V11.834C14.8577 11.9874 14.7333 12.1122 14.5797 12.1122C14.5567 12.1122 14.5359 12.1022 14.5145 12.0969L14.4948 12.1034L14.3993 12.0535C14.2847 11.9934 14.2386 11.8847 14.221 11.834C14.1993 11.7717 14.1891 11.7015 14.1819 11.6338C14.1613 11.4401 14.2184 11.2587 14.3252 11.0987C14.337 11.0809 14.3634 11.0176 14.3124 10.8486L14.3015 10.8095V10.727C14.3015 10.5733 14.426 10.4487 14.5797 10.4487Z" fill="#F3F4F5"/>
</svg>
