<svg width="30" height="30" viewBox="0 0 30 30" fill="none" xmlns="http://www.w3.org/2000/svg">
<path d="M7.62695 6.69496C7.62695 4.32809 7.62695 3.14466 8.36225 2.40936C9.09754 1.67407 10.281 1.67407 12.6478 1.67407H17.3791C19.7459 1.67407 20.9294 1.67407 21.6647 2.40936C22.4 3.14466 22.4 4.32809 22.4 6.69496V23.3267C22.4 25.6935 22.4 26.877 21.6647 27.6122C20.9294 28.3475 19.7459 28.3475 17.3791 28.3475H12.6478C10.281 28.3475 9.09754 28.3475 8.36225 27.6122C7.62695 26.877 7.62695 25.6935 7.62695 23.3267V6.69496Z" fill="#1A1C20"/>
<path d="M18.3283 1.09344C18.9107 1.07582 19.4901 1.12385 20.0623 1.24252C20.6701 1.36877 21.2158 1.62268 21.6901 1.99952C22.1837 2.39183 22.5246 2.9027 22.71 3.51754C22.8814 4.08599 22.967 4.66911 22.9649 5.26317C22.9628 5.82659 22.927 6.38884 22.8591 6.9499C22.7993 7.44361 22.8111 7.93814 22.8943 8.43265C22.9918 9.01054 23.0275 9.59099 22.9961 10.1703C22.9678 10.6922 22.9691 11.2176 23.0042 11.7396C23.0425 12.3134 23.025 12.8883 22.9533 13.4616C22.8888 13.9769 22.8651 14.4921 22.8823 15.0068C22.9006 15.5491 22.9193 16.0924 22.9372 16.6347C22.955 17.1718 22.9815 17.7097 23.0158 18.2469C23.0529 18.8301 23.0195 19.415 22.914 19.9965C22.8266 20.4791 22.8271 20.9614 22.914 21.444C23.0195 22.0305 23.0416 22.6207 22.9845 23.2089C22.934 23.7296 22.9186 24.2514 22.9336 24.7742C22.9512 25.3844 22.8472 25.9726 22.6275 26.5354C22.4099 27.0919 22.0998 27.5954 21.6977 28.0378C21.2471 28.5333 20.6675 28.8063 19.9918 28.8537C19.4274 28.8933 18.8649 28.9111 18.3086 28.9046C17.7712 28.8984 17.2335 28.8995 16.6965 28.9086C16.13 28.9183 15.5638 28.8866 14.9981 28.8145C14.4923 28.75 13.9856 28.7394 13.4801 28.7868C12.9223 28.8391 12.3632 28.8658 11.805 28.8653C11.2259 28.8648 10.6557 28.8009 10.095 28.673C9.53262 28.5446 8.99522 28.3531 8.48683 28.1003C7.87159 27.7939 7.48657 27.2774 7.34511 26.5979C7.22572 26.0243 7.17214 25.4457 7.18842 24.8643C7.20303 24.3416 7.1888 23.8187 7.14514 23.2954C7.09879 22.7404 7.07446 22.1834 7.0706 21.6283C7.06672 21.0619 7.10171 20.4953 7.18041 19.9296C7.24834 19.4413 7.24 18.9523 7.14915 18.4629C7.03796 17.8633 7.03221 17.2623 7.13352 16.6623C7.21977 16.1518 7.2567 15.6414 7.24332 15.1323C7.22961 14.6125 7.17966 14.0919 7.09826 13.5714C7.00941 13.0038 6.96684 12.4336 6.96882 11.865C6.97088 11.2982 7.01341 10.7287 7.09826 10.1627C7.17434 9.65467 7.19808 9.14765 7.16879 8.64064C7.13694 8.08963 7.1208 7.53649 7.11789 6.98517C7.11502 6.43415 7.12588 5.8835 7.15316 5.33371C7.1814 4.76483 7.25884 4.20653 7.38038 3.659C7.5186 3.03639 7.82682 2.51655 8.3101 2.12536C8.75673 1.76432 9.27544 1.50184 9.85577 1.33669C10.4274 1.17413 11.0132 1.10304 11.609 1.1251C12.1471 1.14503 12.4716 1.15829 12.5624 1.16437C12.5681 1.16453 12.5867 1.16468 12.6249 1.16437C12.669 1.164 12.7299 1.16249 12.8052 1.16037C12.9576 1.15606 13.1706 1.1482 13.4408 1.13672C14.0082 1.11263 14.5762 1.1344 15.1432 1.19563C15.6504 1.25036 16.1578 1.25012 16.6652 1.19964C17.2187 1.14452 17.7736 1.11026 18.3283 1.09344ZM18.3599 2.0937C17.8286 2.10978 17.2978 2.14711 16.7674 2.19989C16.1904 2.25736 15.6101 2.25417 15.0334 2.19188C14.5167 2.13615 14.0004 2.11909 13.4841 2.14098C12.9607 2.16323 12.6079 2.17605 12.4915 2.16823C12.417 2.16336 12.1141 2.14912 11.5697 2.12896C11.0792 2.11096 10.5996 2.16821 10.1303 2.30168C9.6696 2.43278 9.27505 2.63652 8.94167 2.906C8.64657 3.14495 8.45337 3.46007 8.361 3.8746C8.25189 4.36606 8.18251 4.87142 8.15702 5.385C8.13067 5.91643 8.11896 6.44849 8.12175 6.98116C8.12457 7.51466 8.14224 8.04847 8.17305 8.58173C8.20638 9.15842 8.18072 9.73602 8.0945 10.3117C8.01688 10.8296 7.97465 11.348 7.97268 11.865C7.9708 12.3803 8.00969 12.8981 8.0905 13.4143C8.17865 13.9775 8.23271 14.5411 8.24759 15.105C8.26273 15.6796 8.21851 16.2538 8.12175 16.827C8.03998 17.311 8.04386 17.7976 8.13378 18.2821C8.24391 18.8763 8.2594 19.4717 8.17666 20.067C8.1046 20.5848 8.07137 21.1032 8.07487 21.6203C8.07853 22.1491 8.10127 22.6798 8.1454 23.2089C8.19219 23.7692 8.20832 24.3317 8.19269 24.892C8.17862 25.3945 8.22211 25.8961 8.32573 26.394C8.40724 26.7855 8.60597 27.039 8.93366 27.2023C9.3695 27.419 9.83208 27.5853 10.3186 27.6964C10.8052 27.8073 11.3006 27.8606 11.805 27.8611C12.3313 27.8615 12.8597 27.8398 13.3859 27.7906C13.9648 27.7363 14.5451 27.7445 15.1235 27.8182C15.642 27.8843 16.1626 27.9132 16.6808 27.9044C17.2272 27.8951 17.7739 27.894 18.3207 27.9004C18.8489 27.9065 19.3835 27.8911 19.9208 27.8535C20.3477 27.8235 20.6853 27.6611 20.9564 27.363C21.276 27.0112 21.5212 26.613 21.6941 26.1707C21.864 25.7355 21.9431 25.2791 21.9294 24.8014C21.9132 24.2369 21.9297 23.6734 21.9843 23.1111C22.0324 22.6152 22.0149 22.1177 21.9254 21.6203C21.8171 21.0193 21.8164 20.4172 21.9254 19.8162C22.0166 19.3134 22.0474 18.8108 22.0155 18.3098C21.9806 17.7626 21.9515 17.2136 21.9334 16.6663C21.9155 16.125 21.8967 15.5834 21.8785 15.0421C21.8593 14.4734 21.8855 13.9039 21.9566 13.3357C22.0205 12.8257 22.038 12.3156 22.0039 11.8061C21.9662 11.2436 21.9617 10.6779 21.9923 10.1154C22.0195 9.61132 21.9909 9.1068 21.9057 8.60137C21.8063 8.01193 21.7914 7.419 21.8628 6.82848C21.926 6.30632 21.9587 5.78313 21.9606 5.25917L21.9097 4.52581C21.8746 4.28385 21.8204 4.04485 21.749 3.80808C21.6203 3.38117 21.3933 3.04421 21.0662 2.78418C20.7199 2.50914 20.3189 2.32282 19.8583 2.22714C19.3629 2.12437 18.8634 2.07847 18.3599 2.0937Z" fill="#1A1C20"/>
<path d="M14.6458 24.8114C14.7058 24.8035 14.7916 24.801 14.877 24.8355C14.8666 24.8313 14.8694 24.834 14.8987 24.8375C14.9255 24.8407 14.9642 24.8434 15.0157 24.8439C15.1715 24.8454 15.3221 24.8799 15.4637 24.9457C15.5453 24.9836 15.6344 25.0104 15.7318 25.0258C15.8379 25.0426 15.9474 25.0873 16.0328 25.1773C16.1173 25.2668 16.1567 25.3769 16.169 25.4823C16.1811 25.5849 16.2043 25.676 16.2364 25.7572C16.292 25.898 16.3154 26.0455 16.3097 26.1964C16.3042 26.3403 16.2756 26.482 16.2231 26.6184C16.1603 26.7812 16.0529 26.9151 15.9094 27.0143C15.8209 27.0755 15.7444 27.1389 15.6777 27.2027C15.5555 27.3195 15.4053 27.3891 15.2385 27.4127C15.149 27.4253 15.0549 27.4504 14.9572 27.4884C14.7622 27.5641 14.5608 27.547 14.3817 27.4363C14.2763 27.3712 14.1754 27.3069 14.0788 27.244C13.9718 27.1743 13.8697 27.0954 13.7758 27.0103C13.6453 26.8917 13.5645 26.7398 13.5354 26.5667C13.5088 26.4085 13.5204 26.2511 13.5702 26.099C13.6034 25.9978 13.632 25.8945 13.6568 25.7897C13.6839 25.6748 13.714 25.5576 13.7453 25.439C13.7968 25.2441 13.9203 25.0931 14.1024 25.0062C14.2188 24.9507 14.3365 24.9026 14.4531 24.8611C14.5167 24.8385 14.5821 24.8199 14.6458 24.8114ZM14.6911 25.3677C14.6771 25.3714 14.6579 25.3755 14.637 25.3829C14.5395 25.4176 14.4404 25.4586 14.3404 25.5063C14.3059 25.5229 14.29 25.5418 14.2799 25.5797C14.2498 25.694 14.2214 25.8073 14.1954 25.9175C14.167 26.0373 14.1341 26.1561 14.096 26.2722C14.0747 26.3374 14.0712 26.4046 14.0832 26.4757C14.0927 26.5314 14.1135 26.5698 14.1481 26.6012C14.2197 26.666 14.2969 26.725 14.3793 26.7787C14.4722 26.8392 14.5716 26.9015 14.6739 26.9646C14.7021 26.982 14.7204 26.9848 14.756 26.9711C14.8898 26.919 15.0253 26.882 15.1608 26.8629C15.2186 26.8547 15.2607 26.8351 15.295 26.8023C15.3849 26.7164 15.4839 26.6338 15.5936 26.5579C15.6483 26.52 15.6846 26.4752 15.7062 26.4192C15.7376 26.3376 15.7547 26.2572 15.7579 26.1772C15.7607 26.1037 15.7468 26.0312 15.719 25.9608C15.6701 25.8368 15.6373 25.7049 15.6196 25.5669C15.4836 25.5431 15.3528 25.5049 15.2301 25.4478C15.1596 25.4151 15.0874 25.3989 15.0113 25.3981C14.912 25.3972 14.8031 25.3901 14.7119 25.3629C14.7068 25.364 14.6998 25.3654 14.6911 25.3677Z" fill="#F3F4F5"/>
<path d="M16.5286 2.59066C16.548 2.59052 16.5749 2.59091 16.6043 2.59707L16.7017 2.63394L16.8316 2.71208V2.75536C16.8569 2.79602 16.8781 2.84029 16.8793 2.89162C16.8824 3.0445 16.7596 3.17176 16.6068 3.17494H16.5655L16.4661 3.17735C16.2978 3.25452 16.1173 3.27177 15.9379 3.22463C15.8387 3.1986 15.7409 3.181 15.6438 3.17494C15.5492 3.16912 15.4533 3.17404 15.358 3.19017C15.2261 3.21262 15.0923 3.22534 14.9597 3.22463C14.8275 3.2239 14.6953 3.21161 14.5638 3.18817C14.4719 3.1718 14.3797 3.16856 14.2889 3.17735C14.1855 3.1874 14.0816 3.20321 13.9775 3.22704C13.8196 3.26324 13.659 3.26242 13.5014 3.22463C13.4329 3.20816 13.3101 3.20264 13.1183 3.22704L13.1011 3.22904H13.0445C12.8918 3.22974 12.7666 3.10689 12.7656 2.95413C12.7649 2.80147 12.888 2.6764 13.0405 2.67522H13.0794C13.2845 2.65113 13.4723 2.64861 13.6288 2.68604C13.7036 2.70402 13.7779 2.70491 13.852 2.68804C13.9797 2.65879 14.1088 2.63793 14.2372 2.62552C14.3787 2.61187 14.5203 2.61767 14.6611 2.64275C14.7622 2.66074 14.8639 2.67027 14.9641 2.67081C15.0638 2.67127 15.1647 2.66184 15.2651 2.64476C15.4016 2.62159 15.5388 2.6147 15.6762 2.62312C15.8112 2.63144 15.9474 2.65294 16.081 2.68804C16.134 2.70172 16.1813 2.69714 16.2345 2.67281C16.2964 2.64431 16.3611 2.62063 16.4204 2.60589C16.4499 2.59857 16.4873 2.59103 16.5286 2.59066Z" fill="#F3F4F5"/>
</svg>
