<svg width="30" height="30" viewBox="0 0 30 30" fill="none" xmlns="http://www.w3.org/2000/svg">
<path d="M12.6229 16.3872C12.5902 14.3188 13.8119 8.43719 14.9442 4.18952C15.2731 2.95561 15.4376 2.33865 15.9581 2.0303C16.4786 1.72194 17.118 1.87883 18.3968 2.19261L21.9161 3.05611C23.3867 3.41692 24.122 3.59733 24.4399 4.12237C24.7579 4.6474 24.5697 5.41273 24.1933 6.94337C23.5837 9.42247 22.9817 12.2915 22.7004 13.4379C22.1764 15.5737 27.4202 20.2568 26.9486 22.1789C26.477 24.1011 25.8482 26.664 21.6331 26.3091C17.5245 25.9631 12.6315 20.0464 12.6245 16.8702L12.6234 16.4243L12.6229 16.3872Z" fill="#1A1C20"/>
<path d="M19.6681 2.14239C19.9945 2.21393 20.3156 2.30809 20.6303 2.42593C20.9228 2.53545 21.2196 2.62901 21.5193 2.70861C21.828 2.79059 22.1372 2.8723 22.4459 2.95238C22.7578 3.03328 23.0671 3.11979 23.3744 3.20909C23.7147 3.30802 24.0243 3.46524 24.2978 3.68112C24.6049 3.92381 24.7795 4.25042 24.8151 4.64217C24.8462 4.98472 24.8256 5.32805 24.7538 5.66853C24.687 5.98519 24.6114 6.30056 24.5289 6.61443C24.4494 6.9169 24.381 7.22352 24.3231 7.53149C24.2633 7.85008 24.1981 8.1683 24.1252 8.48366C24.0539 8.79196 23.9873 9.10142 23.926 9.41196C23.8611 9.73993 23.7713 10.0636 23.6597 10.3809C23.5595 10.6659 23.4881 10.9581 23.4471 11.256C23.4015 11.5868 23.3347 11.9127 23.2454 12.2336C23.1645 12.5243 23.1113 12.8207 23.085 13.1215C23.0587 13.4229 23.0591 13.7181 23.087 14.0061C23.1139 14.2831 23.1836 14.556 23.294 14.8243C23.4112 15.1086 23.5443 15.3871 23.6923 15.6583C23.8411 15.9308 24.0007 16.1971 24.1735 16.4557C24.347 16.7155 24.5301 16.9693 24.7235 17.215C24.9343 17.4826 25.1182 17.77 25.2724 18.0767C25.4119 18.3543 25.5678 18.6196 25.7396 18.8728C25.9122 19.1272 26.1003 19.3733 26.3047 19.6098C26.5308 19.8712 26.7258 20.1538 26.8879 20.4582C27.0602 20.7819 27.1546 21.1292 27.1702 21.4929C27.1842 21.8203 27.1838 22.1492 27.1687 22.479C27.1521 22.8416 27.0621 23.1879 26.9004 23.5145C26.7564 23.8052 26.612 24.0924 26.4675 24.3758C26.3162 24.6726 26.1408 24.9573 25.9415 25.2285C25.7265 25.521 25.4587 25.7592 25.1427 25.938C24.8422 26.108 24.5267 26.2384 24.1965 26.3281C23.8907 26.411 23.5806 26.4946 23.269 26.5818C22.9183 26.6799 22.5613 26.7062 22.2014 26.6584C21.8802 26.6157 21.5606 26.5707 21.2433 26.5236C20.9197 26.4755 20.5967 26.4147 20.275 26.3406C19.9274 26.2604 19.6019 26.1218 19.3017 25.928C19.0343 25.7555 18.7645 25.5903 18.4938 25.4315C18.2082 25.2641 17.9325 25.0779 17.6694 24.8768C17.4081 24.677 17.157 24.4651 16.9178 24.2396C16.699 24.0334 16.4607 23.8462 16.2026 23.6778C15.8974 23.4787 15.6402 23.2272 15.4356 22.9273C15.2611 22.6717 15.0706 22.431 14.8646 22.2057C14.6347 21.9542 14.434 21.6804 14.2623 21.3857C14.1117 21.1273 13.9345 20.8849 13.7305 20.6595C13.4836 20.3867 13.3043 20.072 13.1956 19.7205C13.1039 19.4238 12.9928 19.138 12.8625 18.8639C12.7186 18.5613 12.6014 18.2477 12.5114 17.9247C12.4208 17.5991 12.3624 17.2662 12.3366 16.9285C12.3105 16.5861 12.3255 16.2432 12.383 15.9032C12.4345 15.599 12.4685 15.2928 12.4818 14.9859C12.4964 14.6514 12.5363 14.319 12.6022 13.9908C12.6609 13.6975 12.6894 13.3987 12.6887 13.0944C12.6878 12.7402 12.7413 12.3927 12.8457 12.0559C12.9387 11.756 13.0186 11.4536 13.087 11.1497C13.1552 10.8462 13.2086 10.5381 13.2487 10.2289C13.2911 9.90262 13.3477 9.57818 13.4178 9.25754C13.4879 8.93734 13.5733 8.62068 13.6704 8.30666C13.762 8.01066 13.8361 7.70927 13.8936 7.40565C13.9523 7.09615 14.0035 6.78463 14.0469 6.47107C14.094 6.13148 14.1765 5.80028 14.2951 5.47844C14.4017 5.18937 14.4875 4.89444 14.5521 4.59535C14.5854 4.44137 14.6051 4.3327 14.6143 4.2649C14.6149 4.26015 14.6171 4.25538 14.6176 4.25144C14.6167 4.24878 14.6125 4.24742 14.6119 4.24541C14.5998 4.19841 14.6024 4.15549 14.6031 4.13586C14.6049 4.09183 14.6127 4.04501 14.621 4.00469C14.639 3.91845 14.671 3.79881 14.7144 3.65334C14.8036 3.35446 14.9148 3.05183 15.0467 2.74555C15.1964 2.39787 15.4281 2.11483 15.7391 1.9051C16.0609 1.68851 16.4218 1.59948 16.8068 1.64261C17.1323 1.67909 17.4562 1.73312 17.7777 1.80484C18.0804 1.87238 18.3874 1.92635 18.6979 1.96856C19.0245 2.01294 19.3479 2.0722 19.6681 2.14239ZM19.543 2.71926C19.2382 2.65247 18.9289 2.59875 18.6179 2.55649C18.2909 2.51205 17.9669 2.45423 17.6476 2.383C17.3471 2.31599 17.0449 2.26598 16.741 2.23191C16.4962 2.20448 16.2769 2.25809 16.0713 2.39652C15.8557 2.54172 15.6955 2.73354 15.5898 2.97907C15.4662 3.26611 15.3649 3.54832 15.2826 3.82381C15.2615 3.89458 15.2445 3.95479 15.2311 4.00488L15.2009 4.12771C15.2085 4.16157 15.2122 4.19042 15.2125 4.2069C15.2133 4.25047 15.2086 4.29915 15.2028 4.34258C15.1904 4.43436 15.1659 4.56277 15.1318 4.7208C15.0612 5.0472 14.9663 5.36888 14.8502 5.68384C14.7464 5.96551 14.6755 6.25601 14.6344 6.55313C14.5896 6.87629 14.5367 7.19845 14.4762 7.51756C14.4145 7.84276 14.3332 8.16402 14.2352 8.48092C14.1429 8.77944 14.0631 9.08101 13.9966 9.38527C13.93 9.68945 13.8774 9.99691 13.8372 10.3066C13.7947 10.6336 13.7374 10.9586 13.6652 11.2797C13.5932 11.5994 13.5078 11.917 13.4101 12.2321C13.3235 12.5112 13.2818 12.7979 13.2825 13.0924C13.2833 13.4363 13.25 13.7762 13.1831 14.1094C13.1234 14.4075 13.087 14.7082 13.0737 15.012C13.0593 15.3438 13.024 15.6753 12.9684 16.004C12.9189 16.2963 12.9046 16.5889 12.9269 16.8825C12.9498 17.1816 13.0021 17.4762 13.0823 17.7644C13.1632 18.0549 13.2677 18.337 13.397 18.609C13.5398 18.9093 13.6608 19.2213 13.7608 19.5445C13.8439 19.8135 13.9798 20.0531 14.1688 20.2618C14.4002 20.5175 14.6027 20.7925 14.7744 21.0872C14.925 21.3458 15.1018 21.5852 15.3034 21.8057C15.5287 22.0521 15.7349 22.316 15.925 22.5947C16.0853 22.8295 16.2868 23.0242 16.5269 23.1808C16.8136 23.3679 17.0794 23.5771 17.3242 23.8078C17.5488 24.0194 17.7846 24.22 18.03 24.4076C18.2738 24.5939 18.5291 24.7638 18.7936 24.9189C19.0722 25.0823 19.3491 25.2528 19.624 25.4302C19.8665 25.5867 20.1271 25.6983 20.4075 25.763C20.7138 25.8336 21.022 25.8911 21.3299 25.9369C21.6443 25.9836 21.9629 26.0281 22.2814 26.0705C22.561 26.1075 22.8375 26.0883 23.111 26.0118C23.4236 25.9243 23.7341 25.8394 24.041 25.7562C24.3232 25.6796 24.5942 25.5673 24.8524 25.4212C25.0953 25.2836 25.2973 25.1021 25.4625 24.8773C25.6431 24.6316 25.8033 24.3758 25.9399 24.1079C26.0835 23.8264 26.2262 23.5397 26.3693 23.2507C26.4948 22.9973 26.5649 22.731 26.5777 22.451C26.5919 22.1384 26.5912 21.8265 26.5779 21.5166C26.566 21.2427 26.4952 20.9838 26.3641 20.7374C26.223 20.4723 26.0538 20.2259 25.8567 19.9979C25.6374 19.7443 25.4338 19.4791 25.2481 19.2053C25.0617 18.9305 24.8932 18.6426 24.7423 18.3423C24.6059 18.0708 24.4455 17.8163 24.2597 17.5803C24.0567 17.3225 23.8623 17.0579 23.6802 16.7852C23.4978 16.5121 23.329 16.2309 23.1719 15.9431C23.0135 15.653 22.8707 15.3539 22.7453 15.0496C22.6136 14.7296 22.5311 14.4008 22.4983 14.0643C22.4667 13.7385 22.4654 13.406 22.4948 13.0694C22.5243 12.7326 22.5838 12.4003 22.6744 12.0746C22.7565 11.7792 22.8201 11.4792 22.862 11.1745C22.9085 10.8371 22.9867 10.5063 23.1001 10.184C23.2023 9.89345 23.2846 9.59753 23.3439 9.29769C23.4066 8.98056 23.4753 8.66405 23.5481 8.3492C23.6192 8.04181 23.6837 7.73267 23.742 7.4221C23.8025 7.10044 23.8726 6.78014 23.9557 6.46415C24.0358 6.15942 24.1092 5.85254 24.174 5.54518C24.2338 5.26155 24.2509 4.97789 24.2253 4.69509C24.204 4.46285 24.108 4.28629 23.9311 4.14627C23.7191 3.97896 23.4782 3.85432 23.2092 3.77614C22.9079 3.68857 22.604 3.60553 22.298 3.52616C21.9881 3.44578 21.6765 3.36352 21.3666 3.28123C21.0482 3.19662 20.7334 3.09673 20.4229 2.98047C20.1347 2.87252 19.8414 2.78472 19.543 2.71926Z" fill="#1A1C20"/>
<path d="M22.173 4.67715C22.5085 4.71888 22.8399 4.78957 23.1648 4.88946C23.3214 4.93762 23.4508 4.98254 23.5518 5.02046L23.8062 5.13994L23.8241 5.15398L23.8401 5.16719L23.8644 5.1949C23.9846 5.2565 24.0541 5.38704 24.0196 5.5234C23.9789 5.68179 23.8178 5.77842 23.6594 5.73792L23.6258 5.72966L23.55 5.70856L23.4959 5.65712L23.4568 5.62149C23.4419 5.61421 23.4078 5.59845 23.3445 5.57467C23.2593 5.54268 23.1413 5.50353 22.9899 5.45697C22.6979 5.36719 22.4011 5.30217 22.1002 5.26472C21.7756 5.2244 21.4516 5.17503 21.1312 5.11508C20.8114 5.05526 20.4929 4.98679 20.1759 4.90925C19.8747 4.83554 19.5711 4.77708 19.2651 4.73608C18.9507 4.69398 18.6338 4.65571 18.3164 4.61997C17.9746 4.58147 17.6392 4.50495 17.3145 4.39089C17.0318 4.29174 16.5953 4.18234 15.995 4.06715L15.9902 4.0681L15.9494 4.05811C15.7902 4.02085 15.6902 3.86038 15.7274 3.70108C15.7647 3.54202 15.9247 3.44393 16.0839 3.48103L16.1064 3.48656C16.7148 3.6033 17.1865 3.71725 17.5114 3.83127C17.7941 3.93057 18.0851 3.99725 18.3825 4.03075C18.7039 4.06695 19.0238 4.10694 19.3423 4.14959C19.6696 4.1934 19.9951 4.25504 20.3171 4.33382C20.6234 4.40876 20.9321 4.47417 21.241 4.53197C21.5494 4.58964 21.8606 4.63835 22.173 4.67715Z" fill="#F3F4F5"/>
<path d="M21.7598 6.10538C22.083 6.1668 22.4035 6.24146 22.7197 6.33127C22.8744 6.37521 22.999 6.4127 23.0928 6.44209C23.1781 6.46881 23.2575 6.49689 23.3072 6.52073L23.3245 6.52746L23.341 6.53865L23.3589 6.55269C23.5006 6.60412 23.584 6.74982 23.5459 6.89861C23.5049 7.0567 23.3439 7.15368 23.1858 7.11313L23.1498 7.1043L23.1032 7.09038L23.0644 7.06408L23.0397 7.04839C23.0345 7.04643 23.0268 7.04406 23.0176 7.04084C22.9929 7.03215 22.9588 7.02219 22.9156 7.00868C22.8292 6.98161 22.7107 6.94503 22.5583 6.90175C22.2588 6.81668 21.954 6.74616 21.6479 6.68799C21.3287 6.62733 21.0104 6.55852 20.695 6.48274C20.3822 6.40754 20.0689 6.32805 19.7568 6.2454C19.4557 6.16569 19.1525 6.09989 18.8472 6.04861C18.5354 5.99625 18.2207 5.94879 17.9051 5.90558C17.5663 5.85918 17.2355 5.77858 16.9137 5.66234C16.6324 5.56066 16.1951 5.44857 15.5941 5.32894L15.547 5.31738C15.3883 5.27843 15.2912 5.11789 15.3299 4.95907C15.3687 4.80011 15.5293 4.70315 15.6882 4.74195L15.7108 4.74748C16.3193 4.86863 16.7913 4.98677 17.1153 5.10388C17.3979 5.20596 17.6879 5.27654 17.9852 5.31731C18.3067 5.36132 18.6274 5.41136 18.9451 5.46471C19.2688 5.51908 19.5905 5.58832 19.9094 5.67278C20.2173 5.75429 20.5253 5.83258 20.8338 5.90673C21.1402 5.98034 21.4497 6.04646 21.7598 6.10538Z" fill="#F3F4F5"/>
<path d="M3.45629 21.0621C2.93167 19.0611 2.71661 13.0578 2.80412 8.66271C2.82954 7.38595 2.84225 6.74758 3.27427 6.32408C3.70629 5.90057 4.36468 5.90057 5.68145 5.90057H9.30514C10.8193 5.90057 11.5764 5.90057 12.0103 6.33472C12.4442 6.76886 12.4438 7.55698 12.443 9.13322C12.4417 11.6862 12.5408 14.616 12.5408 15.7965C12.5408 17.9955 18.7495 21.2942 18.7495 23.2733C18.7495 25.2525 18.7495 27.8914 14.5712 28.5511C10.4986 29.1942 4.33658 24.6139 3.57291 21.5309L3.46566 21.098L3.45629 21.0621Z" fill="#1A1C20"/>
<path d="M6.90455 5.54854C7.23854 5.54025 7.57288 5.55517 7.90659 5.59462C8.21672 5.6313 8.52729 5.65143 8.83726 5.65734C9.15662 5.6634 9.4764 5.66907 9.79531 5.67328C10.1175 5.67752 10.4385 5.68783 10.7582 5.70134C11.1123 5.71631 11.4505 5.79523 11.7675 5.93973C12.1236 6.10225 12.371 6.37785 12.499 6.74982C12.6107 7.0751 12.6726 7.41343 12.684 7.76122C12.6946 8.08468 12.6963 8.40899 12.6909 8.73347C12.6858 9.04618 12.6924 9.36026 12.7096 9.67315C12.7274 9.99682 12.74 10.3214 12.7443 10.6451C12.7485 10.9615 12.7576 11.2779 12.772 11.5941C12.7872 11.9281 12.7771 12.2639 12.7443 12.5986C12.7149 12.8992 12.7152 13.2 12.7464 13.4991C12.7809 13.8312 12.7937 14.1637 12.7834 14.4966C12.7742 14.7983 12.7931 15.0988 12.8392 15.3972C12.8855 15.6961 12.9562 15.9828 13.052 16.2558C13.1441 16.5185 13.2768 16.7669 13.448 17.0011C13.6295 17.2493 13.8251 17.4881 14.0336 17.7162C14.243 17.9454 14.4615 18.1659 14.6909 18.3759C14.9213 18.5869 15.1596 18.7898 15.406 18.9823C15.6744 19.192 15.9216 19.4272 16.1444 19.6884C16.346 19.9248 16.5607 20.1453 16.7878 20.3502C17.0161 20.5562 17.2574 20.7504 17.5123 20.9313C17.7942 21.1314 18.0509 21.3593 18.2808 21.6163C18.5253 21.8897 18.6998 22.2044 18.8016 22.5539C18.8932 22.8685 18.9712 23.1881 19.0351 23.5119C19.1054 23.8681 19.1005 24.2259 19.0213 24.5816C18.9507 24.8983 18.8789 25.2115 18.8061 25.5212C18.7299 25.8455 18.6274 26.1638 18.4984 26.4748C18.3593 26.8101 18.156 27.1051 17.8917 27.3542C17.6404 27.5909 17.365 27.7927 17.0657 27.9584C16.7885 28.1118 16.5072 28.267 16.2255 28.4258C15.9082 28.6047 15.5677 28.7154 15.2068 28.7547C14.8846 28.7897 14.5635 28.8222 14.2442 28.852C13.9185 28.8824 13.5902 28.9004 13.2602 28.905C12.9035 28.91 12.5544 28.8529 12.2166 28.7363C11.9158 28.6325 11.6144 28.5363 11.3136 28.4466C10.9964 28.3521 10.6843 28.2369 10.3809 28.1043C10.0794 27.9725 9.78513 27.8266 9.49906 27.6646C9.2374 27.5165 8.96138 27.3914 8.6706 27.2894C8.32674 27.1688 8.01703 26.9857 7.74686 26.7433C7.51649 26.5366 7.27411 26.3483 7.02027 26.1785C6.73712 25.9891 6.47699 25.771 6.23998 25.5257C6.0322 25.3107 5.80224 25.1174 5.55046 24.9471C5.24564 24.741 4.99656 24.4782 4.80725 24.1626C4.64747 23.8963 4.47143 23.6453 4.27954 23.4101C4.06772 23.1505 3.87911 22.8739 3.71476 22.5816C3.54916 22.287 3.41313 21.9775 3.30764 21.6558C3.20067 21.3294 3.13354 20.9929 3.10841 20.6489C3.08589 20.3412 3.04591 20.0357 2.98575 19.7345C2.92022 19.4062 2.87979 19.0738 2.86552 18.7394C2.8527 18.4405 2.80911 18.1436 2.73593 17.8482C2.6507 17.5044 2.6198 17.1541 2.64099 16.8022C2.65985 16.4887 2.66538 16.176 2.65936 15.8646C2.65332 15.5536 2.63168 15.2416 2.59699 14.9318C2.5604 14.6048 2.53804 14.2763 2.52977 13.9481C2.52153 13.6205 2.52899 13.2926 2.54848 12.9645C2.56688 12.6552 2.56702 12.3448 2.55056 12.0362C2.53377 11.7216 2.50927 11.4069 2.47676 11.092C2.44154 10.751 2.44274 10.4097 2.48126 10.0688C2.51589 9.7627 2.52893 9.45583 2.52041 9.14995C2.51602 8.99248 2.50931 8.88224 2.50205 8.8142C2.50156 8.80943 2.50252 8.80428 2.50205 8.80034C2.5006 8.79796 2.49616 8.79766 2.49512 8.79584C2.4721 8.75309 2.4644 8.71079 2.46047 8.69154C2.45172 8.64835 2.44809 8.60103 2.44661 8.55988C2.4435 8.47185 2.44604 8.34804 2.45354 8.19641C2.46898 7.88488 2.50487 7.56446 2.55991 7.2356C2.62246 6.86226 2.78007 6.53214 3.03218 6.25434C3.29307 5.96731 3.62238 5.79484 4.00651 5.745C4.33135 5.70286 4.65881 5.67815 4.98811 5.6712C5.29825 5.66464 5.60918 5.64392 5.92086 5.61091C6.24861 5.57619 6.57677 5.55669 6.90455 5.54854ZM6.92048 6.13861C6.60859 6.14636 6.29536 6.16791 5.98323 6.20098C5.65502 6.23575 5.32662 6.25679 4.99955 6.26369C4.69176 6.27022 4.38633 6.29366 4.08308 6.33299C3.83879 6.36468 3.63861 6.469 3.47187 6.65245C3.29711 6.84484 3.18721 7.06931 3.14306 7.33296C3.09146 7.64118 3.06025 7.93941 3.04604 8.22656C3.04239 8.30032 3.04021 8.36286 3.03911 8.4147V8.54117C3.0545 8.57226 3.06501 8.59939 3.06925 8.61532C3.08042 8.65744 3.08743 8.70584 3.09212 8.74941C3.10199 8.84149 3.10876 8.97205 3.11326 9.13367C3.12255 9.46746 3.10699 9.8025 3.06925 10.1361C3.0356 10.4343 3.03601 10.7334 3.06683 11.0317C3.10033 11.3563 3.12575 11.6817 3.14306 12.0061C3.16065 12.3366 3.15825 12.668 3.13855 12.9991C3.12001 13.311 3.11442 13.6229 3.12227 13.9343C3.13012 14.2455 3.15231 14.5567 3.18706 14.867C3.22374 15.1948 3.24547 15.5241 3.25185 15.8531C3.25819 16.1808 3.2509 16.5096 3.23106 16.8389C3.21352 17.1306 3.24127 17.4189 3.31214 17.7048C3.39488 18.0386 3.44353 18.3766 3.45802 18.7162C3.47102 19.0199 3.5073 19.3206 3.56681 19.6188C3.63187 19.9445 3.67662 20.2749 3.7009 20.6073C3.72254 20.903 3.77835 21.1906 3.86999 21.4704C3.96344 21.7554 4.08449 22.0291 4.23103 22.2899C4.37882 22.5528 4.54748 22.8018 4.73795 23.0352C4.94816 23.2927 5.14005 23.5669 5.31416 23.857C5.45901 24.0985 5.64809 24.2988 5.88136 24.4565C6.16702 24.6497 6.42921 24.8685 6.66616 25.1138C6.8741 25.329 7.10287 25.5194 7.35117 25.6855C7.62868 25.8711 7.89183 26.0783 8.1429 26.3036C8.35455 26.4935 8.59655 26.6345 8.86706 26.7294C9.19008 26.8428 9.4981 26.9827 9.7908 27.1483C10.0594 27.3004 10.3362 27.439 10.6193 27.5627C10.9004 27.6856 11.1889 27.7897 11.4827 27.8774C11.7922 27.9697 12.1017 28.0693 12.411 28.176C12.6838 28.2702 12.9635 28.3165 13.2512 28.3125C13.5656 28.3081 13.8786 28.2905 14.1884 28.2616C14.505 28.2321 14.825 28.1994 15.1444 28.1646C15.4248 28.1339 15.6888 28.0494 15.9361 27.9099C16.2189 27.7505 16.5002 27.5941 16.7785 27.4401C17.0343 27.2985 17.2707 27.1248 17.4867 26.9214C17.6897 26.7299 17.8427 26.5055 17.9496 26.2478C18.0664 25.9661 18.1611 25.6795 18.2299 25.3868C18.3022 25.0791 18.3725 24.7667 18.4426 24.452C18.5041 24.176 18.5087 23.9007 18.4544 23.6256C18.3938 23.3187 18.3187 23.0159 18.232 22.7181C18.1552 22.4549 18.0247 22.2204 17.8387 22.0123C17.6385 21.7885 17.4154 21.5895 17.1696 21.415C16.8962 21.2209 16.6353 21.0119 16.3897 20.7903C16.1432 20.5678 15.911 20.3283 15.6929 20.0727C15.4957 19.8415 15.2793 19.6326 15.0425 19.4476C14.784 19.2456 14.5322 19.0349 14.2903 18.8135C14.0481 18.5918 13.8172 18.3588 13.5959 18.1168C13.3731 17.8728 13.1631 17.6163 12.9688 17.3507C12.7646 17.0712 12.6061 16.7716 12.4941 16.4526C12.3857 16.1437 12.3053 15.8211 12.2536 15.4872C12.202 15.153 12.1805 14.8161 12.1909 14.4783C12.2003 14.1718 12.1906 13.8653 12.1587 13.5594C12.1234 13.2206 12.1206 12.8807 12.1539 12.5407C12.1839 12.2342 12.1934 11.9271 12.1795 11.6218C12.1648 11.2989 12.1561 10.9751 12.1518 10.652C12.1476 10.3365 12.1365 10.0209 12.1192 9.70537C12.1013 9.37858 12.0931 9.05079 12.0984 8.72411C12.1036 8.40908 12.1018 8.09354 12.0915 7.77958C12.082 7.48988 12.031 7.21032 11.9387 6.94177C11.8627 6.72129 11.7274 6.57269 11.5222 6.47886C11.2765 6.36688 11.0127 6.30325 10.7329 6.29141C10.4194 6.27817 10.1044 6.26995 9.78838 6.26577C9.46827 6.26155 9.14604 6.25592 8.82548 6.24983C8.49604 6.24355 8.16651 6.22155 7.8373 6.18262C7.53162 6.14647 7.22588 6.13107 6.92048 6.13861Z" fill="#1A1C20"/>
<path d="M9.9095 23.0775C10.0616 23.0157 10.2212 23.012 10.3752 23.0754C10.4629 23.1117 10.5561 23.145 10.652 23.1783C10.8329 23.2414 10.951 23.381 10.9888 23.5675C10.9997 23.6214 11.0087 23.6685 11.0134 23.7043C11.0156 23.721 11.0188 23.7439 11.019 23.766C11.019 23.7764 11.0177 23.7968 11.0134 23.82C11.0111 23.8322 11.0068 23.8528 10.9964 23.8762L10.9947 23.8783V23.8821C10.9896 23.9023 10.9817 23.9362 10.9722 23.985C10.9387 24.1551 10.8388 24.2895 10.6839 24.3703C10.587 24.4208 10.4878 24.4659 10.3866 24.5051C10.2371 24.5629 10.0817 24.5627 9.93167 24.5106C9.76926 24.454 9.64587 24.3411 9.57618 24.1832C9.52139 24.059 9.49096 23.9293 9.49025 23.7958C9.48955 23.6632 9.51829 23.5344 9.57063 23.4105C9.63642 23.2551 9.7538 23.141 9.9095 23.0775ZM10.1936 23.5172C10.1635 23.5048 10.1328 23.5028 10.089 23.5207C10.0486 23.5372 10.0257 23.5593 10.0103 23.5955C9.98164 23.6633 9.96875 23.7299 9.9691 23.7941C9.96954 23.8572 9.98411 23.9225 10.0141 23.9905C10.0294 24.0249 10.0502 24.0442 10.089 24.0577C10.14 24.0754 10.1784 24.0737 10.2144 24.0598C10.299 24.0271 10.3818 23.9879 10.4632 23.9455C10.4859 23.9336 10.4964 23.9228 10.5023 23.8932C10.5123 23.8422 10.5206 23.7984 10.5287 23.766C10.5302 23.7597 10.5323 23.7521 10.5342 23.7452C10.531 23.7256 10.5265 23.6985 10.5193 23.6631C10.5174 23.6535 10.5151 23.6473 10.5138 23.6444C10.5126 23.642 10.5117 23.6406 10.5117 23.6406L10.51 23.6388C10.5078 23.6374 10.5032 23.6341 10.4951 23.6312C10.3912 23.5951 10.2902 23.5571 10.1936 23.5172ZM10.9646 23.925C10.9524 23.9407 10.9384 23.9585 10.9178 23.9735C10.9337 23.9619 10.9456 23.9504 10.9535 23.9417C10.9584 23.9362 10.9611 23.9296 10.9646 23.925ZM10.6354 23.5862C10.6157 23.6005 10.6004 23.6164 10.5886 23.6312C10.6002 23.6166 10.6157 23.6005 10.6354 23.5862Z" fill="#F3F4F5"/>
<path d="M5.73762 14.6101C5.88973 14.5483 6.04935 14.5446 6.20331 14.608C6.29105 14.6443 6.38425 14.6776 6.48015 14.7109C6.66103 14.774 6.77908 14.9136 6.81694 15.1C6.82785 15.154 6.83681 15.2011 6.84154 15.2369C6.84375 15.2536 6.84689 15.2765 6.84708 15.2986C6.84715 15.309 6.84585 15.3294 6.84154 15.3526C6.83925 15.3648 6.83496 15.3854 6.82456 15.4088L6.82283 15.4109V15.4147C6.81777 15.4349 6.80985 15.4688 6.80031 15.5176C6.76683 15.6877 6.66694 15.8221 6.51203 15.9029C6.41508 15.9534 6.31595 15.9985 6.21474 16.0376C6.06521 16.0955 5.90984 16.0953 5.7598 16.0432C5.59738 15.9866 5.47399 15.8737 5.4043 15.7158C5.34951 15.5916 5.31909 15.4619 5.31837 15.3284C5.31767 15.1958 5.34641 15.067 5.39876 14.9431C5.46455 14.7877 5.58192 14.6736 5.73762 14.6101ZM6.02175 15.0498C5.99163 15.0374 5.96093 15.0354 5.91711 15.0533C5.87676 15.0698 5.85385 15.0919 5.83845 15.1281C5.80976 15.1959 5.79688 15.2625 5.79722 15.3267C5.79767 15.3898 5.81224 15.4551 5.84226 15.5231C5.85753 15.5575 5.8783 15.5768 5.91711 15.5903C5.96809 15.608 6.00656 15.6063 6.04253 15.5924C6.12708 15.5597 6.20992 15.5205 6.29131 15.4781C6.31403 15.4661 6.32454 15.4554 6.33047 15.4257C6.34044 15.3748 6.34872 15.331 6.3568 15.2986C6.35837 15.2923 6.36046 15.2846 6.36234 15.2778C6.35912 15.2582 6.35462 15.2311 6.34745 15.1957C6.34552 15.1861 6.34326 15.1799 6.3419 15.177C6.34076 15.1746 6.33987 15.1732 6.33982 15.1732L6.33809 15.1714C6.33593 15.17 6.33132 15.1667 6.32319 15.1638C6.21932 15.1277 6.1183 15.0897 6.02175 15.0498ZM6.79268 15.4576C6.78057 15.4733 6.76648 15.4911 6.74591 15.5061C6.76178 15.4945 6.77371 15.4829 6.7816 15.4743C6.78651 15.4688 6.78921 15.4622 6.79268 15.4576ZM6.46352 15.1188C6.44384 15.1331 6.42853 15.149 6.41674 15.1638C6.42831 15.1492 6.44386 15.1331 6.46352 15.1188Z" fill="#F3F4F5"/>
<path d="M11.7103 18.267C11.8624 18.2052 12.022 18.2015 12.176 18.265C12.2637 18.3012 12.3569 18.3345 12.4528 18.3679C12.6337 18.4309 12.7517 18.5705 12.7896 18.757C12.8005 18.8109 12.8095 18.858 12.8142 18.8938C12.8164 18.9106 12.8195 18.9334 12.8197 18.9555C12.8198 18.9659 12.8185 18.9863 12.8142 19.0096C12.8119 19.0217 12.8076 19.0424 12.7972 19.0657L12.7955 19.0678V19.0716C12.7904 19.0918 12.7825 19.1257 12.773 19.1745C12.7395 19.3446 12.6396 19.479 12.4847 19.5598C12.3877 19.6103 12.2886 19.6554 12.1874 19.6946C12.0379 19.7524 11.8825 19.7522 11.7325 19.7001C11.57 19.6435 11.4467 19.5306 11.377 19.3727C11.3222 19.2485 11.2917 19.1188 11.291 18.9853C11.2903 18.8527 11.3191 18.7239 11.3714 18.6C11.4372 18.4446 11.5546 18.3305 11.7103 18.267ZM11.9944 18.7067C11.9643 18.6943 11.9336 18.6923 11.8898 18.7102C11.8494 18.7267 11.8265 18.7488 11.8111 18.785C11.7824 18.8528 11.7695 18.9194 11.7699 18.9836C11.7703 19.0467 11.7849 19.112 11.8149 19.18C11.8302 19.2144 11.851 19.2337 11.8898 19.2473C11.9407 19.265 11.9792 19.2633 12.0152 19.2493C12.0997 19.2166 12.1826 19.1774 12.264 19.135C12.2867 19.1231 12.2972 19.1124 12.3031 19.0827C12.3131 19.0317 12.3214 18.9879 12.3295 18.9555C12.331 18.9492 12.3331 18.9416 12.335 18.9347C12.3318 18.9151 12.3273 18.8881 12.3201 18.8526C12.3182 18.8431 12.3159 18.8368 12.3146 18.8339C12.3134 18.8316 12.3125 18.8301 12.3125 18.8301L12.3107 18.8283C12.3086 18.8269 12.304 18.8236 12.2958 18.8207C12.192 18.7846 12.091 18.7466 11.9944 18.7067ZM12.7653 19.1145C12.7532 19.1302 12.7391 19.148 12.7186 19.1631C12.7344 19.1515 12.7464 19.1399 12.7543 19.1312C12.7592 19.1257 12.7619 19.1192 12.7653 19.1145ZM12.4362 18.7757C12.4165 18.79 12.4012 18.8059 12.3894 18.8207C12.401 18.8061 12.4165 18.79 12.4362 18.7757Z" fill="#F3F4F5"/>
<path d="M21.8275 18.267C21.9796 18.2052 22.1392 18.2015 22.2931 18.265C22.3809 18.3012 22.4741 18.3345 22.57 18.3679C22.7509 18.4309 22.8689 18.5705 22.9068 18.757C22.9177 18.8109 22.9267 18.858 22.9314 18.8938C22.9336 18.9106 22.9367 18.9334 22.9369 18.9555C22.937 18.9659 22.9357 18.9863 22.9314 19.0096C22.9291 19.0217 22.9248 19.0424 22.9144 19.0657L22.9127 19.0678V19.0716C22.9076 19.0918 22.8997 19.1257 22.8902 19.1745C22.8567 19.3446 22.7568 19.479 22.6019 19.5598C22.5049 19.6103 22.4058 19.6554 22.3046 19.6946C22.1551 19.7524 21.9997 19.7522 21.8496 19.7001C21.6872 19.6435 21.5638 19.5306 21.4941 19.3727C21.4394 19.2485 21.4089 19.1188 21.4082 18.9853C21.4075 18.8527 21.4363 18.7239 21.4886 18.6C21.5544 18.4446 21.6718 18.3305 21.8275 18.267ZM22.1116 18.7067C22.0815 18.6943 22.0508 18.6923 22.0069 18.7102C21.9666 18.7267 21.9437 18.7488 21.9283 18.785C21.8996 18.8528 21.8867 18.9194 21.8871 18.9836C21.8875 19.0467 21.9021 19.112 21.9321 19.18C21.9474 19.2144 21.9681 19.2337 22.0069 19.2473C22.0579 19.265 22.0964 19.2633 22.1324 19.2493C22.2169 19.2166 22.2998 19.1774 22.3812 19.135C22.4039 19.1231 22.4144 19.1124 22.4203 19.0827C22.4303 19.0317 22.4386 18.9879 22.4466 18.9555C22.4482 18.9492 22.4503 18.9416 22.4522 18.9347C22.449 18.9151 22.4445 18.8881 22.4373 18.8526C22.4354 18.8431 22.4331 18.8368 22.4317 18.8339C22.4306 18.8316 22.4297 18.8301 22.4297 18.8301L22.4279 18.8283C22.4258 18.8269 22.4212 18.8236 22.413 18.8207C22.3092 18.7846 22.2081 18.7466 22.1116 18.7067ZM22.8825 19.1145C22.8704 19.1302 22.8563 19.148 22.8358 19.1631C22.8516 19.1515 22.8636 19.1399 22.8714 19.1312C22.8764 19.1257 22.8791 19.1192 22.8825 19.1145ZM22.5534 18.7757C22.5337 18.79 22.5184 18.8059 22.5066 18.8207C22.5182 18.8061 22.5337 18.79 22.5534 18.7757Z" fill="#F3F4F5"/>
<path d="M17.5365 10.7055C17.6886 10.6437 17.8482 10.64 18.0021 10.7034C18.0899 10.7397 18.1831 10.773 18.279 10.8063C18.4599 10.8694 18.5779 11.009 18.6158 11.1954C18.6267 11.2494 18.6356 11.2965 18.6404 11.3323C18.6426 11.349 18.6457 11.3719 18.6459 11.394C18.646 11.4044 18.6447 11.4248 18.6404 11.448C18.6381 11.4602 18.6338 11.4808 18.6234 11.5042L18.6217 11.5062V11.5101C18.6166 11.5303 18.6087 11.5642 18.5991 11.613C18.5657 11.7831 18.4658 11.9175 18.3109 11.9983C18.2139 12.0488 18.1148 12.0939 18.0136 12.133C17.864 12.1909 17.7087 12.1907 17.5586 12.1386C17.3962 12.082 17.2728 11.9691 17.2031 11.8112C17.1483 11.687 17.1179 11.5573 17.1172 11.4238C17.1165 11.2912 17.1452 11.1624 17.1976 11.0385C17.2634 10.8831 17.3808 10.769 17.5365 10.7055ZM17.8206 11.1452C17.7905 11.1328 17.7598 11.1308 17.7159 11.1487C17.6756 11.1652 17.6527 11.1873 17.6373 11.2235C17.6086 11.2913 17.5957 11.3579 17.596 11.4221C17.5965 11.4852 17.6111 11.5505 17.6411 11.6185C17.6564 11.6529 17.6771 11.6722 17.7159 11.6857C17.7669 11.7034 17.8054 11.7017 17.8414 11.6878C17.9259 11.6551 18.0088 11.6159 18.0901 11.5735C18.1129 11.5615 18.1234 11.5508 18.1293 11.5211C18.1393 11.4702 18.1476 11.4264 18.1556 11.394C18.1572 11.3877 18.1593 11.38 18.1612 11.3732C18.1579 11.3536 18.1534 11.3265 18.1463 11.2911C18.1443 11.2815 18.1421 11.2753 18.1407 11.2724C18.1396 11.27 18.1387 11.2686 18.1387 11.2686L18.1369 11.2668C18.1348 11.2654 18.1302 11.2621 18.122 11.2592C18.0182 11.2231 17.9171 11.1851 17.8206 11.1452ZM18.5915 11.553C18.5794 11.5687 18.5653 11.5865 18.5447 11.6015C18.5606 11.5899 18.5725 11.5783 18.5804 11.5697C18.5853 11.5642 18.588 11.5576 18.5915 11.553ZM18.2623 11.2142C18.2427 11.2285 18.2274 11.2444 18.2156 11.2592C18.2271 11.2446 18.2427 11.2285 18.2623 11.2142Z" fill="#F3F4F5"/>
<path d="M9.93785 7.41425C10.2736 7.37483 10.6124 7.36451 10.9517 7.38411C11.1152 7.39357 11.2516 7.40635 11.3588 7.4191L11.6343 7.47454L11.655 7.4839L11.6738 7.49291L11.7039 7.51404C11.8354 7.54521 11.934 7.65542 11.9329 7.79608C11.9312 7.95961 11.7977 8.09184 11.6343 8.09025H11.5996L11.521 8.08783L11.4562 8.05075L11.4097 8.02546C11.3935 8.02194 11.3566 8.01476 11.2895 8.00675C11.1991 7.99599 11.0752 7.98609 10.917 7.97695C10.612 7.95934 10.3083 7.96691 10.0071 8.00224C9.68233 8.04043 9.35593 8.06968 9.03039 8.08783C8.70556 8.10593 8.37993 8.11533 8.05364 8.11555C7.74349 8.11575 7.4347 8.13132 7.12782 8.1644C6.81242 8.19844 6.49549 8.2368 6.17878 8.2777C5.83766 8.32177 5.49368 8.32737 5.15109 8.29399C4.85296 8.26504 4.40294 8.26281 3.79251 8.29399L3.788 8.29607H3.74608C3.58252 8.29784 3.44716 8.16582 3.44533 8.00224C3.44372 7.83886 3.57573 7.70547 3.73915 7.70357H3.76236C4.38104 7.67197 4.86627 7.67025 5.20896 7.70357C5.50721 7.73263 5.80568 7.72806 6.10255 7.68971C6.42331 7.64828 6.74351 7.61089 7.06302 7.57641C7.39128 7.54099 7.72217 7.52326 8.05364 7.52305C8.369 7.52284 8.68432 7.51282 8.99817 7.49533C9.31136 7.47786 9.62523 7.45101 9.93785 7.41425Z" fill="#F3F4F5"/>
<path d="M9.87914 8.89913C10.2077 8.88177 10.5367 8.8779 10.8652 8.88978C11.026 8.89559 11.1559 8.90231 11.254 8.90849C11.3432 8.91411 11.427 8.92247 11.481 8.93378L11.4993 8.93621L11.518 8.94314L11.5388 8.95249C11.6886 8.9687 11.8043 9.09032 11.8028 9.24389C11.8007 9.4072 11.6674 9.53976 11.5042 9.53806H11.4671L11.4186 9.53563L11.3746 9.51935L11.3469 9.50999C11.3414 9.50933 11.3333 9.50886 11.3237 9.50791C11.2976 9.50537 11.2621 9.50383 11.2169 9.50098C11.1265 9.49529 11.0028 9.488 10.8445 9.48227C10.5333 9.47103 10.2205 9.47517 9.90929 9.49163C9.58483 9.50878 9.25931 9.5178 8.93496 9.51935C8.61319 9.52087 8.29004 9.51831 7.96721 9.51242C7.65577 9.50676 7.34564 9.51511 7.03689 9.53806C6.72159 9.56151 6.40471 9.59039 6.08785 9.62364C5.74782 9.6593 5.40734 9.65984 5.0671 9.62364C4.76965 9.59193 4.31822 9.58727 3.70609 9.61429H3.65758C3.49414 9.61429 3.36156 9.48152 3.36133 9.31804C3.36113 9.15441 3.49395 9.02199 3.65758 9.02179H3.68079C4.30063 8.99445 4.78725 8.99669 5.12981 9.03322C5.4286 9.06503 5.727 9.06449 6.02549 9.03322C6.34822 8.99935 6.6716 8.97154 6.99288 8.94764C7.32024 8.9233 7.6491 8.9139 7.97899 8.91992C8.29739 8.92573 8.61524 8.92836 8.93253 8.92685C9.24759 8.92535 9.56394 8.9158 9.87914 8.89913Z" fill="#F3F4F5"/>
<path d="M13.2166 14.4256C13.3656 14.3583 13.5428 14.425 13.6102 14.5739L13.6241 14.6061L13.64 14.6411L13.6449 14.6757C13.7535 15.274 13.8665 15.6955 13.9782 15.9557C14.0818 16.1968 14.2417 16.3936 14.4595 16.5482C14.7236 16.7357 14.9849 16.9266 15.2419 17.1223C15.5039 17.3218 15.7566 17.5351 15.9989 17.7588C16.2279 17.9701 16.4657 18.1704 16.7117 18.3606C16.961 18.5535 17.2156 18.7409 17.4753 18.923C17.7636 19.1251 18.0165 19.3678 18.2324 19.6475C18.4518 19.9319 18.6142 20.246 18.7161 20.5872C18.8035 20.8796 18.9101 21.1684 19.0401 21.4506C19.1892 21.7745 19.2848 22.1134 19.3225 22.4665C19.3567 22.7871 19.3918 23.1066 19.4268 23.4249C19.4616 23.7425 19.4722 24.0088 19.4361 24.1865L19.4313 24.2049L19.3966 24.3324C19.3895 24.4767 19.283 24.5978 19.135 24.6124C18.9722 24.6279 18.8268 24.509 18.8111 24.3463L18.8086 24.3113L18.8017 24.2558L18.8156 24.2049L18.8551 24.0639C18.8699 23.9848 18.8709 23.8045 18.8363 23.4897C18.8013 23.1707 18.7667 22.8506 18.7324 22.5293C18.7016 22.2406 18.6253 21.964 18.503 21.6984C18.3614 21.391 18.2424 21.0761 18.1468 20.7563C18.0659 20.4855 17.9383 20.2363 17.7626 20.0086C17.5831 19.7761 17.374 19.5766 17.1351 19.4091C16.8677 19.2217 16.605 19.0291 16.3482 18.8305C16.0884 18.6296 15.8378 18.4171 15.596 18.194C15.3675 17.9831 15.1301 17.7826 14.8833 17.5946C14.6313 17.4027 14.3737 17.2136 14.1147 17.0298C13.8098 16.813 13.5811 16.5314 13.4342 16.1895C13.2982 15.8728 13.1772 15.4109 13.0683 14.8192L13.043 14.7035C13.0404 14.5883 13.1052 14.4761 13.2166 14.4256Z" fill="#F3F4F5"/>
</svg>
