<svg width="30" height="30" viewBox="0 0 30 30" fill="none" xmlns="http://www.w3.org/2000/svg">
<g clip-path="url(#clip0_2030_2451)">
<path d="M18.5185 3.40008L19.4475 3.39864C19.6171 3.46607 20.1399 3.59155 20.2783 3.74038C20.4944 3.9727 20.6099 4.08881 20.5824 4.22683C20.5693 4.29219 20.5485 4.37824 20.3335 4.78283C20.1439 5.13957 19.7941 5.78229 19.5343 6.2082C19.2745 6.63411 19.1096 6.83706 18.9716 6.98944C18.8335 7.14181 18.7256 7.24063 18.4649 7.44468C18.2042 7.64873 17.8029 7.94892 17.5548 8.1197C17.3068 8.29048 17.2149 8.33063 17.005 8.39864C16.7952 8.46664 16.4771 8.55967 16.2371 8.60744C15.9972 8.6552 15.84 8.65761 15.5639 8.6356C15.2878 8.61358 14.9043 8.5685 14.5581 8.49835C14.2119 8.4282 13.912 8.33579 13.6001 8.20703C13.2883 8.07827 12.9739 7.91802 12.6697 7.73086C12.3655 7.5437 12.0801 7.33592 11.7798 7.0641C11.4795 6.79228 11.1737 6.4663 10.7671 5.91948C10.3605 5.37265 9.86802 4.62756 9.61536 4.23735C9.3627 3.84715 9.34326 3.81184 9.35088 3.78448C9.36487 3.73426 9.4286 3.65765 9.65822 3.5306L9.66207 3.52846C9.91722 3.38726 10.1125 3.27922 10.7875 3.29803C11.428 3.31588 12.6343 3.36161 14.1896 3.383C15.7447 3.40438 17.5928 3.40151 18.5182 3.40008L18.5185 3.40008Z" fill="#F3F4F5"/>
<path d="M10.649 3.03352C10.9833 2.97266 11.3197 2.96903 11.6561 3.02025C11.953 3.06552 12.2515 3.09496 12.5492 3.1113C12.8458 3.12757 13.1433 3.12969 13.4406 3.11359C13.7547 3.09659 14.069 3.08844 14.3827 3.09346C14.6961 3.09849 15.0097 3.1152 15.323 3.14242C15.6181 3.16809 15.9144 3.17553 16.2097 3.16438C16.511 3.15298 16.813 3.1319 17.1143 3.10215C17.4407 3.06991 17.7682 3.07188 18.0944 3.10673C18.3873 3.13806 18.6815 3.14616 18.9743 3.13327C19.2822 3.11972 19.5211 3.12041 19.6789 3.13556C19.8076 3.14793 19.93 3.20199 20.039 3.26916C20.1506 3.33801 20.2671 3.43222 20.3877 3.54461C20.5303 3.6776 20.6374 3.83576 20.6878 4.01818C20.7383 4.2015 20.7254 4.38847 20.6654 4.57137C20.5719 4.85663 20.463 5.14498 20.3369 5.4357C20.204 5.7418 20.0329 6.02735 19.8253 6.2895C19.6326 6.5329 19.4397 6.77267 19.2479 7.00924C19.0419 7.26334 18.8065 7.48946 18.5433 7.68734C18.2912 7.87682 18.0318 8.05412 17.7654 8.21628C17.503 8.37598 17.2344 8.53145 16.9587 8.6807C16.6382 8.85425 16.2915 8.92613 15.9274 8.89621C15.618 8.87078 15.3105 8.84408 15.005 8.81842C14.6715 8.7904 14.3482 8.71402 14.0386 8.58964C13.7656 8.48 13.4835 8.38549 13.1939 8.30504C12.8483 8.20898 12.5445 8.03462 12.2871 7.7848C12.0698 7.57392 11.8457 7.37515 11.6158 7.18952C11.3671 6.9886 11.1364 6.76724 10.9226 6.52697C10.7145 6.29302 10.5136 6.05191 10.3223 5.80266C10.1242 5.54449 9.95203 5.268 9.80482 4.97585C9.66825 4.70484 9.53106 4.45314 9.39347 4.22225C9.30112 4.06704 9.23924 3.87025 9.31569 3.66907C9.38986 3.47427 9.56172 3.36226 9.72932 3.2957C10.0202 3.18038 10.3279 3.09212 10.649 3.03352ZM11.5714 3.58259C11.2966 3.54067 11.022 3.54381 10.7492 3.59357C10.4634 3.64577 10.1942 3.72399 9.94025 3.82464C9.89504 3.84256 9.8678 3.85815 9.85377 3.86902C9.85746 3.88131 9.86506 3.90177 9.8826 3.93125C10.0278 4.17492 10.1717 4.43849 10.3136 4.72008C10.4448 4.98037 10.5973 5.22628 10.7735 5.45583C10.9565 5.69431 11.1482 5.92576 11.3472 6.14949C11.5405 6.36666 11.7493 6.56584 11.9736 6.74706C12.2171 6.94368 12.4536 7.15371 12.6829 7.3762C12.872 7.55975 13.0932 7.68542 13.3472 7.75597C13.657 7.84203 13.9587 7.94521 14.2518 8.06299C14.5083 8.16599 14.7748 8.22817 15.0516 8.25151C15.3569 8.27715 15.6649 8.30388 15.9741 8.32929C16.2287 8.35022 16.4644 8.29905 16.6874 8.1783C16.9548 8.03349 17.2158 7.88407 17.4698 7.72944C17.7203 7.57698 17.9658 7.41245 18.2033 7.2339C18.4294 7.06389 18.6291 6.86884 18.8054 6.65143C18.9958 6.41654 19.1873 6.17758 19.3788 5.93581C19.5557 5.71232 19.7012 5.46981 19.8144 5.20921C19.934 4.93353 20.0377 4.66108 20.1255 4.39338C20.1559 4.30034 20.1552 4.22878 20.1388 4.16918C20.1219 4.10823 20.0837 4.03718 20.001 3.96007C19.8969 3.86294 19.8102 3.79635 19.7411 3.75372C19.6715 3.71076 19.6345 3.70131 19.6254 3.70018C19.5103 3.68914 19.3048 3.68901 18.999 3.70247C18.6775 3.71663 18.3556 3.708 18.0345 3.67364C17.747 3.6429 17.4596 3.64071 17.172 3.66907C16.859 3.69999 16.5448 3.72174 16.2317 3.73358C15.9125 3.74565 15.5928 3.7366 15.274 3.70887C14.974 3.6828 14.674 3.66703 14.374 3.6622C14.0737 3.65739 13.7725 3.66378 13.4717 3.68005C13.1538 3.69726 12.8354 3.69744 12.5181 3.68005C12.2021 3.6627 11.8862 3.63058 11.5714 3.58259Z" fill="#1A1C20"/>
<path d="M7.24464 3.61544C7.90335 3.59233 8.39743 3.58646 8.67416 3.58528L9.67565 3.58097C9.77721 3.57862 9.88192 3.5772 9.98559 3.5781C10.0142 3.57835 10.0408 3.57858 10.0663 3.57929L10.2299 3.57858C10.2306 3.57858 10.1805 3.57935 10.1003 3.58058C10.2367 3.58742 10.3507 3.61561 10.5969 3.74869C10.9077 3.91666 11.001 4.05654 11.1877 4.33632C11.3983 4.65201 11.6435 4.96108 11.9312 5.08419C12.4223 5.29437 13.4513 5.8848 15.2109 5.55273C16.4117 5.32613 17.2876 5.14607 17.7879 4.84992C18.3445 4.52046 17.8217 3.83536 19.4278 3.44433C21.302 3.21005 22.9429 3.56611 23.4104 3.91288C24.4729 4.70113 25.2513 4.89436 26.1641 6.23851C26.8875 7.30374 27.5697 7.98137 28.0382 8.68418C28.7838 9.80246 29.7357 10.7884 29.7357 11.4954C29.7357 11.7297 29.7782 12.9346 29.7357 13.0494C29.6932 13.1641 29.4043 14.0218 29.0329 14.2207C27.4099 15.0898 28.1728 14.6699 27.8615 14.9236C27.3602 15.3321 26.4535 15.9702 25.5188 15.6264C25.2391 15.5234 24.8982 15.5048 24.721 15.2643C24.3271 14.7299 23.8708 13.9701 23.4402 13.5221C23.3217 13.3988 23.4279 13.6158 23.4104 13.8381C23.3501 14.6025 23.5626 15.6042 23.5871 17.5864C23.6061 19.119 23.7927 21.9682 23.5871 23.9117C23.3815 25.8552 23.3569 25.7068 23.1186 26.0201C22.9039 26.3024 21.8959 26.2227 21.4752 26.2886C20.4655 26.4468 19.2231 26.6304 16.9573 26.6451C15.3608 26.6554 12.5133 26.6699 10.8889 26.6019C8.87098 26.5174 8.3322 26.4614 8.1254 26.3212C8.02346 26.2521 7.93524 26.161 7.77509 25.8676C7.00134 24.4503 6.51424 23.7972 6.46387 20.553C6.43852 18.9205 6.48646 16.4526 6.49835 15.1463C6.51025 13.8401 6.49044 13.6265 6.42282 13.6598C5.89601 13.9198 4.84247 15.1559 4.10149 14.9161C3.6405 14.767 3.06769 14.459 2.64081 14.0198C1.91854 13.2768 0.323534 11.9873 0.177175 11.0554C0.137376 10.802 0.159433 10.5461 0.329238 10.2381C0.597651 9.75116 1.5782 8.12088 3.67897 6.23851C5.53669 4.57393 6.62365 3.63722 7.24464 3.61544Z" fill="#1A1C20"/>
<path d="M20.391 3.13517C20.7158 3.09746 21.0418 3.09359 21.367 3.12419C21.6763 3.15334 21.9865 3.18952 22.2959 3.2308C22.6321 3.27567 22.9533 3.37244 23.2581 3.5218C23.5547 3.66715 23.831 3.84481 24.0872 4.05303C24.3146 4.23785 24.5557 4.40195 24.8092 4.54628C25.1006 4.71219 25.3622 4.91664 25.5916 5.15986C25.8131 5.39471 26.0124 5.6482 26.1897 5.91758C26.3502 6.1616 26.5289 6.39398 26.725 6.61535C26.9372 6.85493 27.1358 7.10507 27.3185 7.36666C27.4918 7.61491 27.6709 7.85765 27.8561 8.09326C28.0426 8.33048 28.2335 8.5668 28.4299 8.80019C28.632 9.04036 28.8272 9.287 29.0142 9.53777C29.2032 9.79133 29.3789 10.0537 29.5408 10.3248C29.7128 10.6129 29.8367 10.9201 29.9119 11.2426C29.9866 11.5633 30.014 11.891 29.9943 12.225C29.9751 12.5482 29.9296 12.8607 29.8565 13.1625C29.7797 13.4797 29.6499 13.7791 29.4676 14.0584C29.2733 14.3562 29.0113 14.5844 28.6875 14.7384C28.4284 14.8616 28.1888 15.0095 27.9673 15.1808C27.7106 15.3793 27.4309 15.5431 27.1318 15.6741C26.8308 15.8058 26.5167 15.8969 26.1897 15.945C25.8319 15.9974 25.4848 15.9455 25.1583 15.7917C24.8369 15.6402 24.5763 15.416 24.3805 15.1227C24.224 14.8881 24.0418 14.6657 23.836 14.4561C23.7825 14.4016 23.7301 14.3596 23.6868 14.3206C23.6931 14.6211 23.7033 14.9211 23.7202 15.2206C23.7379 15.5328 23.7472 15.8462 23.7472 16.1586C23.7473 16.4455 23.7778 16.7324 23.8383 17.0184C23.9064 17.3406 23.9449 17.665 23.9513 17.9898C23.9574 18.2976 23.961 18.606 23.9627 18.9145C23.9645 19.2295 23.9531 19.5457 23.9293 19.8612C23.9073 20.1544 23.9085 20.4469 23.9316 20.7388C23.956 21.0466 23.9777 21.355 23.998 21.6635C24.019 21.9833 24.0183 22.3038 23.998 22.6235C23.9785 22.9308 23.9585 23.2384 23.938 23.5459C23.9173 23.8575 23.8902 24.1699 23.8561 24.4793C23.8203 24.805 23.7501 25.1219 23.6447 25.4283C23.5281 25.7674 23.3274 26.0441 23.0426 26.246C22.763 26.4441 22.4397 26.552 22.0845 26.5749C21.7835 26.5944 21.4827 26.6231 21.1845 26.6596C20.8769 26.6972 20.5679 26.7281 20.2579 26.7529C19.9465 26.7779 19.6342 26.795 19.3222 26.8037C19.026 26.812 18.7303 26.8358 18.4354 26.8774C18.1053 26.9239 17.7741 26.9269 17.4421 26.8861C17.1646 26.8519 16.8865 26.8628 16.6089 26.9172C16.2847 26.9807 15.9585 27.0138 15.6329 27.0151C15.3195 27.0163 15.0063 27.0059 14.6931 26.9863C14.3963 26.9677 14.0987 26.9652 13.8018 26.9794C13.4895 26.9944 13.1761 27.001 12.8638 26.9996C12.5512 26.998 12.2384 26.9878 11.9262 26.9684C11.6124 26.9489 11.2984 26.9194 10.9859 26.8774C10.7031 26.8394 10.419 26.8355 10.1326 26.8659C9.79256 26.9021 9.45467 26.8814 9.1214 26.806C8.80527 26.7344 8.50344 26.6428 8.21909 26.5306C7.8939 26.402 7.62712 26.1845 7.42111 25.8881C7.2281 25.6103 7.08099 25.3082 6.98094 24.9836C6.89338 24.6993 6.78671 24.4221 6.66111 24.1549C6.51343 23.8405 6.434 23.5072 6.42318 23.1593C6.41395 22.8631 6.38441 22.5696 6.33441 22.2812C6.28023 21.9684 6.24442 21.6524 6.2278 21.3345C6.21169 21.0264 6.19842 20.718 6.18799 20.4098C6.1775 20.0992 6.17412 19.7873 6.17655 19.4764C6.17896 19.1708 6.17888 18.8641 6.17655 18.5585C6.17415 18.2418 6.18714 17.924 6.21682 17.6077C6.24507 17.3066 6.26381 17.0046 6.27447 16.7031C6.2852 16.3996 6.2907 16.0954 6.29003 15.7917C6.28935 15.4874 6.2847 15.1827 6.27447 14.8784C6.26574 14.6192 6.22611 14.4055 6.17244 14.2296C6.1604 14.238 6.14451 14.2468 6.12988 14.2584C5.87798 14.4583 5.61145 14.6364 5.33007 14.7919C5.02561 14.9602 4.70591 15.0511 4.37652 15.0582C4.06078 15.065 3.74039 15.0112 3.41885 14.9008C3.08775 14.787 2.79346 14.6094 2.53851 14.3696C2.3095 14.154 2.08446 13.9328 1.86727 13.7093C1.65412 13.49 1.44049 13.2711 1.22532 13.0536C1.00433 12.8303 0.790106 12.5993 0.585198 12.3604C0.359301 12.097 0.196797 11.8008 0.100644 11.4737C0.0055782 11.1501 -0.0234776 10.8188 0.013708 10.4826C0.0518332 10.1392 0.167391 9.81678 0.355961 9.52039C0.524527 9.25552 0.700976 8.99578 0.883068 8.74025C1.07741 8.46753 1.30506 8.22246 1.56757 8.00907C1.79072 7.82762 1.98537 7.62155 2.14959 7.39091C2.33527 7.13021 2.53501 6.88073 2.7499 6.64418C2.97187 6.39988 3.2201 6.18255 3.49206 5.99307C3.73351 5.82481 3.95922 5.63943 4.16742 5.43531C4.38627 5.22073 4.60379 5.00409 4.82081 4.78649C5.05169 4.555 5.30307 4.34699 5.57441 4.16421C5.83452 3.98902 6.09947 3.81918 6.36781 3.65724C6.66846 3.47595 6.99618 3.36815 7.34561 3.33512C7.66769 3.30472 7.99006 3.30229 8.31243 3.32414C8.60055 3.34368 9.03093 3.33538 9.61007 3.2976H9.62563L9.6723 3.29531H9.69472C9.7761 3.27564 9.86309 3.27265 9.95049 3.29943C9.97511 3.28881 10.021 3.27245 10.0791 3.27518C10.1096 3.27673 10.1397 3.28422 10.1683 3.29531H10.2035L10.2703 3.35296L10.2859 3.35525L10.3083 3.35983L10.3303 3.36852C10.4278 3.41115 10.6127 3.51792 10.8661 3.67097C11.1591 3.84801 11.4067 4.07978 11.6059 4.36188C11.7505 4.56646 11.9364 4.71036 12.1683 4.79976C12.4556 4.91045 12.7417 5.02645 13.0262 5.14659C13.2767 5.25237 13.5383 5.3109 13.8104 5.32184C14.1001 5.33345 14.3878 5.3209 14.6729 5.28203C14.9694 5.24159 15.2662 5.19141 15.562 5.13332C15.8678 5.07327 16.1765 5.02224 16.4862 4.97775C16.7681 4.9372 17.0422 4.86291 17.3066 4.75538C17.5323 4.66347 17.6989 4.51476 17.8155 4.30423C17.9839 3.99941 18.2108 3.74211 18.4931 3.53507C18.7898 3.31745 19.1269 3.20256 19.4956 3.19511C19.7967 3.189 20.0952 3.1695 20.391 3.13517ZM21.3135 3.69064C21.0281 3.6638 20.743 3.66673 20.4578 3.69979C20.1435 3.73629 19.826 3.75784 19.5066 3.76431C19.2544 3.76943 19.0308 3.84506 18.8289 3.99309C18.6129 4.15157 18.4415 4.3457 18.3133 4.57739C18.1332 4.90323 17.8658 5.14138 17.5199 5.28203C17.2125 5.407 16.8943 5.49253 16.5663 5.53963C16.2661 5.58276 15.9673 5.63289 15.6709 5.69109C15.3646 5.75122 15.0579 5.80245 14.7507 5.84437C14.4324 5.8878 14.1112 5.90394 13.7885 5.89104C13.448 5.87739 13.1198 5.80342 12.8061 5.67095C12.5267 5.55297 12.2458 5.43966 11.9637 5.33099C11.6263 5.20092 11.3507 4.98475 11.1415 4.68858C10.987 4.46987 10.7976 4.29317 10.5728 4.15735C10.3459 4.02032 10.2014 3.94168 10.1303 3.90615C10.0735 3.92219 10.025 3.92591 9.99259 3.91988L9.91709 3.89517C9.9204 3.89626 9.92221 3.89767 9.92121 3.89746C9.92002 3.89713 9.91694 3.8957 9.91251 3.89517C9.90796 3.89464 9.90203 3.8933 9.89467 3.89288C9.86786 3.89136 9.84061 3.88337 9.81231 3.87961C9.70829 3.88747 9.57812 3.89887 9.42155 3.91073C9.36594 3.91494 9.31875 3.91948 9.29252 3.91988C9.28834 3.91994 9.28141 3.92007 9.27468 3.91988C9.26962 3.91973 9.25335 3.91825 9.23487 3.9153C9.22694 3.91403 9.19712 3.91017 9.16349 3.89517C9.15992 3.89353 9.1559 3.88941 9.15022 3.88648C8.79495 3.90088 8.50223 3.90603 8.27446 3.8906C7.98271 3.87081 7.69075 3.87451 7.39915 3.90203C7.13453 3.92705 6.88884 4.00894 6.66111 4.14637C6.40109 4.3033 6.14448 4.46573 5.89241 4.6355C5.65161 4.79768 5.42831 4.98105 5.22346 5.1864C5.00502 5.40542 4.78578 5.6238 4.56549 5.83979C4.33432 6.06645 4.08393 6.27344 3.81647 6.45978C3.5795 6.62487 3.36479 6.81433 3.17177 7.0267C2.97181 7.24681 2.78453 7.47949 2.61172 7.72218C2.4176 7.9947 2.18927 8.23795 1.92721 8.45107C1.70394 8.63258 1.50943 8.83882 1.3452 9.06923C1.16881 9.31677 0.999694 9.57035 0.836397 9.82695C0.693263 10.052 0.606598 10.2902 0.578334 10.5449C0.549359 10.8065 0.573678 11.0625 0.647426 11.3136C0.720158 11.5607 0.841747 11.7857 1.01622 11.9894C1.21236 12.218 1.41832 12.44 1.6298 12.6537C1.84645 12.8727 2.06171 13.0932 2.27633 13.314C2.48737 13.5311 2.70475 13.744 2.92744 13.9537C3.12397 14.1387 3.35004 14.275 3.60554 14.3627C3.87078 14.4537 4.12391 14.4947 4.36554 14.4895C4.59375 14.4844 4.82255 14.4221 5.05416 14.2941C5.30838 14.1536 5.54908 13.9925 5.77665 13.8118C5.90721 13.7082 6.08381 13.6026 6.27905 13.6206C6.51791 13.6427 6.64155 13.8259 6.6968 13.9848C6.78478 14.2385 6.83221 14.5332 6.84322 14.8605C6.85363 15.1706 6.85809 15.4816 6.85877 15.7917C6.85945 16.1021 6.85417 16.4126 6.84322 16.7228C6.83216 17.0354 6.81256 17.3486 6.78328 17.6608C6.75537 17.9582 6.74349 18.2568 6.74576 18.5544C6.7481 18.8629 6.74819 19.1724 6.74576 19.481C6.74338 19.784 6.7465 20.0873 6.75674 20.3901C6.76706 20.6953 6.78059 21.0006 6.79655 21.3057C6.81201 21.6013 6.84408 21.8949 6.89446 22.1856C6.949 22.5004 6.98233 22.8191 6.99238 23.1414C7.0008 23.4123 7.06201 23.6706 7.17678 23.9147C7.31353 24.2057 7.4302 24.5057 7.52543 24.8147C7.60834 25.0839 7.72832 25.3342 7.88782 25.5637C8.03413 25.7743 8.21382 25.917 8.42774 26.0016C8.68303 26.1024 8.95637 26.1849 9.24585 26.2505C9.51829 26.3122 9.79452 26.3291 10.0727 26.2995C10.4037 26.2643 10.7334 26.2688 11.0614 26.3128C11.3606 26.3529 11.6611 26.3829 11.9615 26.4015C12.2632 26.4203 12.5662 26.4289 12.8683 26.4304C13.1706 26.4318 13.473 26.427 13.7752 26.4125C14.093 26.3973 14.4107 26.3995 14.7283 26.4194C15.0289 26.4382 15.3299 26.4471 15.6306 26.4459C15.9197 26.4448 16.2104 26.4161 16.5 26.3594C16.836 26.2936 17.1736 26.2798 17.5112 26.3215C17.7938 26.3563 18.075 26.3545 18.3554 26.315C18.6713 26.2705 18.9889 26.2438 19.3066 26.235C19.6088 26.2266 19.9119 26.2102 20.2135 26.186C20.5155 26.1618 20.8163 26.1316 21.1158 26.095C21.4252 26.0571 21.7371 26.0282 22.0492 26.008C22.3075 25.9913 22.5263 25.9142 22.7136 25.7815C22.8953 25.6528 23.0267 25.4771 23.1071 25.2439C23.1986 24.9778 23.2602 24.7016 23.2915 24.4171C23.3246 24.1158 23.3514 23.8115 23.3716 23.5079C23.392 23.2012 23.4121 22.8944 23.4315 22.5878C23.4502 22.2926 23.4486 21.9963 23.4292 21.701C23.4091 21.3949 23.3866 21.0885 23.3624 20.7832C23.337 20.4623 23.3382 20.1406 23.3624 19.8186C23.385 19.5183 23.3952 19.216 23.3935 18.9163C23.3919 18.6108 23.3886 18.3056 23.3826 18.0008C23.3768 17.7126 23.3431 17.4241 23.2824 17.1364C23.2138 16.8123 23.1781 16.4857 23.178 16.1586C23.178 15.8571 23.1708 15.5553 23.1538 15.254C23.1362 14.9438 23.1244 14.6317 23.1181 14.3206C23.1149 14.1609 23.124 14.0046 23.167 13.8827C23.189 13.8208 23.2304 13.7376 23.3116 13.6759C23.3583 13.6407 23.409 13.6196 23.4603 13.6096L23.6136 13.6114L23.7783 13.6759C23.8305 13.7042 23.8798 13.7376 23.9248 13.7716C24.0213 13.8445 24.1285 13.9421 24.2428 14.0584C24.4724 14.2924 24.6768 14.5424 24.8536 14.8075C24.991 15.0131 25.1716 15.168 25.4004 15.276C25.6253 15.3819 25.8598 15.4171 26.1073 15.3808C26.3847 15.34 26.6511 15.2651 26.9053 15.1538C27.1619 15.0415 27.3993 14.8994 27.6186 14.7297C27.8731 14.5328 28.1479 14.3631 28.4431 14.2227C28.6738 14.113 28.8557 13.9558 28.9918 13.7473C29.1395 13.5207 29.2419 13.2813 29.3029 13.0294C29.3677 12.762 29.4101 12.4828 29.4274 12.1916C29.444 11.911 29.4208 11.6374 29.3587 11.3712C29.2972 11.1073 29.1961 10.8564 29.054 10.6181C28.9019 10.3634 28.736 10.1165 28.5585 9.8782C28.3781 9.63635 28.1893 9.39841 27.9943 9.16669C27.7938 8.92845 27.5978 8.68697 27.4072 8.44467C27.2156 8.20085 27.031 7.94997 26.8518 7.69336C26.6816 7.44972 26.4964 7.2166 26.2986 6.99329C26.0848 6.75191 25.8894 6.49784 25.7138 6.231C25.5548 5.98936 25.3772 5.76184 25.1785 5.55107C24.9878 5.34884 24.7697 5.1782 24.5269 5.03998C24.2465 4.88026 23.9807 4.69742 23.7294 4.4932C23.5066 4.31218 23.2648 4.15928 23.0069 4.0329C22.7574 3.9107 22.4954 3.83214 22.2204 3.79542C21.9182 3.75511 21.6154 3.71911 21.3135 3.69064Z" fill="#1A1C20"/>
<path d="M19.1956 3.87055C19.3275 3.75635 19.5282 3.77086 19.6426 3.90258C19.757 4.03456 19.7425 4.23566 19.6106 4.35007L19.5758 4.37981L19.4893 4.45623C19.4332 4.50573 19.3345 4.61632 19.1928 4.80717C19.0442 5.00729 18.8871 5.20086 18.7211 5.38781C18.5199 5.6144 18.27 5.76963 17.9771 5.8472C17.7726 5.90123 17.5759 5.98407 17.3891 6.09428C17.1539 6.23305 16.9087 6.33426 16.6552 6.3981C16.4374 6.45291 16.2128 6.51509 15.9835 6.58341C15.7207 6.66166 15.4508 6.70045 15.1778 6.69963C14.9381 6.69892 14.7004 6.70074 14.4663 6.70466C14.2258 6.70869 13.9834 6.70738 13.7397 6.70238C13.4812 6.69705 13.2252 6.66892 12.9714 6.61819C12.7115 6.56616 12.4597 6.4843 12.2178 6.37339C12.001 6.27393 11.7858 6.17921 11.5731 6.08925C11.3366 5.9892 11.1095 5.86403 10.8936 5.71405C10.6641 5.55447 10.468 5.359 10.308 5.12838C10.2449 5.03752 10.1614 4.92875 10.0559 4.80214L9.67059 4.36471L9.65046 4.34504C9.526 4.22327 9.5221 4.02294 9.64314 3.898C9.76516 3.77319 9.96571 3.77111 10.0906 3.89297L10.1249 3.925L10.1323 3.93003L10.1373 3.93735C10.4442 4.2717 10.6781 4.54967 10.8291 4.76736C10.9464 4.93625 11.0872 5.07905 11.2542 5.19518C11.4348 5.32073 11.6229 5.42391 11.8175 5.50632C12.0361 5.59881 12.2571 5.69853 12.4795 5.80053C12.6772 5.89118 12.8833 5.95583 13.095 5.9982C13.3121 6.04164 13.531 6.06498 13.752 6.06957C13.9882 6.07443 14.2236 6.07622 14.4562 6.07232C14.6948 6.06832 14.9365 6.06656 15.1805 6.06729C15.3913 6.0679 15.599 6.03873 15.8028 5.97806C16.0401 5.90735 16.2727 5.84255 16.4996 5.78543C16.6908 5.73732 16.8809 5.6588 17.0679 5.54842C17.3038 5.40927 17.5526 5.30362 17.8142 5.23453C17.9871 5.18888 18.1302 5.10143 18.2489 4.96778C18.4026 4.79461 18.5488 4.61444 18.6863 4.42923C18.8308 4.23463 18.96 4.07811 19.0693 3.98174V3.98448L19.1585 3.90533L19.1608 3.90258L19.1956 3.87055Z" fill="#F3F4F5"/>
</g>
<defs>
<clipPath id="clip0_2030_2451">
<rect width="30" height="30" fill="white"/>
</clipPath>
</defs>
</svg>
