<svg width="20" height="20" viewBox="0 0 20 20" fill="none" xmlns="http://www.w3.org/2000/svg">
<path d="M12.8975 1C13.2333 1.00017 13.5404 1.18749 13.6963 1.48535L14.7529 3.51953L18.0996 3.51855C18.3376 3.51855 18.5683 3.6142 18.7373 3.7832C18.9051 3.95117 19 4.18009 19 4.41895V17.6494C19 18.1464 18.5966 18.5498 18.0996 18.5498H10.001H1.90137C1.40437 18.5498 1 18.1464 1 17.6494V4.41992C1.00004 3.92296 1.40439 3.51953 1.90137 3.51953H5.24707L6.30469 1.48535C6.45961 1.18749 6.7677 1.00018 7.10352 1H12.8975ZM10 7.04688C7.781 7.04688 5.97461 8.85327 5.97461 11.0723C5.97482 13.2921 7.78113 15.0967 10 15.0967C12.2197 15.0965 14.0252 13.292 14.0254 11.0723C14.0254 8.8534 12.2198 7.04709 10 7.04688ZM10.001 8.8457C11.2278 8.8457 12.2264 9.84349 12.2266 11.0703C12.2266 12.2973 11.228 13.2969 10.001 13.2969C8.77514 13.2967 7.77734 12.2972 7.77734 11.0703C7.77756 9.84361 8.77527 8.8459 10.001 8.8457ZM15 6.44922C14.4477 6.44922 14 6.89693 14 7.44922C14 8.0015 14.4477 8.44922 15 8.44922C15.5523 8.44922 16 8.0015 16 7.44922C16 6.89693 15.5523 6.44922 15 6.44922Z" fill="#2A3038"/>
</svg>
