<svg width="20" height="20" viewBox="0 0 20 20" fill="none" xmlns="http://www.w3.org/2000/svg">
<path d="M4.06421 5.36139C4.06421 5.93032 4.06142 6.48791 4.1112 6.95042C4.16436 7.44315 4.29363 8.01777 4.67815 8.55048C4.87572 8.8238 5.11596 9.06591 5.38763 9.2646C5.91668 9.6508 6.48814 9.78031 6.97729 9.83369C7.43655 9.88355 7.99144 9.88098 8.55599 9.88098H11.4471C12.012 9.88099 12.5667 9.88376 13.0258 9.83369C13.5151 9.78013 14.0866 9.6513 14.6155 9.2646C14.8872 9.06575 15.1275 8.82397 15.325 8.55048C15.7091 8.01794 15.8357 7.44295 15.8888 6.95042C15.9386 6.48791 15.9358 5.93032 15.9358 5.36139V4.22953C16.119 4.26498 16.2867 4.31422 16.4464 4.38086C16.6397 4.46174 16.8267 4.56161 17.0008 4.6788C17.5309 5.03633 17.905 5.59957 18.6484 6.72184L19.0305 7.29881C19.4572 7.94289 19.6718 8.26698 19.8027 8.62458C19.8459 8.743 19.8815 8.86604 19.9107 8.98873C19.9986 9.35917 20 9.74809 20 10.5226V14.1878C20 16.6074 19.9994 17.8194 19.3876 18.6679C19.1902 18.9415 18.9498 19.1831 18.6782 19.382C17.8352 19.9985 16.63 20 14.2255 20H5.77447C3.37055 20 2.16645 19.9976 1.32341 19.382C1.0517 19.1833 0.811506 18.9414 0.613939 18.6679C0.00170119 17.8194 3.61999e-07 16.6081 0 14.1878V10.4627C0 9.71387 0.0020196 9.33853 0.0845732 8.97927C0.112007 8.86016 0.145705 8.74137 0.186374 8.62615C0.309259 8.27841 0.510042 7.96164 0.911511 7.33034L1.24197 6.81327L1.25137 6.79751C1.98345 5.64633 2.35177 5.06816 2.88645 4.6993C3.06282 4.5777 3.25187 4.47427 3.44871 4.39032C3.63836 4.30959 3.83842 4.25464 4.06421 4.21691V5.36139ZM13.823 11.6797C13.4873 11.3894 12.9809 11.4272 12.6922 11.7648L9.53485 15.4646L7.28113 13.0732C6.97645 12.7507 6.46988 12.7373 6.14879 13.0433C5.8275 13.3501 5.81423 13.8612 6.11903 14.1846L8.98355 17.2239C9.13967 17.3891 9.3585 17.4818 9.58496 17.4762C9.81137 17.4703 10.0262 17.3685 10.1738 17.1956L13.9092 12.8178C14.1973 12.4802 14.1577 11.9703 13.823 11.6797ZM11.4456 0C12.6478 3.10989e-07 13.2496 0.00232657 13.6711 0.310554C13.8068 0.409975 13.9279 0.530121 14.0266 0.666824C14.3314 1.08997 14.332 1.69426 14.332 2.89745V5.36928C14.332 6.57331 14.332 7.17829 14.0266 7.60148C13.9278 7.73838 13.8071 7.85826 13.6711 7.95775C13.2496 8.26598 12.6478 8.26673 11.4456 8.26673H8.55442L8.54973 8.26515L7.84808 8.26358C7.84022 8.26346 7.83086 8.26245 7.82302 8.262C7.08866 8.24971 6.65457 8.19544 6.3289 7.95775C6.26131 7.90829 6.19678 7.85305 6.13782 7.7938C6.07889 7.73449 6.02415 7.66951 5.97494 7.60148C5.66874 7.17728 5.66797 6.57126 5.66797 5.36139V2.90691C5.66797 1.69666 5.66878 1.09111 5.97494 0.666824C6.07369 0.530109 6.19307 0.409953 6.3289 0.310554C6.75043 0.00238873 7.35203 0 8.55442 0H11.4456Z" fill="#2A3038"/>
</svg>
