<svg width="20" height="20" viewBox="0 0 20 20" fill="none" xmlns="http://www.w3.org/2000/svg">
<g clip-path="url(#clip0_1189_6085)">
<path fill-rule="evenodd" clip-rule="evenodd" d="M0 10C0 4.47727 4.47727 0 10 0C15.5227 0 20 4.47727 20 10C20 15.5227 15.5227 20 10 20C4.47727 20 0 15.5227 0 10ZM14.3509 7.83545C14.5002 7.64595 14.568 7.40491 14.5395 7.16538C14.5111 6.92584 14.3886 6.70743 14.1991 6.55818C14.0096 6.40894 13.7685 6.34109 13.529 6.36956C13.2895 6.39803 13.0711 6.52049 12.9218 6.71L9.04818 11.63L7.02 9.51455C6.85316 9.34047 6.62399 9.2398 6.38292 9.23468C6.14185 9.22957 5.90862 9.32043 5.73455 9.48727C5.56047 9.65412 5.4598 9.88328 5.45468 10.1244C5.44957 10.3654 5.54043 10.5986 5.70727 10.7727L8.45909 13.6436C8.54908 13.7376 8.65819 13.8112 8.77905 13.8594C8.89991 13.9076 9.02971 13.9292 9.15967 13.9229C9.28963 13.9167 9.41673 13.8825 9.53237 13.8229C9.64802 13.7633 9.74951 13.6795 9.83 13.5773L14.3509 7.83545Z" fill="#2A3038"/>
</g>
<defs>
<clipPath id="clip0_1189_6085">
<rect width="20" height="20" fill="white"/>
</clipPath>
</defs>
</svg>
