<svg width="16" height="16" viewBox="0 0 16 16" fill="none" xmlns="http://www.w3.org/2000/svg">
<path fill-rule="evenodd" clip-rule="evenodd" d="M0.260737 0.260741C-0.0869123 0.607407 -0.0869123 1.17037 0.260737 1.51704L6.74261 8L0.260737 14.483C-0.0869123 14.8296 -0.0869123 15.3926 0.260737 15.7393C0.434561 15.9131 0.661718 16 0.889863 16C1.11702 16 1.34516 15.9131 1.518 15.7393L8.00086 9.25728L14.4818 15.7393C14.6556 15.9131 14.8837 16 15.1109 16C15.339 16 15.5662 15.9131 15.74 15.7393C16.0867 15.3926 16.0867 14.8296 15.74 14.483L9.25714 8L15.74 1.51704C16.0867 1.17037 16.0867 0.607407 15.74 0.260741C15.3924 -0.0869136 14.8294 -0.0869136 14.4818 0.260741L8.00086 6.74272L1.518 0.260741C1.17134 -0.0869136 0.608386 -0.0869136 0.260737 0.260741Z" fill="currentColor"/>
</svg>
