<svg width="20" height="20" viewBox="0 0 20 20" fill="none" xmlns="http://www.w3.org/2000/svg">
<path d="M2.601 8.40039C1.717 8.40039 1 9.11639 1 10.0004C1 10.8834 1.717 11.6004 2.601 11.6004C3.485 11.6004 4.201 10.8834 4.201 10.0004C4.201 9.11639 3.485 8.40039 2.601 8.40039Z" fill="#2A3038"/>
<path d="M10.0004 8.40039C9.1174 8.40039 8.4004 9.11639 8.4004 10.0004C8.4004 10.8834 9.1174 11.6004 10.0004 11.6004C10.8844 11.6004 11.6014 10.8834 11.6014 10.0004C11.6014 9.11639 10.8844 8.40039 10.0004 8.40039Z" fill="#2A3038"/>
<path d="M15.8008 10.0004C15.8008 9.11639 16.5168 8.40039 17.4008 8.40039C18.2848 8.40039 19.0008 9.11639 19.0008 10.0004C19.0008 10.8834 18.2848 11.6004 17.4008 11.6004C16.5168 11.6004 15.8008 10.8834 15.8008 10.0004Z" fill="#2A3038"/>
</svg>
