<svg width="18" height="18" viewBox="0 0 18 18" fill="none" xmlns="http://www.w3.org/2000/svg">
  <path
    fill-rule="evenodd"
    clip-rule="evenodd"
    d="M16.5 7.5V2.25C16.5 1.8375 16.1625 1.5 15.75 1.5H10.5C10.0875 1.5 9.75 1.8375 9.75 2.25C9.75 2.6625 10.0875 3 10.5 3H13.9425L9.975 6.9675C9.90556 7.03694 9.85048 7.11937 9.81291 7.21009C9.77533 7.30082 9.75599 7.39805 9.75599 7.49625C9.75599 7.59445 9.77533 7.69168 9.81291 7.78241C9.85048 7.87313 9.90556 7.95556 9.975 8.025C10.0444 8.09444 10.1269 8.14952 10.2176 8.1871C10.3083 8.22467 10.4056 8.24402 10.5038 8.24402C10.6019 8.24402 10.6992 8.22467 10.7899 8.1871C10.8806 8.14952 10.9631 8.09444 11.0325 8.025L15 4.0575V7.5C15 7.9125 15.3375 8.25 15.75 8.25C16.1625 8.25 16.5 7.9125 16.5 7.5ZM2.25 9.75C1.8375 9.75 1.5 10.0875 1.5 10.5V15.75C1.5 16.1625 1.8375 16.5 2.25 16.5H7.5C7.9125 16.5 8.25 16.1625 8.25 15.75C8.25 15.3375 7.9125 15 7.5 15H4.0575L8.025 11.0325C8.09444 10.9631 8.14952 10.8806 8.1871 10.7899C8.22467 10.6992 8.24402 10.6019 8.24402 10.5038C8.24402 10.4056 8.22467 10.3083 8.1871 10.2176C8.14952 10.1269 8.09444 10.0444 8.025 9.975C7.95556 9.90556 7.87313 9.85048 7.78241 9.81291C7.69168 9.77533 7.59445 9.75599 7.49625 9.75599C7.39805 9.75599 7.30082 9.77533 7.21009 9.81291C7.11937 9.85048 7.03694 9.90556 6.9675 9.975L3 13.9425V10.5C3 10.0875 2.6625 9.75 2.25 9.75Z"
    fill="currentColor"
  />
</svg>
