<svg width="18" height="15" viewBox="0 0 18 15" fill="none" xmlns="http://www.w3.org/2000/svg">
<path fill-rule="evenodd" clip-rule="evenodd" d="M12.6591 10.0609L12.0381 7.96387H13.2801L12.6591 10.0609ZM8.385 6.16458L9.006 4.06758L9.627 6.16458H8.385ZM5.35247 10.0609L4.73047 7.96387H5.97347L5.35247 10.0609ZM17.1 6.16458H15.691L17.176 1.15658C17.316 0.679579 17.045 0.178579 16.568 0.0375789C16.086 -0.104421 15.591 0.168579 15.449 0.644579L13.813 6.16458H11.505L9.869 0.644579C9.756 0.262579 9.404 0.000578946 9.006 0.000578946C8.607 0.000578946 8.256 0.262579 8.142 0.644579L6.507 6.16458H4.197L2.561 0.644579C2.421 0.169579 1.921 -0.103421 1.442 0.0375789C0.966 0.178579 0.694 0.679579 0.835 1.15658L2.319 6.16458H0.9C0.403 6.16458 0 6.56658 0 7.06358C0 7.56058 0.403 7.96358 0.9 7.96358H2.853L4.489 13.4836C4.602 13.8656 4.954 14.1276 5.352 14.1276C5.751 14.1276 6.102 13.8656 6.216 13.4836L7.851 7.96358H10.16L11.796 13.4836C11.909 13.8656 12.261 14.1276 12.659 14.1276C13.057 14.1276 13.409 13.8656 13.522 13.4836L15.158 7.96358H17.1C17.597 7.96358 18.001 7.56058 18.001 7.06358C18.001 6.56658 17.597 6.16458 17.1 6.16458Z" fill="currentColor"/>
</svg>
