<svg width="21" height="20" viewBox="0 0 21 20" fill="none" xmlns="http://www.w3.org/2000/svg">
<path fill-rule="evenodd" clip-rule="evenodd" d="M9.88782 11.2814C12.9507 11.2814 15.4433 8.75164 15.4433 5.64072C15.4433 2.53081 12.9507 0 9.88782 0C6.8249 0 4.33233 2.53081 4.33233 5.64072C4.33233 8.75164 6.8249 11.2814 9.88782 11.2814Z" fill="currentColor"/>
<path fill-rule="evenodd" clip-rule="evenodd" d="M19.8771 18.6134C17.8368 15.0392 14.053 12.8178 10.0005 12.8178C5.94702 12.8178 2.16323 15.0392 0.122852 18.6134C-0.040782 18.8985 -0.040782 19.2513 0.121842 19.5364C0.284466 19.8236 0.583452 20 0.909711 20H19.0913C19.4165 20 19.7165 19.8236 19.8782 19.5364C20.0408 19.2513 20.0408 18.8985 19.8771 18.6134Z" fill="currentColor"/>
</svg>
