<svg width="20" height="20" viewBox="0 0 20 20" fill="none" xmlns="http://www.w3.org/2000/svg">
<path fill-rule="evenodd" clip-rule="evenodd" d="M3.50185 13.6699C3.58972 13.5264 3.63618 13.3628 3.63618 13.1951V8.182C3.63618 4.6729 6.49043 1.81836 9.99914 1.81836C13.5069 1.81836 16.3611 4.6729 16.3611 8.182V13.1951C16.3611 13.3628 16.4076 13.5264 16.4954 13.6699L17.466 15.2527H2.53125L3.50185 13.6699ZM9.99919 18.1814C9.31239 18.1814 8.73972 17.7077 8.57812 17.0703H11.4192C11.2586 17.7077 10.685 18.1814 9.99919 18.1814ZM0.909553 17.0707H6.74833C6.93012 18.7131 8.30978 20 10.0005 20C11.6902 20 13.0709 18.7131 13.2517 17.0707H19.0915C19.4207 17.0707 19.7237 16.8929 19.8843 16.6061C20.0449 16.3192 20.0378 15.9667 19.8661 15.6869L18.1815 12.9384V8.18182C18.1815 3.67071 14.5111 0 10.0005 0C5.48886 0 1.81855 3.67071 1.81855 8.18182V12.9384L0.133878 15.6869C-0.0378212 15.9667 -0.0448911 16.3192 0.115698 16.6061C0.277297 16.8929 0.579285 17.0707 0.909553 17.0707Z" fill="currentColor"/>
</svg>
