<svg width="20" height="20" viewBox="0 0 20 20" fill="none" xmlns="http://www.w3.org/2000/svg">
<path fill-rule="evenodd" clip-rule="evenodd" d="M19.6696 15.53L18.0016 12.809V8.1C18.0016 3.634 14.3676 0 9.90055 0C5.43455 0 1.80055 3.634 1.80055 8.1V12.809L0.132553 15.53C-0.0374469 15.808 -0.0444469 16.156 0.114553 16.44C0.273553 16.724 0.573553 16.901 0.899553 16.901H6.68155C6.86055 18.527 8.22855 19.801 9.90055 19.801C11.5736 19.801 12.9406 18.527 13.1206 16.901H18.9016C19.2286 16.901 19.5276 16.724 19.6876 16.44C19.8466 16.156 19.8396 15.808 19.6696 15.53Z" fill="#2A3038"/>
</svg>
