<svg width="20" height="20" viewBox="0 0 20 20" fill="none" xmlns="http://www.w3.org/2000/svg">
<path d="M10 0C11.3662 9.67947e-05 12.6767 0.517466 13.6429 1.44016C14.5066 2.2652 15.0303 3.35378 15.1321 4.50764C16.3631 4.54194 17.124 4.65784 17.7082 5.06324C17.9741 5.24786 18.2083 5.47151 18.4015 5.72556C18.9999 6.51266 19 7.63557 19 9.88084V14.6093C19 16.8545 18.9999 17.9774 18.4015 18.7645C18.2083 19.0186 17.9741 19.2422 17.7082 19.4269C16.8842 19.9987 15.7086 20 13.3582 20H6.64184C4.291 20 3.11584 19.9987 2.29184 19.4269C2.02572 19.2422 1.79182 19.0187 1.59847 18.7645C0.999809 17.9774 1 16.8549 1 14.6093V9.88084C1 7.63524 0.999809 6.51268 1.59847 5.72556C1.79182 5.47136 2.02572 5.24793 2.29184 5.06324C2.87579 4.65797 3.63618 4.54198 4.86633 4.50764C4.96812 3.35376 5.4919 2.26521 6.35561 1.44016C7.32188 0.517151 8.63349 -9.85502e-08 10 0ZM5.75561 6.63353C4.97748 6.63353 4.34592 7.23536 4.34592 7.97865C4.34592 8.72195 4.97748 9.32524 5.75561 9.32524C6.53339 9.32485 7.16378 8.72171 7.16378 7.97865C7.16378 7.2356 6.53339 6.63392 5.75561 6.63353ZM14.2306 6.63353C13.4525 6.63353 12.8209 7.23536 12.8209 7.97865C12.8209 8.72195 13.4525 9.32524 14.2306 9.32524C15.0084 9.32485 15.6388 8.72171 15.6388 7.97865C15.6388 7.2356 15.0084 6.63392 14.2306 6.63353ZM10 1.96798C9.1801 1.96798 8.39405 2.27973 7.81429 2.83354C7.3417 3.28497 7.04106 3.86741 6.9449 4.49156H13.0551C12.959 3.86754 12.6581 3.28494 12.1857 2.83354C11.606 2.27982 10.8198 1.96808 10 1.96798Z" fill="#2A3038"/>
</svg>
