<svg width="20" height="20" viewBox="0 0 20 20" fill="none" xmlns="http://www.w3.org/2000/svg">
<path d="M4.06421 5.36024C4.06421 5.92948 4.0614 6.48663 4.1112 6.94939C4.1643 7.44236 4.29341 8.01652 4.67815 8.54958C4.87584 8.82329 5.11567 9.06484 5.38763 9.26376C5.91693 9.65049 6.48787 9.77947 6.97729 9.83289C7.43672 9.88285 7.99109 9.88018 8.55599 9.88018H11.4471C12.0122 9.88019 12.5665 9.88298 13.0258 9.83289C13.5153 9.77937 14.0864 9.65067 14.6155 9.26376C14.8873 9.06484 15.1274 8.8232 15.325 8.54958C15.7093 8.01675 15.8357 7.44211 15.8888 6.94939C15.9386 6.48663 15.9358 5.92948 15.9358 5.36024V4.22828C16.1193 4.26376 16.2864 4.31287 16.4464 4.37963C16.6401 4.46059 16.8264 4.5602 17.0008 4.6776C17.5313 5.03513 17.9046 5.5978 18.6484 6.72079L19.0305 7.29781C19.4577 7.94277 19.6718 8.26582 19.8027 8.62368C19.8461 8.74241 19.8814 8.86483 19.9107 8.98786C19.9989 9.35861 20 9.74663 20 10.5218V14.1873C20 16.6077 19.9995 17.8191 19.3876 18.6678C19.1901 18.9415 18.9499 19.183 18.6782 19.382C17.8351 19.9986 16.6305 20 14.2255 20H5.77447C3.36971 20 2.1665 19.9982 1.32341 19.382C1.0514 19.183 0.811629 18.9416 0.613939 18.6678C0.00163478 17.8191 0 16.6083 0 14.1873V10.4619C8.63552e-09 9.71266 0.00188938 9.33787 0.0845732 8.9784C0.112043 8.85912 0.145634 8.74063 0.186374 8.62526C0.309272 8.27745 0.509957 7.96083 0.911511 7.32934L1.24197 6.81223C1.98052 5.65079 2.34941 5.06861 2.88645 4.69809C3.06287 4.57643 3.25181 4.47308 3.44871 4.38909C3.63848 4.30827 3.83827 4.25342 4.06421 4.21567V5.36024ZM6.46985 13.0207C6.02735 13.0211 5.66954 13.3823 5.66954 13.8278C5.66996 14.2733 6.02881 14.635 6.47142 14.635H13.5317C13.974 14.6346 14.3332 14.273 14.3336 13.8278C14.3336 13.3823 13.9742 13.0211 13.5317 13.0207H6.46985ZM11.4456 0C12.6483 -5.29183e-08 13.2495 0.000683308 13.6711 0.309002C13.8072 0.408559 13.9277 0.52829 14.0266 0.6653C14.3328 1.08962 14.332 1.69516 14.332 2.90557V5.36024C14.332 6.57065 14.3328 7.17618 14.0266 7.6005C13.9277 7.73752 13.8072 7.85725 13.6711 7.9568C13.2495 8.26512 12.6483 8.26581 11.4456 8.26581H8.55442L8.54973 8.26423L7.84808 8.26265C7.83994 8.26253 7.83108 8.26151 7.82302 8.26108C7.08799 8.24877 6.65467 8.19506 6.3289 7.9568C6.26101 7.90712 6.19699 7.8524 6.13782 7.79284C6.07863 7.73326 6.02432 7.66887 5.97494 7.6005C5.66868 7.17618 5.66797 6.57073 5.66797 5.36024V2.90557C5.66797 1.69508 5.66868 1.08963 5.97494 0.6653C6.07369 0.528574 6.19307 0.408409 6.3289 0.309002C6.75043 0.000709951 7.3519 5.51724e-08 8.55442 0H11.4456Z" fill="#2A3038"/>
</svg>
